%TF.GenerationSoftware,KiCad,Pcbnew,7.0.10*%
%TF.CreationDate,2024-10-22T16:46:23+13:00*%
%TF.ProjectId,MIDI_To_USB,4d494449-5f54-46f5-9f55-53422e6b6963,rev?*%
%TF.SameCoordinates,Original*%
%TF.FileFunction,Copper,L2,Bot*%
%TF.FilePolarity,Positive*%
%FSLAX46Y46*%
G04 Gerber Fmt 4.6, Leading zero omitted, Abs format (unit mm)*
G04 Created by KiCad (PCBNEW 7.0.10) date 2024-10-22 16:46:23*
%MOMM*%
%LPD*%
G01*
G04 APERTURE LIST*
%TA.AperFunction,ComponentPad*%
%ADD10O,1.600000X2.400000*%
%TD*%
%TA.AperFunction,ComponentPad*%
%ADD11R,1.600000X2.400000*%
%TD*%
%TA.AperFunction,ComponentPad*%
%ADD12C,0.700000*%
%TD*%
%TA.AperFunction,ComponentPad*%
%ADD13O,1.700000X0.900000*%
%TD*%
%TA.AperFunction,ComponentPad*%
%ADD14O,2.400000X0.900000*%
%TD*%
%TA.AperFunction,WasherPad*%
%ADD15C,2.499360*%
%TD*%
%TA.AperFunction,ComponentPad*%
%ADD16C,2.499360*%
%TD*%
%TA.AperFunction,ComponentPad*%
%ADD17R,1.600000X1.600000*%
%TD*%
%TA.AperFunction,ComponentPad*%
%ADD18O,1.600000X1.600000*%
%TD*%
%TA.AperFunction,ViaPad*%
%ADD19C,0.800000*%
%TD*%
%TA.AperFunction,Conductor*%
%ADD20C,0.500000*%
%TD*%
%TA.AperFunction,Conductor*%
%ADD21C,0.250000*%
%TD*%
G04 APERTURE END LIST*
D10*
%TO.P,U1,6*%
%TO.N,+5V*%
X148072000Y-91245500D03*
%TO.P,U1,5*%
%TO.N,GND*%
X150612000Y-91245500D03*
%TO.P,U1,4*%
%TO.N,RX*%
X153152000Y-91245500D03*
%TO.P,U1,3*%
%TO.N,unconnected-(U1-Pad3)*%
X153152000Y-83625500D03*
%TO.P,U1,2*%
%TO.N,Net-(D1-A)*%
X150612000Y-83625500D03*
D11*
%TO.P,U1,1*%
%TO.N,Net-(D1-K)*%
X148072000Y-83625500D03*
%TD*%
D12*
%TO.P,P1,A1,GND*%
%TO.N,GND*%
X144487000Y-92891000D03*
%TO.P,P1,A4,VBUS*%
%TO.N,+5V*%
X144487000Y-92041000D03*
%TO.P,P1,A5,CC*%
%TO.N,unconnected-(P1-CC-PadA5)*%
X144487000Y-91191000D03*
%TO.P,P1,A6,D+*%
%TO.N,Net-(P1-D+)*%
X144487000Y-90341000D03*
%TO.P,P1,A7,D-*%
%TO.N,Net-(P1-D-)*%
X144487000Y-89491000D03*
%TO.P,P1,A8*%
%TO.N,N/C*%
X144487000Y-88641000D03*
%TO.P,P1,A9,VBUS*%
%TO.N,+5V*%
X144487000Y-87791000D03*
%TO.P,P1,A12,GND*%
%TO.N,GND*%
X144487000Y-86941000D03*
%TO.P,P1,B1,GND*%
X143137000Y-86941000D03*
%TO.P,P1,B4,VBUS*%
%TO.N,+5V*%
X143137000Y-87791000D03*
%TO.P,P1,B5,VCONN*%
%TO.N,unconnected-(P1-VCONN-PadB5)*%
X143137000Y-88641000D03*
%TO.P,P1,B6*%
%TO.N,N/C*%
X143137000Y-89491000D03*
%TO.P,P1,B7*%
X143137000Y-90341000D03*
%TO.P,P1,B8*%
X143137000Y-91191000D03*
%TO.P,P1,B9,VBUS*%
%TO.N,+5V*%
X143137000Y-92041000D03*
%TO.P,P1,B12,GND*%
%TO.N,GND*%
X143137000Y-92891000D03*
D13*
%TO.P,P1,S1,SHIELD*%
X140127000Y-85591000D03*
X140127000Y-94241000D03*
D14*
X143507000Y-85591000D03*
X143507000Y-94241000D03*
%TD*%
D15*
%TO.P,J1,*%
%TO.N,*%
X171843700Y-85168740D03*
X171843700Y-95171260D03*
D16*
%TO.P,J1,5*%
%TO.N,GND*%
X159346900Y-85173820D03*
%TO.P,J1,1*%
X161848800Y-97668080D03*
%TO.P,J1,2*%
%TO.N,Net-(J1-Pad2)*%
X161846260Y-90170000D03*
%TO.P,J1,4*%
%TO.N,Net-(D1-A)*%
X159346900Y-95166180D03*
%TO.P,J1,3*%
%TO.N,GND*%
X161848800Y-82671920D03*
%TD*%
D17*
%TO.P,D1,1,K*%
%TO.N,Net-(D1-K)*%
X146050000Y-96774000D03*
D18*
%TO.P,D1,2,A*%
%TO.N,Net-(D1-A)*%
X153670000Y-96774000D03*
%TD*%
D19*
%TO.N,GND*%
X168656000Y-94234000D03*
%TO.N,Net-(U3-VCCD)*%
X145796000Y-94996000D03*
%TO.N,RX*%
X154686000Y-86868000D03*
%TO.N,Net-(P1-D-)*%
X163576000Y-88392000D03*
%TO.N,Net-(U3-VCCD)*%
X165100000Y-93218000D03*
%TD*%
D20*
%TO.N,Net-(D1-K)*%
X143524000Y-96774000D02*
X146050000Y-96774000D01*
X141609699Y-94859699D02*
X143524000Y-96774000D01*
X141609699Y-84958301D02*
X141609699Y-94859699D01*
X147623500Y-84074000D02*
X142494000Y-84074000D01*
X142494000Y-84074000D02*
X141609699Y-84958301D01*
%TO.N,Net-(P1-D-)*%
X155000000Y-82500000D02*
X154250000Y-81750000D01*
X162828000Y-87884000D02*
X159268684Y-87884000D01*
X163336000Y-88392000D02*
X162828000Y-87884000D01*
X159268684Y-87884000D02*
X155000000Y-83615316D01*
X155000000Y-83615316D02*
X155000000Y-82500000D01*
X154250000Y-81750000D02*
X150123255Y-81750000D01*
X150123255Y-81750000D02*
X149352000Y-82521255D01*
X149352000Y-82521255D02*
X149352000Y-84995500D01*
X149352000Y-84995500D02*
X144856500Y-89491000D01*
X144856500Y-89491000D02*
X144487000Y-89491000D01*
%TO.N,Net-(D1-A)*%
X157520000Y-97000000D02*
X159353820Y-95166180D01*
X154410920Y-97000000D02*
X157520000Y-97000000D01*
X153930920Y-96520000D02*
X154410920Y-97000000D01*
%TO.N,Net-(U3-VCCD)*%
X145796000Y-94996000D02*
X148496000Y-94996000D01*
X163823973Y-93218000D02*
X165100000Y-93218000D01*
X148496000Y-94996000D02*
X152000000Y-98500000D01*
X152000000Y-98500000D02*
X158541973Y-98500000D01*
X158541973Y-98500000D02*
X163823973Y-93218000D01*
%TO.N,Net-(D1-A)*%
X156210000Y-92290000D02*
X156210000Y-86106000D01*
X156210000Y-86106000D02*
X155448000Y-85344000D01*
X155448000Y-85344000D02*
X152330500Y-85344000D01*
X153670000Y-94830000D02*
X156210000Y-92290000D01*
X152330500Y-85344000D02*
X150612000Y-83625500D01*
X153670000Y-96774000D02*
X153670000Y-94830000D01*
D21*
%TO.N,Net-(D1-K)*%
X148072000Y-83625500D02*
X147623500Y-84074000D01*
%TO.N,Net-(D1-A)*%
X153670000Y-96774000D02*
X153924000Y-96520000D01*
%TO.N,Net-(P1-D-)*%
X163576000Y-88392000D02*
X163336000Y-88392000D01*
D20*
%TO.N,GND*%
X143137000Y-92891000D02*
X143137000Y-93871000D01*
D21*
X143137000Y-93871000D02*
X143507000Y-94241000D01*
X143137000Y-85961000D02*
X143507000Y-85591000D01*
D20*
X143137000Y-86941000D02*
X143137000Y-85961000D01*
X143137000Y-92891000D02*
X144487000Y-92891000D01*
%TO.N,RX*%
X154686000Y-86868000D02*
X153152000Y-88402000D01*
X153152000Y-88402000D02*
X153152000Y-91245500D01*
D21*
%TO.N,+5V*%
X143812000Y-88361405D02*
X144382405Y-87791000D01*
X144207405Y-91866000D02*
X143812000Y-91470595D01*
X144382405Y-87791000D02*
X144487000Y-87791000D01*
X148072000Y-91245500D02*
X147451500Y-91866000D01*
X143812000Y-91470595D02*
X143812000Y-88361405D01*
D20*
X143137000Y-92041000D02*
X144487000Y-92041000D01*
X147276500Y-92041000D02*
X144487000Y-92041000D01*
X148072000Y-91245500D02*
X147276500Y-92041000D01*
D21*
X144487000Y-87791000D02*
X144617500Y-87791000D01*
%TD*%
%TA.AperFunction,Conductor*%
%TO.N,GND*%
G36*
X148304363Y-95516185D02*
G01*
X148325005Y-95532819D01*
X151598614Y-98806427D01*
X151615250Y-98827071D01*
X151617857Y-98831128D01*
X151655390Y-98863650D01*
X151661869Y-98869683D01*
X151671396Y-98879210D01*
X151671403Y-98879216D01*
X151671407Y-98879220D01*
X151671410Y-98879222D01*
X151671411Y-98879223D01*
X151682198Y-98887298D01*
X151689091Y-98892853D01*
X151726622Y-98925374D01*
X151726624Y-98925375D01*
X151726625Y-98925375D01*
X151726627Y-98925377D01*
X151731010Y-98927379D01*
X151753807Y-98940905D01*
X151757669Y-98943796D01*
X151804212Y-98961155D01*
X151812360Y-98964530D01*
X151839673Y-98977004D01*
X151857540Y-98985164D01*
X151857541Y-98985164D01*
X151857543Y-98985165D01*
X151862312Y-98985850D01*
X151888002Y-98992407D01*
X151892517Y-98994091D01*
X151942049Y-98997633D01*
X151950843Y-98998579D01*
X151964201Y-99000500D01*
X151977692Y-99000500D01*
X151986538Y-99000815D01*
X152036073Y-99004359D01*
X152040785Y-99003334D01*
X152067143Y-99000500D01*
X158474830Y-99000500D01*
X158501188Y-99003334D01*
X158505900Y-99004359D01*
X158555434Y-99000815D01*
X158564281Y-99000500D01*
X158577772Y-99000500D01*
X158591129Y-98998579D01*
X158599924Y-98997633D01*
X158649456Y-98994091D01*
X158653965Y-98992408D01*
X158679658Y-98985850D01*
X158684430Y-98985165D01*
X158729610Y-98964530D01*
X158737774Y-98961149D01*
X158784304Y-98943796D01*
X158788162Y-98940907D01*
X158810968Y-98927375D01*
X158815346Y-98925377D01*
X158852880Y-98892853D01*
X158859751Y-98887316D01*
X158870566Y-98879221D01*
X158880128Y-98869658D01*
X158886582Y-98863650D01*
X158924116Y-98831128D01*
X158926724Y-98827068D01*
X158943354Y-98806431D01*
X159902210Y-97847575D01*
X159963529Y-97814093D01*
X160033220Y-97819077D01*
X160089154Y-97860949D01*
X160113539Y-97925979D01*
X160113809Y-97929579D01*
X160113809Y-97929584D01*
X160172162Y-98185241D01*
X160172165Y-98185253D01*
X160267974Y-98429368D01*
X160399095Y-98656476D01*
X160446901Y-98716424D01*
X161209770Y-97953555D01*
X161269724Y-98067787D01*
X161382207Y-98194755D01*
X161521807Y-98291113D01*
X161563505Y-98306927D01*
X160799861Y-99070570D01*
X160824027Y-99087046D01*
X160868329Y-99141075D01*
X160876388Y-99210478D01*
X160845645Y-99273221D01*
X160785861Y-99309383D01*
X160754175Y-99313500D01*
X148201007Y-99313500D01*
X148155404Y-99304810D01*
X147113755Y-98892853D01*
X143626791Y-97513809D01*
X143571690Y-97470850D01*
X143548561Y-97404919D01*
X143564749Y-97336951D01*
X143615114Y-97288523D01*
X143672395Y-97274500D01*
X144875500Y-97274500D01*
X144942539Y-97294185D01*
X144988294Y-97346989D01*
X144999500Y-97398500D01*
X144999500Y-97598678D01*
X145014032Y-97671735D01*
X145014033Y-97671739D01*
X145014034Y-97671740D01*
X145069399Y-97754601D01*
X145130065Y-97795136D01*
X145152260Y-97809966D01*
X145152264Y-97809967D01*
X145225321Y-97824499D01*
X145225324Y-97824500D01*
X145225326Y-97824500D01*
X146874676Y-97824500D01*
X146874677Y-97824499D01*
X146947740Y-97809966D01*
X147030601Y-97754601D01*
X147085966Y-97671740D01*
X147100500Y-97598674D01*
X147100500Y-95949326D01*
X147100500Y-95949323D01*
X147100499Y-95949321D01*
X147085967Y-95876264D01*
X147085966Y-95876260D01*
X147066457Y-95847062D01*
X147030601Y-95793399D01*
X146947740Y-95738034D01*
X146947739Y-95738033D01*
X146947738Y-95738033D01*
X146940563Y-95735061D01*
X146886160Y-95691220D01*
X146864095Y-95624926D01*
X146881374Y-95557226D01*
X146932512Y-95509616D01*
X146988016Y-95496500D01*
X148237324Y-95496500D01*
X148304363Y-95516185D01*
G37*
%TD.AperFunction*%
%TA.AperFunction,Conductor*%
G36*
X173424539Y-81046185D02*
G01*
X173470294Y-81098989D01*
X173481500Y-81150500D01*
X173481500Y-84576544D01*
X173461815Y-84643583D01*
X173409011Y-84689338D01*
X173339853Y-84699282D01*
X173276297Y-84670257D01*
X173243944Y-84626354D01*
X173167590Y-84452286D01*
X173031612Y-84244155D01*
X172983083Y-84191439D01*
X172863226Y-84061239D01*
X172863221Y-84061235D01*
X172863219Y-84061233D01*
X172667041Y-83908541D01*
X172667035Y-83908537D01*
X172448381Y-83790207D01*
X172448373Y-83790204D01*
X172213237Y-83709481D01*
X172029314Y-83678790D01*
X171968008Y-83668560D01*
X171719392Y-83668560D01*
X171670346Y-83676744D01*
X171474162Y-83709481D01*
X171239026Y-83790204D01*
X171239018Y-83790207D01*
X171020364Y-83908537D01*
X171020358Y-83908541D01*
X170824180Y-84061233D01*
X170824177Y-84061236D01*
X170824174Y-84061238D01*
X170824174Y-84061239D01*
X170809566Y-84077108D01*
X170655787Y-84244155D01*
X170519809Y-84452286D01*
X170419941Y-84679962D01*
X170358909Y-84920975D01*
X170338379Y-85168734D01*
X170338379Y-85168745D01*
X170358909Y-85416504D01*
X170419941Y-85657517D01*
X170519809Y-85885193D01*
X170655787Y-86093324D01*
X170655790Y-86093327D01*
X170824174Y-86276241D01*
X170824177Y-86276243D01*
X170824180Y-86276246D01*
X171020358Y-86428938D01*
X171020364Y-86428942D01*
X171020367Y-86428944D01*
X171239019Y-86547273D01*
X171323601Y-86576310D01*
X171474162Y-86627998D01*
X171474164Y-86627998D01*
X171474166Y-86627999D01*
X171719392Y-86668920D01*
X171719393Y-86668920D01*
X171968007Y-86668920D01*
X171968008Y-86668920D01*
X172213234Y-86627999D01*
X172448381Y-86547273D01*
X172667033Y-86428944D01*
X172670928Y-86425913D01*
X172790312Y-86332992D01*
X172863226Y-86276241D01*
X173031610Y-86093327D01*
X173167590Y-85885194D01*
X173243944Y-85711124D01*
X173288900Y-85657639D01*
X173355636Y-85636949D01*
X173422964Y-85655624D01*
X173469507Y-85707734D01*
X173481500Y-85760935D01*
X173481500Y-94579064D01*
X173461815Y-94646103D01*
X173409011Y-94691858D01*
X173339853Y-94701802D01*
X173276297Y-94672777D01*
X173243944Y-94628874D01*
X173167590Y-94454806D01*
X173031612Y-94246675D01*
X173012464Y-94225875D01*
X172863226Y-94063759D01*
X172863221Y-94063755D01*
X172863219Y-94063753D01*
X172667041Y-93911061D01*
X172667035Y-93911057D01*
X172448381Y-93792727D01*
X172448373Y-93792724D01*
X172213237Y-93712001D01*
X172029314Y-93681310D01*
X171968008Y-93671080D01*
X171719392Y-93671080D01*
X171670346Y-93679264D01*
X171474162Y-93712001D01*
X171239026Y-93792724D01*
X171239018Y-93792727D01*
X171020364Y-93911057D01*
X171020358Y-93911061D01*
X170824180Y-94063753D01*
X170824177Y-94063756D01*
X170655787Y-94246675D01*
X170519809Y-94454806D01*
X170419941Y-94682482D01*
X170358909Y-94923495D01*
X170338379Y-95171254D01*
X170338379Y-95171265D01*
X170358909Y-95419024D01*
X170419941Y-95660037D01*
X170519809Y-95887713D01*
X170655787Y-96095844D01*
X170655790Y-96095847D01*
X170824174Y-96278761D01*
X170824177Y-96278763D01*
X170824180Y-96278766D01*
X171020358Y-96431458D01*
X171020364Y-96431462D01*
X171020367Y-96431464D01*
X171239019Y-96549793D01*
X171361122Y-96591711D01*
X171474162Y-96630518D01*
X171474164Y-96630518D01*
X171474166Y-96630519D01*
X171719392Y-96671440D01*
X171719393Y-96671440D01*
X171968007Y-96671440D01*
X171968008Y-96671440D01*
X172213234Y-96630519D01*
X172448381Y-96549793D01*
X172667033Y-96431464D01*
X172863226Y-96278761D01*
X173031610Y-96095847D01*
X173167590Y-95887714D01*
X173243944Y-95713644D01*
X173288900Y-95660159D01*
X173355636Y-95639469D01*
X173422964Y-95658144D01*
X173469507Y-95710254D01*
X173481500Y-95763455D01*
X173481500Y-99189500D01*
X173461815Y-99256539D01*
X173409011Y-99302294D01*
X173357500Y-99313500D01*
X162943424Y-99313500D01*
X162876385Y-99293815D01*
X162830630Y-99241011D01*
X162820686Y-99171853D01*
X162849711Y-99108297D01*
X162873572Y-99087046D01*
X162897737Y-99070570D01*
X162134094Y-98306927D01*
X162175793Y-98291113D01*
X162315393Y-98194755D01*
X162427876Y-98067787D01*
X162487828Y-97953556D01*
X163250696Y-98716424D01*
X163250697Y-98716423D01*
X163298500Y-98656482D01*
X163298507Y-98656471D01*
X163429625Y-98429368D01*
X163525434Y-98185253D01*
X163525437Y-98185241D01*
X163583789Y-97929584D01*
X163603386Y-97668084D01*
X163603386Y-97668075D01*
X163583789Y-97406575D01*
X163525437Y-97150918D01*
X163525434Y-97150906D01*
X163429625Y-96906791D01*
X163298504Y-96679683D01*
X163250697Y-96619734D01*
X162487828Y-97382603D01*
X162427876Y-97268373D01*
X162315393Y-97141405D01*
X162175793Y-97045047D01*
X162134094Y-97029232D01*
X162897737Y-96265588D01*
X162726093Y-96148564D01*
X162726085Y-96148559D01*
X162489824Y-96034783D01*
X162489826Y-96034783D01*
X162239240Y-95957487D01*
X162239234Y-95957485D01*
X162093728Y-95935553D01*
X162030371Y-95906096D01*
X161992998Y-95847062D01*
X161993474Y-95777194D01*
X162024528Y-95725258D01*
X163994968Y-93754819D01*
X164056291Y-93721334D01*
X164082649Y-93718500D01*
X164636956Y-93718500D01*
X164703995Y-93738185D01*
X164719179Y-93749681D01*
X164727760Y-93757283D01*
X164727762Y-93757284D01*
X164727766Y-93757287D01*
X164867634Y-93830696D01*
X165021014Y-93868500D01*
X165021015Y-93868500D01*
X165178985Y-93868500D01*
X165332365Y-93830696D01*
X165351845Y-93820472D01*
X165472240Y-93757283D01*
X165590483Y-93652530D01*
X165680220Y-93522523D01*
X165736237Y-93374818D01*
X165755278Y-93218000D01*
X165751317Y-93185373D01*
X165736237Y-93061181D01*
X165714992Y-93005164D01*
X165680220Y-92913477D01*
X165590483Y-92783470D01*
X165472240Y-92678717D01*
X165472238Y-92678716D01*
X165472237Y-92678715D01*
X165332365Y-92605303D01*
X165178986Y-92567500D01*
X165178985Y-92567500D01*
X165021015Y-92567500D01*
X165021014Y-92567500D01*
X164867634Y-92605303D01*
X164727766Y-92678712D01*
X164727762Y-92678715D01*
X164727760Y-92678717D01*
X164719181Y-92686316D01*
X164655950Y-92716037D01*
X164636956Y-92717500D01*
X163891116Y-92717500D01*
X163864758Y-92714666D01*
X163860047Y-92713641D01*
X163860043Y-92713641D01*
X163810512Y-92717184D01*
X163801665Y-92717500D01*
X163788173Y-92717500D01*
X163782036Y-92718382D01*
X163774813Y-92719420D01*
X163766027Y-92720365D01*
X163716489Y-92723909D01*
X163716486Y-92723910D01*
X163711959Y-92725598D01*
X163686300Y-92732146D01*
X163681523Y-92732833D01*
X163681516Y-92732835D01*
X163636338Y-92753466D01*
X163628164Y-92756851D01*
X163581648Y-92774200D01*
X163581637Y-92774206D01*
X163577772Y-92777100D01*
X163554993Y-92790615D01*
X163550609Y-92792617D01*
X163550598Y-92792624D01*
X163513081Y-92825132D01*
X163506199Y-92830678D01*
X163495376Y-92838780D01*
X163485827Y-92848329D01*
X163479357Y-92854353D01*
X163441834Y-92886867D01*
X163441827Y-92886876D01*
X163439216Y-92890938D01*
X163422589Y-92911568D01*
X161062884Y-95271273D01*
X161001561Y-95304758D01*
X160931869Y-95299774D01*
X160875936Y-95257902D01*
X160851519Y-95192438D01*
X160851627Y-95173350D01*
X160852221Y-95166182D01*
X160852221Y-95166174D01*
X160831690Y-94918415D01*
X160831690Y-94918412D01*
X160770659Y-94677403D01*
X160670790Y-94449726D01*
X160667861Y-94445243D01*
X160534812Y-94241595D01*
X160508341Y-94212840D01*
X160366426Y-94058679D01*
X160366421Y-94058675D01*
X160366419Y-94058673D01*
X160170241Y-93905981D01*
X160170235Y-93905977D01*
X159951581Y-93787647D01*
X159951573Y-93787644D01*
X159716437Y-93706921D01*
X159532514Y-93676230D01*
X159471208Y-93666000D01*
X159222592Y-93666000D01*
X159173546Y-93674184D01*
X158977362Y-93706921D01*
X158742226Y-93787644D01*
X158742218Y-93787647D01*
X158523564Y-93905977D01*
X158523558Y-93905981D01*
X158327380Y-94058673D01*
X158327377Y-94058676D01*
X158158987Y-94241595D01*
X158023009Y-94449726D01*
X157923141Y-94677402D01*
X157862109Y-94918415D01*
X157841579Y-95166174D01*
X157841579Y-95166185D01*
X157862109Y-95413944D01*
X157923140Y-95654955D01*
X157960482Y-95740086D01*
X157969385Y-95809386D01*
X157939408Y-95872498D01*
X157934607Y-95877577D01*
X157349005Y-96463181D01*
X157287682Y-96496666D01*
X157261324Y-96499500D01*
X154776466Y-96499500D01*
X154709427Y-96479815D01*
X154663672Y-96427011D01*
X154657805Y-96411495D01*
X154645232Y-96370046D01*
X154547685Y-96187550D01*
X154472427Y-96095847D01*
X154416410Y-96027589D01*
X154256451Y-95896315D01*
X154236045Y-95885408D01*
X154186202Y-95836445D01*
X154170500Y-95776051D01*
X154170500Y-95088675D01*
X154190185Y-95021636D01*
X154206814Y-95000999D01*
X156516431Y-92691381D01*
X156537068Y-92674751D01*
X156541128Y-92672143D01*
X156573640Y-92634620D01*
X156579674Y-92628139D01*
X156581770Y-92626043D01*
X156589220Y-92618594D01*
X156597314Y-92607780D01*
X156602852Y-92600906D01*
X156635377Y-92563373D01*
X156637377Y-92558992D01*
X156650911Y-92536183D01*
X156653795Y-92532331D01*
X156671146Y-92485807D01*
X156674533Y-92477633D01*
X156695165Y-92432457D01*
X156695851Y-92427683D01*
X156702407Y-92401996D01*
X156704091Y-92397483D01*
X156704091Y-92397478D01*
X156704092Y-92397477D01*
X156705650Y-92375678D01*
X156707633Y-92347946D01*
X156708574Y-92339184D01*
X156710500Y-92325799D01*
X156710500Y-92312297D01*
X156710816Y-92303450D01*
X156714358Y-92253927D01*
X156714357Y-92253923D01*
X156713334Y-92249219D01*
X156710500Y-92222862D01*
X156710500Y-90170005D01*
X160340939Y-90170005D01*
X160361469Y-90417764D01*
X160422501Y-90658777D01*
X160522369Y-90886453D01*
X160658347Y-91094584D01*
X160658350Y-91094587D01*
X160826734Y-91277501D01*
X160826737Y-91277503D01*
X160826740Y-91277506D01*
X161022918Y-91430198D01*
X161022924Y-91430202D01*
X161022927Y-91430204D01*
X161241579Y-91548533D01*
X161313260Y-91573141D01*
X161476722Y-91629258D01*
X161476724Y-91629258D01*
X161476726Y-91629259D01*
X161721952Y-91670180D01*
X161721953Y-91670180D01*
X161970567Y-91670180D01*
X161970568Y-91670180D01*
X162215794Y-91629259D01*
X162450941Y-91548533D01*
X162669593Y-91430204D01*
X162865786Y-91277501D01*
X163034170Y-91094587D01*
X163170150Y-90886454D01*
X163270019Y-90658777D01*
X163331050Y-90417768D01*
X163350401Y-90184239D01*
X163351581Y-90170005D01*
X163351581Y-90169994D01*
X163336789Y-89991485D01*
X163331050Y-89922232D01*
X163270019Y-89681223D01*
X163170150Y-89453546D01*
X163092203Y-89334239D01*
X163034172Y-89245415D01*
X162981463Y-89188158D01*
X162865786Y-89062499D01*
X162865781Y-89062495D01*
X162865779Y-89062493D01*
X162669601Y-88909801D01*
X162669595Y-88909797D01*
X162450941Y-88791467D01*
X162450933Y-88791464D01*
X162215797Y-88710741D01*
X162031874Y-88680050D01*
X161970568Y-88669820D01*
X161721952Y-88669820D01*
X161672906Y-88678004D01*
X161476722Y-88710741D01*
X161241586Y-88791464D01*
X161241578Y-88791467D01*
X161022924Y-88909797D01*
X161022918Y-88909801D01*
X160826740Y-89062493D01*
X160826737Y-89062496D01*
X160658347Y-89245415D01*
X160522369Y-89453546D01*
X160422501Y-89681222D01*
X160361469Y-89922235D01*
X160340939Y-90169994D01*
X160340939Y-90170005D01*
X156710500Y-90170005D01*
X156710500Y-86332992D01*
X156730185Y-86265953D01*
X156782989Y-86220198D01*
X156852147Y-86210254D01*
X156915703Y-86239279D01*
X156922181Y-86245311D01*
X158867298Y-88190428D01*
X158883930Y-88211066D01*
X158886538Y-88215125D01*
X158886541Y-88215128D01*
X158924084Y-88247658D01*
X158930547Y-88253677D01*
X158940091Y-88263221D01*
X158940097Y-88263226D01*
X158940100Y-88263228D01*
X158950891Y-88271306D01*
X158957784Y-88276860D01*
X158974662Y-88291485D01*
X158995311Y-88309377D01*
X158999694Y-88311379D01*
X159022491Y-88324905D01*
X159026353Y-88327796D01*
X159072896Y-88345155D01*
X159081044Y-88348530D01*
X159108357Y-88361004D01*
X159126224Y-88369164D01*
X159126225Y-88369164D01*
X159126227Y-88369165D01*
X159130996Y-88369850D01*
X159156686Y-88376407D01*
X159161201Y-88378091D01*
X159210733Y-88381633D01*
X159219527Y-88382579D01*
X159232885Y-88384500D01*
X159246376Y-88384500D01*
X159255222Y-88384815D01*
X159304757Y-88388359D01*
X159309469Y-88387334D01*
X159335827Y-88384500D01*
X162569324Y-88384500D01*
X162636363Y-88404185D01*
X162657005Y-88420819D01*
X163007392Y-88771207D01*
X163007398Y-88771212D01*
X163007406Y-88771220D01*
X163093669Y-88835795D01*
X163100773Y-88841113D01*
X163100449Y-88841544D01*
X163110177Y-88848376D01*
X163203762Y-88931285D01*
X163343634Y-89004696D01*
X163497014Y-89042500D01*
X163497015Y-89042500D01*
X163654985Y-89042500D01*
X163808365Y-89004696D01*
X163835384Y-88990515D01*
X163948240Y-88931283D01*
X164066483Y-88826530D01*
X164156220Y-88696523D01*
X164212237Y-88548818D01*
X164231278Y-88392000D01*
X164230712Y-88387334D01*
X164212237Y-88235181D01*
X164183597Y-88159664D01*
X164156220Y-88087477D01*
X164066483Y-87957470D01*
X163948240Y-87852717D01*
X163948238Y-87852716D01*
X163948237Y-87852715D01*
X163808365Y-87779303D01*
X163654986Y-87741500D01*
X163654985Y-87741500D01*
X163497015Y-87741500D01*
X163497012Y-87741500D01*
X163481721Y-87745269D01*
X163411919Y-87742199D01*
X163364367Y-87712553D01*
X163229385Y-87577571D01*
X163212750Y-87556928D01*
X163210145Y-87552874D01*
X163210143Y-87552872D01*
X163172614Y-87520353D01*
X163166147Y-87514333D01*
X163156593Y-87504779D01*
X163145785Y-87496688D01*
X163138904Y-87491144D01*
X163101373Y-87458623D01*
X163101372Y-87458622D01*
X163101367Y-87458619D01*
X163096983Y-87456617D01*
X163074194Y-87443096D01*
X163070331Y-87440204D01*
X163070329Y-87440203D01*
X163023790Y-87422845D01*
X163015622Y-87419461D01*
X162970457Y-87398835D01*
X162970455Y-87398834D01*
X162965682Y-87398148D01*
X162940000Y-87391593D01*
X162935486Y-87389909D01*
X162885946Y-87386365D01*
X162877159Y-87385420D01*
X162863799Y-87383500D01*
X162863797Y-87383500D01*
X162850308Y-87383500D01*
X162841461Y-87383184D01*
X162791929Y-87379641D01*
X162791925Y-87379641D01*
X162787215Y-87380666D01*
X162760857Y-87383500D01*
X159527360Y-87383500D01*
X159460321Y-87363815D01*
X159439679Y-87347181D01*
X159227679Y-87135181D01*
X159194194Y-87073858D01*
X159199178Y-87004166D01*
X159241050Y-86948233D01*
X159306514Y-86923816D01*
X159315360Y-86923500D01*
X159478019Y-86923500D01*
X159478025Y-86923499D01*
X159737334Y-86884413D01*
X159737340Y-86884412D01*
X159987925Y-86807116D01*
X160224185Y-86693340D01*
X160224186Y-86693339D01*
X160395837Y-86576310D01*
X159632194Y-85812667D01*
X159673893Y-85796853D01*
X159813493Y-85700495D01*
X159925976Y-85573527D01*
X159985928Y-85459296D01*
X160748796Y-86222164D01*
X160748797Y-86222163D01*
X160796600Y-86162222D01*
X160796607Y-86162211D01*
X160927725Y-85935108D01*
X161023534Y-85690993D01*
X161023537Y-85690981D01*
X161081889Y-85435324D01*
X161101486Y-85173824D01*
X161101486Y-85173815D01*
X161081889Y-84912315D01*
X161023537Y-84656658D01*
X161023534Y-84656646D01*
X160926032Y-84408216D01*
X160928170Y-84407376D01*
X160918266Y-84347732D01*
X160945901Y-84283560D01*
X161003843Y-84244515D01*
X161073697Y-84242995D01*
X161095161Y-84250984D01*
X161207777Y-84305217D01*
X161458359Y-84382512D01*
X161458365Y-84382513D01*
X161717674Y-84421599D01*
X161717681Y-84421600D01*
X161979919Y-84421600D01*
X161979925Y-84421599D01*
X162239234Y-84382513D01*
X162239240Y-84382512D01*
X162489825Y-84305216D01*
X162726085Y-84191440D01*
X162726086Y-84191439D01*
X162897737Y-84074410D01*
X162134094Y-83310767D01*
X162175793Y-83294953D01*
X162315393Y-83198595D01*
X162427876Y-83071627D01*
X162487828Y-82957396D01*
X163250696Y-83720264D01*
X163250697Y-83720263D01*
X163298500Y-83660322D01*
X163298507Y-83660311D01*
X163429625Y-83433208D01*
X163525434Y-83189093D01*
X163525437Y-83189081D01*
X163583789Y-82933424D01*
X163603386Y-82671924D01*
X163603386Y-82671915D01*
X163583789Y-82410415D01*
X163525437Y-82154758D01*
X163525434Y-82154746D01*
X163429625Y-81910631D01*
X163298504Y-81683523D01*
X163250697Y-81623574D01*
X162487828Y-82386443D01*
X162427876Y-82272213D01*
X162315393Y-82145245D01*
X162175793Y-82048887D01*
X162134093Y-82033072D01*
X162897737Y-81269427D01*
X162873574Y-81252954D01*
X162829272Y-81198925D01*
X162821212Y-81129522D01*
X162851955Y-81066779D01*
X162911738Y-81030617D01*
X162943425Y-81026500D01*
X173357500Y-81026500D01*
X173424539Y-81046185D01*
G37*
%TD.AperFunction*%
%TA.AperFunction,Conductor*%
G36*
X150034963Y-84908216D02*
G01*
X150208046Y-85000732D01*
X150406066Y-85060800D01*
X150406065Y-85060800D01*
X150424529Y-85062618D01*
X150612000Y-85081083D01*
X150817934Y-85060800D01*
X151015954Y-85000732D01*
X151106540Y-84952311D01*
X151174940Y-84938069D01*
X151240184Y-84963067D01*
X151252674Y-84973988D01*
X151929114Y-85650428D01*
X151945746Y-85671066D01*
X151948354Y-85675125D01*
X151948357Y-85675128D01*
X151985900Y-85707658D01*
X151992363Y-85713677D01*
X152001907Y-85723221D01*
X152001913Y-85723226D01*
X152001916Y-85723228D01*
X152012707Y-85731306D01*
X152019600Y-85736860D01*
X152057127Y-85769377D01*
X152061510Y-85771379D01*
X152084307Y-85784905D01*
X152088169Y-85787796D01*
X152134712Y-85805155D01*
X152142860Y-85808530D01*
X152170173Y-85821004D01*
X152188040Y-85829164D01*
X152188041Y-85829164D01*
X152188043Y-85829165D01*
X152192812Y-85829850D01*
X152218502Y-85836407D01*
X152223017Y-85838091D01*
X152272549Y-85841633D01*
X152281343Y-85842579D01*
X152294701Y-85844500D01*
X152308192Y-85844500D01*
X152317038Y-85844815D01*
X152366573Y-85848359D01*
X152371285Y-85847334D01*
X152397643Y-85844500D01*
X155189324Y-85844500D01*
X155256363Y-85864185D01*
X155277005Y-85880819D01*
X155673181Y-86276995D01*
X155706666Y-86338318D01*
X155709500Y-86364676D01*
X155709500Y-92031323D01*
X155689815Y-92098362D01*
X155673181Y-92119004D01*
X153363568Y-94428616D01*
X153342938Y-94445243D01*
X153338876Y-94447854D01*
X153338867Y-94447861D01*
X153306353Y-94485384D01*
X153300329Y-94491854D01*
X153290780Y-94501403D01*
X153282678Y-94512226D01*
X153277132Y-94519108D01*
X153244624Y-94556625D01*
X153244617Y-94556636D01*
X153242615Y-94561020D01*
X153229100Y-94583799D01*
X153226206Y-94587664D01*
X153226200Y-94587675D01*
X153208851Y-94634191D01*
X153205466Y-94642365D01*
X153184835Y-94687543D01*
X153184833Y-94687550D01*
X153184146Y-94692327D01*
X153177598Y-94717986D01*
X153175910Y-94722513D01*
X153175909Y-94722516D01*
X153172365Y-94772054D01*
X153171420Y-94780845D01*
X153169500Y-94794200D01*
X153169500Y-94807690D01*
X153169184Y-94816537D01*
X153165641Y-94866069D01*
X153165641Y-94866073D01*
X153166666Y-94870785D01*
X153169500Y-94897143D01*
X153169500Y-95776051D01*
X153149815Y-95843090D01*
X153103955Y-95885408D01*
X153083548Y-95896315D01*
X152923589Y-96027589D01*
X152792317Y-96187547D01*
X152792315Y-96187550D01*
X152756895Y-96253815D01*
X152694769Y-96370043D01*
X152634699Y-96568067D01*
X152614417Y-96774000D01*
X152634699Y-96979932D01*
X152664734Y-97078944D01*
X152694768Y-97177954D01*
X152792315Y-97360450D01*
X152816536Y-97389963D01*
X152923589Y-97520410D01*
X153000182Y-97583267D01*
X153083550Y-97651685D01*
X153266046Y-97749232D01*
X153291126Y-97756840D01*
X153349564Y-97795136D01*
X153378020Y-97858949D01*
X153367460Y-97928016D01*
X153321236Y-97980409D01*
X153255130Y-97999500D01*
X152258675Y-97999500D01*
X152191636Y-97979815D01*
X152170994Y-97963181D01*
X148897385Y-94689571D01*
X148880750Y-94668928D01*
X148878145Y-94664874D01*
X148878143Y-94664872D01*
X148840614Y-94632353D01*
X148834147Y-94626333D01*
X148824593Y-94616779D01*
X148813785Y-94608688D01*
X148806904Y-94603144D01*
X148769373Y-94570623D01*
X148769372Y-94570622D01*
X148769367Y-94570619D01*
X148764983Y-94568617D01*
X148742194Y-94555096D01*
X148738331Y-94552204D01*
X148738329Y-94552203D01*
X148691790Y-94534845D01*
X148683622Y-94531461D01*
X148638457Y-94510835D01*
X148638455Y-94510834D01*
X148633682Y-94510148D01*
X148608000Y-94503593D01*
X148603486Y-94501909D01*
X148553946Y-94498365D01*
X148545159Y-94497420D01*
X148531799Y-94495500D01*
X148531797Y-94495500D01*
X148518308Y-94495500D01*
X148509461Y-94495184D01*
X148459929Y-94491641D01*
X148459925Y-94491641D01*
X148455215Y-94492666D01*
X148428857Y-94495500D01*
X146259044Y-94495500D01*
X146192005Y-94475815D01*
X146176820Y-94464318D01*
X146168240Y-94456717D01*
X146168238Y-94456716D01*
X146168237Y-94456715D01*
X146168233Y-94456712D01*
X146028365Y-94383303D01*
X145874986Y-94345500D01*
X145874985Y-94345500D01*
X145717015Y-94345500D01*
X145717014Y-94345500D01*
X145563634Y-94383303D01*
X145423762Y-94456715D01*
X145402203Y-94475815D01*
X145363449Y-94510148D01*
X145358798Y-94514268D01*
X145295564Y-94543989D01*
X145226301Y-94534805D01*
X145178515Y-94497353D01*
X145173597Y-94491000D01*
X144423111Y-94491000D01*
X144462610Y-94466543D01*
X144530201Y-94377038D01*
X144560895Y-94269160D01*
X144550546Y-94157479D01*
X144500552Y-94057078D01*
X144428069Y-93991000D01*
X145177471Y-93991000D01*
X145114314Y-93820472D01*
X145114312Y-93820468D01*
X145012110Y-93656500D01*
X145012108Y-93656498D01*
X144998602Y-93642290D01*
X144973616Y-93641973D01*
X144968027Y-93645026D01*
X144898335Y-93640042D01*
X144853988Y-93611541D01*
X144221127Y-92978680D01*
X144198176Y-92936649D01*
X144287000Y-92936649D01*
X144326613Y-93018905D01*
X144397992Y-93075827D01*
X144464468Y-93091000D01*
X144509532Y-93091000D01*
X144576008Y-93075827D01*
X144647387Y-93018905D01*
X144687000Y-92936649D01*
X144687000Y-92845351D01*
X144647387Y-92763095D01*
X144576008Y-92706173D01*
X144509532Y-92691000D01*
X144464468Y-92691000D01*
X144397992Y-92706173D01*
X144326613Y-92763095D01*
X144287000Y-92845351D01*
X144287000Y-92936649D01*
X144198176Y-92936649D01*
X144187642Y-92917357D01*
X144192626Y-92847665D01*
X144221127Y-92803318D01*
X144347232Y-92677213D01*
X144408555Y-92643728D01*
X144451095Y-92641955D01*
X144487000Y-92646682D01*
X144522900Y-92641955D01*
X144591933Y-92652720D01*
X144626766Y-92677213D01*
X145238651Y-93289099D01*
X145238652Y-93289099D01*
X145267790Y-93238631D01*
X145323003Y-93068702D01*
X145323004Y-93068700D01*
X145341681Y-92891000D01*
X145323004Y-92713299D01*
X145323002Y-92713293D01*
X145319923Y-92703814D01*
X145317930Y-92633973D01*
X145354012Y-92574141D01*
X145416714Y-92543315D01*
X145437855Y-92541500D01*
X147209357Y-92541500D01*
X147235715Y-92544334D01*
X147240427Y-92545359D01*
X147289961Y-92541815D01*
X147298808Y-92541500D01*
X147312299Y-92541500D01*
X147325656Y-92539579D01*
X147334451Y-92538633D01*
X147383983Y-92535091D01*
X147388492Y-92533408D01*
X147414185Y-92526850D01*
X147418957Y-92526165D01*
X147418959Y-92526163D01*
X147427740Y-92524902D01*
X147428009Y-92526774D01*
X147486751Y-92526777D01*
X147510260Y-92536393D01*
X147668046Y-92620732D01*
X147866066Y-92680800D01*
X147866065Y-92680800D01*
X147877813Y-92681957D01*
X148072000Y-92701083D01*
X148277934Y-92680800D01*
X148475954Y-92620732D01*
X148658450Y-92523185D01*
X148818410Y-92391910D01*
X148949685Y-92231950D01*
X149047232Y-92049454D01*
X149094891Y-91892339D01*
X149133187Y-91833903D01*
X149196999Y-91805446D01*
X149266066Y-91816005D01*
X149318460Y-91862229D01*
X149333326Y-91896242D01*
X149385731Y-92091819D01*
X149385734Y-92091826D01*
X149481865Y-92297982D01*
X149612342Y-92484320D01*
X149773179Y-92645157D01*
X149959517Y-92775634D01*
X150165673Y-92871765D01*
X150165682Y-92871769D01*
X150361999Y-92924372D01*
X150362000Y-92924371D01*
X150362000Y-91561186D01*
X150373955Y-91573141D01*
X150486852Y-91630665D01*
X150580519Y-91645500D01*
X150643481Y-91645500D01*
X150737148Y-91630665D01*
X150850045Y-91573141D01*
X150862000Y-91561186D01*
X150862000Y-92924372D01*
X151058317Y-92871769D01*
X151058326Y-92871765D01*
X151264482Y-92775634D01*
X151450820Y-92645157D01*
X151611657Y-92484320D01*
X151742134Y-92297982D01*
X151838265Y-92091826D01*
X151838269Y-92091817D01*
X151890673Y-91896243D01*
X151927038Y-91836582D01*
X151989885Y-91806053D01*
X152059260Y-91814348D01*
X152113138Y-91858833D01*
X152129108Y-91892340D01*
X152176768Y-92049454D01*
X152274315Y-92231950D01*
X152288487Y-92249219D01*
X152405589Y-92391910D01*
X152497808Y-92467591D01*
X152565550Y-92523185D01*
X152748046Y-92620732D01*
X152946066Y-92680800D01*
X152946065Y-92680800D01*
X152957813Y-92681957D01*
X153152000Y-92701083D01*
X153357934Y-92680800D01*
X153555954Y-92620732D01*
X153738450Y-92523185D01*
X153898410Y-92391910D01*
X154029685Y-92231950D01*
X154127232Y-92049454D01*
X154187300Y-91851434D01*
X154202500Y-91697108D01*
X154202500Y-90793892D01*
X154187300Y-90639566D01*
X154127232Y-90441546D01*
X154029685Y-90259050D01*
X153956599Y-90169994D01*
X153898410Y-90099089D01*
X153738451Y-89967815D01*
X153718045Y-89956908D01*
X153668202Y-89907945D01*
X153652500Y-89847551D01*
X153652500Y-88660676D01*
X153672185Y-88593637D01*
X153688819Y-88572995D01*
X154197960Y-88063854D01*
X154711783Y-87550030D01*
X154769787Y-87517316D01*
X154918365Y-87480696D01*
X155058240Y-87407283D01*
X155176483Y-87302530D01*
X155266220Y-87172523D01*
X155322237Y-87024818D01*
X155341278Y-86868000D01*
X155339496Y-86853319D01*
X155322237Y-86711181D01*
X155290690Y-86627999D01*
X155266220Y-86563477D01*
X155176483Y-86433470D01*
X155058240Y-86328717D01*
X155058238Y-86328716D01*
X155058237Y-86328715D01*
X154918365Y-86255303D01*
X154764986Y-86217500D01*
X154764985Y-86217500D01*
X154607015Y-86217500D01*
X154607014Y-86217500D01*
X154453634Y-86255303D01*
X154313762Y-86328715D01*
X154195516Y-86433471D01*
X154105781Y-86563475D01*
X154105780Y-86563476D01*
X154049763Y-86711178D01*
X154049762Y-86711182D01*
X154043139Y-86765728D01*
X154015516Y-86829905D01*
X154007724Y-86838460D01*
X152845568Y-88000616D01*
X152824938Y-88017243D01*
X152820876Y-88019854D01*
X152820867Y-88019861D01*
X152788353Y-88057384D01*
X152782329Y-88063854D01*
X152772780Y-88073403D01*
X152764678Y-88084226D01*
X152759132Y-88091108D01*
X152726624Y-88128625D01*
X152726617Y-88128636D01*
X152724615Y-88133020D01*
X152711100Y-88155799D01*
X152708206Y-88159664D01*
X152708200Y-88159675D01*
X152690851Y-88206191D01*
X152687466Y-88214365D01*
X152666835Y-88259543D01*
X152666833Y-88259550D01*
X152666146Y-88264327D01*
X152659598Y-88289986D01*
X152657910Y-88294513D01*
X152657909Y-88294516D01*
X152654365Y-88344054D01*
X152653420Y-88352845D01*
X152651500Y-88366200D01*
X152651500Y-88379690D01*
X152651184Y-88388537D01*
X152647641Y-88438069D01*
X152647641Y-88438073D01*
X152648666Y-88442785D01*
X152651500Y-88469143D01*
X152651500Y-89847551D01*
X152631815Y-89914590D01*
X152585955Y-89956908D01*
X152565548Y-89967815D01*
X152405589Y-90099089D01*
X152274317Y-90259047D01*
X152176769Y-90441543D01*
X152129109Y-90598658D01*
X152090811Y-90657097D01*
X152026999Y-90685553D01*
X151957932Y-90674993D01*
X151905538Y-90628769D01*
X151890673Y-90594756D01*
X151838269Y-90399182D01*
X151838265Y-90399173D01*
X151742134Y-90193017D01*
X151611657Y-90006679D01*
X151450820Y-89845842D01*
X151264482Y-89715365D01*
X151058328Y-89619234D01*
X150862000Y-89566627D01*
X150862000Y-90929814D01*
X150850045Y-90917859D01*
X150737148Y-90860335D01*
X150643481Y-90845500D01*
X150580519Y-90845500D01*
X150486852Y-90860335D01*
X150373955Y-90917859D01*
X150362000Y-90929814D01*
X150362000Y-89566627D01*
X150165671Y-89619234D01*
X149959517Y-89715365D01*
X149773179Y-89845842D01*
X149612342Y-90006679D01*
X149481865Y-90193017D01*
X149385734Y-90399173D01*
X149385731Y-90399180D01*
X149333326Y-90594757D01*
X149296961Y-90654417D01*
X149234113Y-90684946D01*
X149164738Y-90676651D01*
X149110860Y-90632166D01*
X149094892Y-90598662D01*
X149047232Y-90441546D01*
X148949685Y-90259050D01*
X148876599Y-90169994D01*
X148818410Y-90099089D01*
X148671772Y-89978748D01*
X148658450Y-89967815D01*
X148475954Y-89870268D01*
X148277934Y-89810200D01*
X148277932Y-89810199D01*
X148277934Y-89810199D01*
X148072000Y-89789917D01*
X147866067Y-89810199D01*
X147668043Y-89870269D01*
X147557898Y-89929143D01*
X147485550Y-89967815D01*
X147485548Y-89967816D01*
X147485547Y-89967817D01*
X147325589Y-90099089D01*
X147194317Y-90259047D01*
X147096769Y-90441543D01*
X147036699Y-90639567D01*
X147021500Y-90793895D01*
X147021500Y-91416500D01*
X147001815Y-91483539D01*
X146949011Y-91529294D01*
X146897500Y-91540500D01*
X145177788Y-91540500D01*
X145110749Y-91520815D01*
X145064994Y-91468011D01*
X145055050Y-91398853D01*
X145063227Y-91369047D01*
X145072044Y-91347762D01*
X145092682Y-91191000D01*
X145072044Y-91034238D01*
X145011536Y-90888159D01*
X145011535Y-90888157D01*
X144987905Y-90857363D01*
X144975722Y-90841485D01*
X144950528Y-90776318D01*
X144964566Y-90707873D01*
X144975723Y-90690513D01*
X145003421Y-90654417D01*
X145011536Y-90643841D01*
X145072044Y-90497762D01*
X145092682Y-90341000D01*
X145072044Y-90184238D01*
X145035309Y-90095553D01*
X145027841Y-90026087D01*
X145059116Y-89963607D01*
X145092349Y-89941433D01*
X145091046Y-89939047D01*
X145098824Y-89934798D01*
X145098831Y-89934796D01*
X145102689Y-89931907D01*
X145125495Y-89918375D01*
X145129873Y-89916377D01*
X145167399Y-89883859D01*
X145174278Y-89878316D01*
X145185093Y-89870221D01*
X145194655Y-89860658D01*
X145201105Y-89854653D01*
X145238643Y-89822128D01*
X145241251Y-89818068D01*
X145257881Y-89797431D01*
X149658431Y-85396881D01*
X149679068Y-85380251D01*
X149683128Y-85377643D01*
X149715653Y-85340105D01*
X149721658Y-85333655D01*
X149731221Y-85324093D01*
X149739316Y-85313278D01*
X149744859Y-85306399D01*
X149777377Y-85268873D01*
X149779375Y-85264495D01*
X149792907Y-85241689D01*
X149795796Y-85237831D01*
X149813149Y-85191301D01*
X149816534Y-85183130D01*
X149820786Y-85173820D01*
X149837165Y-85137957D01*
X149837850Y-85133185D01*
X149844409Y-85107492D01*
X149846091Y-85102983D01*
X149849633Y-85053451D01*
X149850580Y-85044648D01*
X149852500Y-85031299D01*
X149852500Y-85017808D01*
X149852796Y-85009240D01*
X149852812Y-85009007D01*
X149877082Y-84943490D01*
X149932922Y-84901493D01*
X150002602Y-84896352D01*
X150034963Y-84908216D01*
G37*
%TD.AperFunction*%
%TA.AperFunction,Conductor*%
G36*
X149999700Y-81046185D02*
G01*
X150045455Y-81098989D01*
X150055399Y-81168147D01*
X150026374Y-81231703D01*
X149984169Y-81263296D01*
X149980799Y-81264834D01*
X149980798Y-81264835D01*
X149970743Y-81269427D01*
X149935620Y-81285466D01*
X149927446Y-81288851D01*
X149880930Y-81306200D01*
X149880923Y-81306204D01*
X149877055Y-81309100D01*
X149854274Y-81322616D01*
X149849882Y-81324623D01*
X149813988Y-81355724D01*
X149812353Y-81357141D01*
X149805474Y-81362684D01*
X149794664Y-81370777D01*
X149785115Y-81380325D01*
X149778650Y-81386343D01*
X149741114Y-81418870D01*
X149741111Y-81418873D01*
X149738500Y-81422936D01*
X149721870Y-81443570D01*
X149045568Y-82119871D01*
X149024938Y-82136498D01*
X149020876Y-82139109D01*
X149020874Y-82139110D01*
X149020872Y-82139112D01*
X149020870Y-82139113D01*
X149014166Y-82144923D01*
X149012642Y-82143164D01*
X148964502Y-82174096D01*
X148905393Y-82176733D01*
X148896680Y-82175000D01*
X148896674Y-82175000D01*
X147247326Y-82175000D01*
X147247323Y-82175000D01*
X147174264Y-82189532D01*
X147174260Y-82189533D01*
X147091399Y-82244899D01*
X147036033Y-82327760D01*
X147036032Y-82327764D01*
X147021500Y-82400821D01*
X147021500Y-83449500D01*
X147001815Y-83516539D01*
X146949011Y-83562294D01*
X146897500Y-83573500D01*
X142561138Y-83573500D01*
X142534781Y-83570666D01*
X142530076Y-83569642D01*
X142530068Y-83569642D01*
X142480547Y-83573184D01*
X142471701Y-83573500D01*
X142458197Y-83573500D01*
X142444835Y-83575421D01*
X142436045Y-83576366D01*
X142386517Y-83579909D01*
X142386514Y-83579910D01*
X142381996Y-83581595D01*
X142356320Y-83588148D01*
X142351541Y-83588835D01*
X142306367Y-83609465D01*
X142298194Y-83612851D01*
X142251667Y-83630205D01*
X142251667Y-83630206D01*
X142247802Y-83633099D01*
X142225020Y-83646616D01*
X142220631Y-83648620D01*
X142220630Y-83648621D01*
X142220628Y-83648622D01*
X142220627Y-83648623D01*
X142202338Y-83664470D01*
X142183089Y-83681149D01*
X142176215Y-83686688D01*
X142165406Y-83694780D01*
X142165402Y-83694783D01*
X142155853Y-83704331D01*
X142149387Y-83710350D01*
X142111862Y-83742866D01*
X142111854Y-83742876D01*
X142109243Y-83746938D01*
X142092616Y-83767568D01*
X141303267Y-84556917D01*
X141282637Y-84573544D01*
X141278575Y-84576155D01*
X141278566Y-84576162D01*
X141246052Y-84613685D01*
X141240028Y-84620155D01*
X141230479Y-84629704D01*
X141222377Y-84640527D01*
X141216831Y-84647409D01*
X141184323Y-84684926D01*
X141184316Y-84684937D01*
X141182314Y-84689321D01*
X141168799Y-84712100D01*
X141160593Y-84723064D01*
X141158607Y-84721577D01*
X141118514Y-84761659D01*
X141050239Y-84776501D01*
X140996766Y-84757596D01*
X140995911Y-84759138D01*
X140990415Y-84756087D01*
X140812862Y-84679893D01*
X140623606Y-84641000D01*
X140377000Y-84641000D01*
X140377000Y-85291000D01*
X139877000Y-85291000D01*
X139877000Y-84641000D01*
X139678824Y-84641000D01*
X139534778Y-84655647D01*
X139350438Y-84713484D01*
X139350428Y-84713489D01*
X139181501Y-84807251D01*
X139181494Y-84807256D01*
X139034894Y-84933107D01*
X138916631Y-85085890D01*
X138916629Y-85085894D01*
X138831542Y-85259356D01*
X138810404Y-85341000D01*
X139560889Y-85341000D01*
X139521390Y-85365457D01*
X139453799Y-85454962D01*
X139423105Y-85562840D01*
X139433454Y-85674521D01*
X139483448Y-85774922D01*
X139555931Y-85841000D01*
X138806529Y-85841000D01*
X138869685Y-86011527D01*
X138869687Y-86011531D01*
X138971892Y-86175503D01*
X139105002Y-86315534D01*
X139105003Y-86315535D01*
X139263586Y-86425913D01*
X139441137Y-86502106D01*
X139630394Y-86541000D01*
X139877000Y-86541000D01*
X139877000Y-85891000D01*
X140377000Y-85891000D01*
X140377000Y-86541000D01*
X140575176Y-86541000D01*
X140719221Y-86526352D01*
X140903561Y-86468515D01*
X140903574Y-86468509D01*
X140925020Y-86456606D01*
X140993188Y-86441282D01*
X141058820Y-86465245D01*
X141101078Y-86520887D01*
X141109199Y-86565024D01*
X141109199Y-93268913D01*
X141089514Y-93335952D01*
X141036710Y-93381707D01*
X140967552Y-93391651D01*
X140936299Y-93382864D01*
X140812862Y-93329893D01*
X140623606Y-93291000D01*
X140377000Y-93291000D01*
X140377000Y-93941000D01*
X139877000Y-93941000D01*
X139877000Y-93291000D01*
X139678824Y-93291000D01*
X139534778Y-93305647D01*
X139350438Y-93363484D01*
X139350428Y-93363489D01*
X139181501Y-93457251D01*
X139181494Y-93457256D01*
X139034894Y-93583107D01*
X138916631Y-93735890D01*
X138916629Y-93735894D01*
X138831542Y-93909356D01*
X138810404Y-93991000D01*
X139560889Y-93991000D01*
X139521390Y-94015457D01*
X139453799Y-94104962D01*
X139423105Y-94212840D01*
X139433454Y-94324521D01*
X139483448Y-94424922D01*
X139555931Y-94491000D01*
X138806529Y-94491000D01*
X138869685Y-94661527D01*
X138869687Y-94661531D01*
X138971892Y-94825503D01*
X139105002Y-94965534D01*
X139105003Y-94965535D01*
X139263586Y-95075913D01*
X139441137Y-95152106D01*
X139630394Y-95191000D01*
X139877000Y-95191000D01*
X139877000Y-94541000D01*
X140377000Y-94541000D01*
X140377000Y-95191000D01*
X140575176Y-95191000D01*
X140719221Y-95176352D01*
X140903561Y-95118515D01*
X140903574Y-95118509D01*
X141003010Y-95063317D01*
X141071179Y-95047993D01*
X141136811Y-95071956D01*
X141162461Y-95097431D01*
X141168797Y-95105896D01*
X141182316Y-95128682D01*
X141184318Y-95133066D01*
X141184321Y-95133071D01*
X141184322Y-95133072D01*
X141216843Y-95170603D01*
X141222387Y-95177484D01*
X141230478Y-95188292D01*
X141240032Y-95197846D01*
X141246052Y-95204313D01*
X141278571Y-95241842D01*
X141278573Y-95241844D01*
X141282627Y-95244449D01*
X141303270Y-95261084D01*
X143086690Y-97044504D01*
X143120175Y-97105827D01*
X143115191Y-97175519D01*
X143073319Y-97231452D01*
X143007855Y-97255869D01*
X142953406Y-97247495D01*
X137762897Y-95194724D01*
X137707795Y-95151764D01*
X137684666Y-95085833D01*
X137684500Y-95079414D01*
X137684500Y-84771542D01*
X137704185Y-84704503D01*
X137756989Y-84658748D01*
X137767635Y-84654469D01*
X147356759Y-81309100D01*
X148146965Y-81033420D01*
X148187811Y-81026500D01*
X149932661Y-81026500D01*
X149999700Y-81046185D01*
G37*
%TD.AperFunction*%
%TA.AperFunction,Conductor*%
G36*
X143757000Y-95191000D02*
G01*
X144305176Y-95191000D01*
X144449221Y-95176352D01*
X144633561Y-95118515D01*
X144633571Y-95118510D01*
X144802498Y-95024748D01*
X144802505Y-95024743D01*
X144936036Y-94910111D01*
X144999725Y-94881379D01*
X145068836Y-94891641D01*
X145121429Y-94937639D01*
X145139902Y-94989250D01*
X145159763Y-95152819D01*
X145215780Y-95300523D01*
X145215781Y-95300524D01*
X145305517Y-95430531D01*
X145391478Y-95506684D01*
X145428605Y-95565873D01*
X145427838Y-95635739D01*
X145389421Y-95694099D01*
X145325551Y-95722424D01*
X145309252Y-95723500D01*
X145225323Y-95723500D01*
X145152264Y-95738032D01*
X145152260Y-95738033D01*
X145069399Y-95793399D01*
X145014033Y-95876260D01*
X145014032Y-95876264D01*
X144999500Y-95949321D01*
X144999500Y-96149500D01*
X144979815Y-96216539D01*
X144927011Y-96262294D01*
X144875500Y-96273500D01*
X143782676Y-96273500D01*
X143715637Y-96253815D01*
X143694995Y-96237181D01*
X142860495Y-95402681D01*
X142827010Y-95341358D01*
X142831994Y-95271666D01*
X142873866Y-95215733D01*
X142939330Y-95191316D01*
X142948176Y-95191000D01*
X143257000Y-95191000D01*
X143257000Y-94541000D01*
X143757000Y-94541000D01*
X143757000Y-95191000D01*
G37*
%TD.AperFunction*%
%TA.AperFunction,Conductor*%
G36*
X143180333Y-86646626D02*
G01*
X143224680Y-86675127D01*
X143402871Y-86853318D01*
X143436356Y-86914641D01*
X143431372Y-86984333D01*
X143402871Y-87028680D01*
X143276766Y-87154785D01*
X143215443Y-87188270D01*
X143172903Y-87190044D01*
X143150011Y-87187030D01*
X143137000Y-87185318D01*
X143136998Y-87185318D01*
X143136997Y-87185318D01*
X142980239Y-87205955D01*
X142980237Y-87205956D01*
X142834157Y-87266464D01*
X142718319Y-87355350D01*
X142710406Y-87358408D01*
X142701350Y-87372319D01*
X142612464Y-87488157D01*
X142551956Y-87634237D01*
X142551955Y-87634239D01*
X142531318Y-87790998D01*
X142531318Y-87791001D01*
X142551955Y-87947760D01*
X142551956Y-87947762D01*
X142612464Y-88093841D01*
X142648277Y-88140515D01*
X142673470Y-88205684D01*
X142659431Y-88274129D01*
X142648277Y-88291485D01*
X142612464Y-88338158D01*
X142551956Y-88484237D01*
X142551955Y-88484239D01*
X142531318Y-88640998D01*
X142531318Y-88641001D01*
X142551955Y-88797760D01*
X142551956Y-88797762D01*
X142612464Y-88943841D01*
X142648277Y-88990515D01*
X142673470Y-89055684D01*
X142659431Y-89124129D01*
X142648277Y-89141485D01*
X142612464Y-89188158D01*
X142551956Y-89334237D01*
X142551955Y-89334239D01*
X142531318Y-89490998D01*
X142531318Y-89491001D01*
X142551955Y-89647760D01*
X142551956Y-89647762D01*
X142612464Y-89793841D01*
X142648277Y-89840515D01*
X142673470Y-89905684D01*
X142659431Y-89974129D01*
X142648277Y-89991485D01*
X142612464Y-90038158D01*
X142551956Y-90184237D01*
X142551955Y-90184239D01*
X142531318Y-90340998D01*
X142531318Y-90341001D01*
X142551955Y-90497760D01*
X142551956Y-90497762D01*
X142612464Y-90643841D01*
X142648277Y-90690515D01*
X142673470Y-90755684D01*
X142659431Y-90824129D01*
X142648277Y-90841485D01*
X142612464Y-90888158D01*
X142551956Y-91034237D01*
X142551955Y-91034239D01*
X142531318Y-91190998D01*
X142531318Y-91191001D01*
X142551955Y-91347760D01*
X142551956Y-91347762D01*
X142612464Y-91493841D01*
X142648277Y-91540515D01*
X142673470Y-91605684D01*
X142659431Y-91674129D01*
X142648277Y-91691485D01*
X142612464Y-91738158D01*
X142551956Y-91884237D01*
X142551955Y-91884239D01*
X142531318Y-92040998D01*
X142531318Y-92041001D01*
X142551955Y-92197760D01*
X142551956Y-92197762D01*
X142593468Y-92297982D01*
X142612464Y-92343841D01*
X142701348Y-92459678D01*
X142704408Y-92467591D01*
X142718313Y-92476644D01*
X142834159Y-92565536D01*
X142980238Y-92626044D01*
X143137000Y-92646682D01*
X143172900Y-92641955D01*
X143241933Y-92652720D01*
X143276766Y-92677213D01*
X143402872Y-92803319D01*
X143436357Y-92864642D01*
X143431373Y-92934334D01*
X143402872Y-92978681D01*
X143224681Y-93156872D01*
X143163358Y-93190357D01*
X143093666Y-93185373D01*
X143049319Y-93156872D01*
X142829096Y-92936649D01*
X142937000Y-92936649D01*
X142976613Y-93018905D01*
X143047992Y-93075827D01*
X143114468Y-93091000D01*
X143159532Y-93091000D01*
X143226008Y-93075827D01*
X143297387Y-93018905D01*
X143337000Y-92936649D01*
X143337000Y-92845351D01*
X143297387Y-92763095D01*
X143226008Y-92706173D01*
X143159532Y-92691000D01*
X143114468Y-92691000D01*
X143047992Y-92706173D01*
X142976613Y-92763095D01*
X142937000Y-92845351D01*
X142937000Y-92936649D01*
X142829096Y-92936649D01*
X142555155Y-92662708D01*
X142542719Y-92639934D01*
X142529848Y-92635307D01*
X142515291Y-92622844D01*
X142385347Y-92492900D01*
X142356207Y-92543372D01*
X142352129Y-92555925D01*
X142312691Y-92613600D01*
X142248332Y-92640797D01*
X142179486Y-92628882D01*
X142128011Y-92581637D01*
X142110199Y-92517605D01*
X142110199Y-87314394D01*
X142129884Y-87247355D01*
X142182688Y-87201600D01*
X142251846Y-87191656D01*
X142315402Y-87220681D01*
X142352130Y-87276076D01*
X142356209Y-87288631D01*
X142356210Y-87288633D01*
X142385346Y-87339098D01*
X142515293Y-87209152D01*
X142538062Y-87196718D01*
X142542689Y-87183850D01*
X142555152Y-87169293D01*
X142737796Y-86986649D01*
X142937000Y-86986649D01*
X142976613Y-87068905D01*
X143047992Y-87125827D01*
X143114468Y-87141000D01*
X143159532Y-87141000D01*
X143226008Y-87125827D01*
X143297387Y-87068905D01*
X143337000Y-86986649D01*
X143337000Y-86895351D01*
X143297387Y-86813095D01*
X143226008Y-86756173D01*
X143159532Y-86741000D01*
X143114468Y-86741000D01*
X143047992Y-86756173D01*
X142976613Y-86813095D01*
X142937000Y-86895351D01*
X142937000Y-86986649D01*
X142737796Y-86986649D01*
X143049318Y-86675127D01*
X143110641Y-86641642D01*
X143180333Y-86646626D01*
G37*
%TD.AperFunction*%
%TA.AperFunction,Conductor*%
G36*
X146964539Y-84594185D02*
G01*
X147010294Y-84646989D01*
X147021500Y-84698500D01*
X147021500Y-84850178D01*
X147036032Y-84923235D01*
X147036033Y-84923239D01*
X147036034Y-84923240D01*
X147091399Y-85006101D01*
X147173263Y-85060800D01*
X147174260Y-85061466D01*
X147174264Y-85061467D01*
X147247321Y-85075999D01*
X147247324Y-85076000D01*
X147247326Y-85076000D01*
X148264324Y-85076000D01*
X148331363Y-85095685D01*
X148377118Y-85148489D01*
X148387062Y-85217647D01*
X148358037Y-85281203D01*
X148352005Y-85287681D01*
X145227696Y-88411988D01*
X145166373Y-88445473D01*
X145096681Y-88440489D01*
X145040748Y-88398617D01*
X145025454Y-88371759D01*
X145011538Y-88338163D01*
X145011535Y-88338157D01*
X144978048Y-88294517D01*
X144975722Y-88291485D01*
X144950528Y-88226318D01*
X144964566Y-88157873D01*
X144975723Y-88140513D01*
X144984844Y-88128627D01*
X145011536Y-88093841D01*
X145072044Y-87947762D01*
X145092682Y-87791000D01*
X145086661Y-87745269D01*
X145072044Y-87634239D01*
X145072044Y-87634238D01*
X145011536Y-87488159D01*
X144922651Y-87372322D01*
X144919591Y-87364408D01*
X144905683Y-87355352D01*
X144789841Y-87266464D01*
X144643762Y-87205956D01*
X144643760Y-87205955D01*
X144487002Y-87185318D01*
X144486998Y-87185318D01*
X144451098Y-87190044D01*
X144382063Y-87179278D01*
X144347233Y-87154786D01*
X144221128Y-87028681D01*
X144198177Y-86986649D01*
X144287000Y-86986649D01*
X144326613Y-87068905D01*
X144397992Y-87125827D01*
X144464468Y-87141000D01*
X144509532Y-87141000D01*
X144576008Y-87125827D01*
X144647387Y-87068905D01*
X144687000Y-86986649D01*
X144687000Y-86941000D01*
X144840553Y-86941000D01*
X145068841Y-87169289D01*
X145081278Y-87192065D01*
X145094153Y-87196694D01*
X145108710Y-87209158D01*
X145238651Y-87339099D01*
X145238652Y-87339099D01*
X145267790Y-87288631D01*
X145323003Y-87118702D01*
X145323004Y-87118700D01*
X145341681Y-86941000D01*
X145323004Y-86763299D01*
X145323003Y-86763297D01*
X145267793Y-86593375D01*
X145267790Y-86593369D01*
X145238651Y-86542899D01*
X144840553Y-86940999D01*
X144840553Y-86941000D01*
X144687000Y-86941000D01*
X144687000Y-86895351D01*
X144647387Y-86813095D01*
X144576008Y-86756173D01*
X144509532Y-86741000D01*
X144464468Y-86741000D01*
X144397992Y-86756173D01*
X144326613Y-86813095D01*
X144287000Y-86895351D01*
X144287000Y-86986649D01*
X144198177Y-86986649D01*
X144187643Y-86967358D01*
X144192627Y-86897666D01*
X144221128Y-86853319D01*
X144853989Y-86220458D01*
X144915312Y-86186973D01*
X144958358Y-86190051D01*
X144996523Y-86187631D01*
X145067369Y-86096107D01*
X145152457Y-85922643D01*
X145173596Y-85841000D01*
X144423111Y-85841000D01*
X144462610Y-85816543D01*
X144530201Y-85727038D01*
X144560895Y-85619160D01*
X144550546Y-85507479D01*
X144500552Y-85407078D01*
X144428069Y-85341000D01*
X145177471Y-85341000D01*
X145114314Y-85170472D01*
X145114312Y-85170468D01*
X145012107Y-85006496D01*
X144878997Y-84866465D01*
X144878996Y-84866464D01*
X144783900Y-84800275D01*
X144740121Y-84745821D01*
X144732733Y-84676343D01*
X144764079Y-84613900D01*
X144824209Y-84578317D01*
X144854737Y-84574500D01*
X146897500Y-84574500D01*
X146964539Y-84594185D01*
G37*
%TD.AperFunction*%
%TA.AperFunction,Conductor*%
G36*
X160821213Y-81046185D02*
G01*
X160866968Y-81098989D01*
X160876912Y-81168147D01*
X160847887Y-81231703D01*
X160824025Y-81252954D01*
X160799861Y-81269427D01*
X161563506Y-82033072D01*
X161521807Y-82048887D01*
X161382207Y-82145245D01*
X161269724Y-82272213D01*
X161209770Y-82386443D01*
X160446902Y-81623575D01*
X160399093Y-81683526D01*
X160267974Y-81910631D01*
X160172165Y-82154746D01*
X160172162Y-82154758D01*
X160113810Y-82410415D01*
X160094214Y-82671915D01*
X160094214Y-82671924D01*
X160113810Y-82933424D01*
X160172162Y-83189081D01*
X160172165Y-83189093D01*
X160269668Y-83437524D01*
X160267577Y-83438344D01*
X160277402Y-83498255D01*
X160249638Y-83562372D01*
X160191617Y-83601299D01*
X160121761Y-83602679D01*
X160100539Y-83594755D01*
X159987924Y-83540523D01*
X159987926Y-83540523D01*
X159737340Y-83463227D01*
X159737334Y-83463226D01*
X159478025Y-83424140D01*
X159215774Y-83424140D01*
X158956465Y-83463226D01*
X158956459Y-83463227D01*
X158705874Y-83540523D01*
X158469612Y-83654301D01*
X158469599Y-83654308D01*
X158297961Y-83771327D01*
X159061606Y-84534972D01*
X159019907Y-84550787D01*
X158880307Y-84647145D01*
X158767824Y-84774113D01*
X158707870Y-84888343D01*
X157945002Y-84125475D01*
X157897193Y-84185426D01*
X157766074Y-84412531D01*
X157670265Y-84656646D01*
X157670262Y-84656658D01*
X157611910Y-84912315D01*
X157592314Y-85173815D01*
X157593749Y-85192972D01*
X157579127Y-85261295D01*
X157529888Y-85310866D01*
X157461666Y-85325948D01*
X157396120Y-85301752D01*
X157382414Y-85289916D01*
X155536819Y-83444321D01*
X155503334Y-83382998D01*
X155500500Y-83356640D01*
X155500500Y-82567143D01*
X155503334Y-82540785D01*
X155504359Y-82536073D01*
X155500816Y-82486537D01*
X155500500Y-82477690D01*
X155500500Y-82464201D01*
X155498579Y-82450843D01*
X155497633Y-82442045D01*
X155494091Y-82392517D01*
X155492407Y-82388002D01*
X155485850Y-82362312D01*
X155485165Y-82357543D01*
X155464530Y-82312360D01*
X155461155Y-82304212D01*
X155443796Y-82257669D01*
X155440905Y-82253807D01*
X155427379Y-82231010D01*
X155425377Y-82226627D01*
X155392860Y-82189100D01*
X155387306Y-82182207D01*
X155379228Y-82171416D01*
X155379226Y-82171413D01*
X155379221Y-82171407D01*
X155369677Y-82161863D01*
X155363658Y-82155400D01*
X155331128Y-82117857D01*
X155331125Y-82117854D01*
X155327066Y-82115246D01*
X155306428Y-82098614D01*
X154651385Y-81443571D01*
X154634750Y-81422928D01*
X154632145Y-81418874D01*
X154632143Y-81418872D01*
X154594614Y-81386353D01*
X154588147Y-81380333D01*
X154578593Y-81370779D01*
X154567785Y-81362688D01*
X154560901Y-81357141D01*
X154523373Y-81324623D01*
X154523372Y-81324622D01*
X154523367Y-81324619D01*
X154518983Y-81322617D01*
X154496194Y-81309096D01*
X154492331Y-81306204D01*
X154492329Y-81306203D01*
X154445790Y-81288845D01*
X154437622Y-81285461D01*
X154392457Y-81264835D01*
X154392455Y-81264834D01*
X154389082Y-81263294D01*
X154336278Y-81217539D01*
X154316594Y-81150500D01*
X154336279Y-81083460D01*
X154389083Y-81037706D01*
X154440594Y-81026500D01*
X160754174Y-81026500D01*
X160821213Y-81046185D01*
G37*
%TD.AperFunction*%
%TA.AperFunction,Conductor*%
G36*
X161269724Y-83071627D02*
G01*
X161382207Y-83198595D01*
X161521807Y-83294953D01*
X161563505Y-83310767D01*
X160788032Y-84086240D01*
X159985928Y-84888343D01*
X159925976Y-84774113D01*
X159813493Y-84647145D01*
X159673893Y-84550787D01*
X159632193Y-84534972D01*
X160407666Y-83759498D01*
X160407670Y-83759495D01*
X161209770Y-82957395D01*
X161269724Y-83071627D01*
G37*
%TD.AperFunction*%
%TD*%
M02*
