%TF.GenerationSoftware,KiCad,Pcbnew,7.0.10*%
%TF.CreationDate,2024-10-22T16:46:23+13:00*%
%TF.ProjectId,MIDI_To_USB,4d494449-5f54-46f5-9f55-53422e6b6963,rev?*%
%TF.SameCoordinates,Original*%
%TF.FileFunction,Paste,Top*%
%TF.FilePolarity,Positive*%
%FSLAX46Y46*%
G04 Gerber Fmt 4.6, Leading zero omitted, Abs format (unit mm)*
G04 Created by KiCad (PCBNEW 7.0.10) date 2024-10-22 16:46:23*
%MOMM*%
%LPD*%
G01*
G04 APERTURE LIST*
G04 Aperture macros list*
%AMRoundRect*
0 Rectangle with rounded corners*
0 $1 Rounding radius*
0 $2 $3 $4 $5 $6 $7 $8 $9 X,Y pos of 4 corners*
0 Add a 4 corners polygon primitive as box body*
4,1,4,$2,$3,$4,$5,$6,$7,$8,$9,$2,$3,0*
0 Add four circle primitives for the rounded corners*
1,1,$1+$1,$2,$3*
1,1,$1+$1,$4,$5*
1,1,$1+$1,$6,$7*
1,1,$1+$1,$8,$9*
0 Add four rect primitives between the rounded corners*
20,1,$1+$1,$2,$3,$4,$5,0*
20,1,$1+$1,$4,$5,$6,$7,0*
20,1,$1+$1,$6,$7,$8,$9,0*
20,1,$1+$1,$8,$9,$2,$3,0*%
G04 Aperture macros list end*
%ADD10RoundRect,0.250000X0.325000X0.650000X-0.325000X0.650000X-0.325000X-0.650000X0.325000X-0.650000X0*%
%ADD11RoundRect,0.250000X-0.325000X-0.650000X0.325000X-0.650000X0.325000X0.650000X-0.325000X0.650000X0*%
%ADD12RoundRect,0.250000X0.312500X0.625000X-0.312500X0.625000X-0.312500X-0.625000X0.312500X-0.625000X0*%
%ADD13RoundRect,0.232500X-0.232500X0.232500X-0.232500X-0.232500X0.232500X-0.232500X0.232500X0.232500X0*%
%ADD14RoundRect,0.062500X-0.062500X0.375000X-0.062500X-0.375000X0.062500X-0.375000X0.062500X0.375000X0*%
%ADD15RoundRect,0.062500X-0.375000X0.062500X-0.375000X-0.062500X0.375000X-0.062500X0.375000X0.062500X0*%
G04 APERTURE END LIST*
D10*
%TO.C,C3*%
X138525000Y-91440000D03*
X141475000Y-91440000D03*
%TD*%
D11*
%TO.C,C2*%
X138525000Y-88392000D03*
X141475000Y-88392000D03*
%TD*%
%TO.C,C1*%
X147877000Y-88646000D03*
X150827000Y-88646000D03*
%TD*%
D12*
%TO.C,R1*%
X147381500Y-94234000D03*
X150306500Y-94234000D03*
%TD*%
D13*
%TO.C,U3*%
X168023000Y-89145000D03*
X166873000Y-90295000D03*
X168023000Y-90295000D03*
X168023000Y-91445000D03*
X166873000Y-89145000D03*
X166873000Y-91445000D03*
X169173000Y-89145000D03*
X169173000Y-90295000D03*
X169173000Y-91445000D03*
D14*
X169773000Y-87857500D03*
X169273000Y-87857500D03*
X168773000Y-87857500D03*
X168273000Y-87857500D03*
X167773000Y-87857500D03*
X167273000Y-87857500D03*
X166773000Y-87857500D03*
X166273000Y-87857500D03*
D15*
X165585500Y-88545000D03*
X165585500Y-89045000D03*
X165585500Y-89545000D03*
X165585500Y-90045000D03*
X165585500Y-90545000D03*
X165585500Y-91045000D03*
X165585500Y-91545000D03*
X165585500Y-92045000D03*
D14*
X166273000Y-92732500D03*
X166773000Y-92732500D03*
X167273000Y-92732500D03*
X167773000Y-92732500D03*
X168273000Y-92732500D03*
X168773000Y-92732500D03*
X169273000Y-92732500D03*
X169773000Y-92732500D03*
D15*
X170460500Y-92045000D03*
X170460500Y-91545000D03*
X170460500Y-91045000D03*
X170460500Y-90545000D03*
X170460500Y-90045000D03*
X170460500Y-89545000D03*
X170460500Y-89045000D03*
X170460500Y-88545000D03*
%TD*%
D12*
%TO.C,R2*%
X168279000Y-96266000D03*
X165354000Y-96266000D03*
%TD*%
M02*
