%TF.GenerationSoftware,KiCad,Pcbnew,7.0.10*%
%TF.CreationDate,2024-10-22T16:46:23+13:00*%
%TF.ProjectId,MIDI_To_USB,4d494449-5f54-46f5-9f55-53422e6b6963,rev?*%
%TF.SameCoordinates,Original*%
%TF.FileFunction,Soldermask,Top*%
%TF.FilePolarity,Negative*%
%FSLAX46Y46*%
G04 Gerber Fmt 4.6, Leading zero omitted, Abs format (unit mm)*
G04 Created by KiCad (PCBNEW 7.0.10) date 2024-10-22 16:46:23*
%MOMM*%
%LPD*%
G01*
G04 APERTURE LIST*
G04 Aperture macros list*
%AMRoundRect*
0 Rectangle with rounded corners*
0 $1 Rounding radius*
0 $2 $3 $4 $5 $6 $7 $8 $9 X,Y pos of 4 corners*
0 Add a 4 corners polygon primitive as box body*
4,1,4,$2,$3,$4,$5,$6,$7,$8,$9,$2,$3,0*
0 Add four circle primitives for the rounded corners*
1,1,$1+$1,$2,$3*
1,1,$1+$1,$4,$5*
1,1,$1+$1,$6,$7*
1,1,$1+$1,$8,$9*
0 Add four rect primitives between the rounded corners*
20,1,$1+$1,$2,$3,$4,$5,0*
20,1,$1+$1,$4,$5,$6,$7,0*
20,1,$1+$1,$6,$7,$8,$9,0*
20,1,$1+$1,$8,$9,$2,$3,0*%
G04 Aperture macros list end*
%ADD10RoundRect,0.250000X0.325000X0.650000X-0.325000X0.650000X-0.325000X-0.650000X0.325000X-0.650000X0*%
%ADD11RoundRect,0.250000X-0.325000X-0.650000X0.325000X-0.650000X0.325000X0.650000X-0.325000X0.650000X0*%
%ADD12RoundRect,0.250000X0.312500X0.625000X-0.312500X0.625000X-0.312500X-0.625000X0.312500X-0.625000X0*%
%ADD13O,1.600000X2.400000*%
%ADD14R,1.600000X2.400000*%
%ADD15RoundRect,0.062500X-0.062500X0.375000X-0.062500X-0.375000X0.062500X-0.375000X0.062500X0.375000X0*%
%ADD16RoundRect,0.062500X-0.375000X0.062500X-0.375000X-0.062500X0.375000X-0.062500X0.375000X0.062500X0*%
%ADD17R,3.450000X3.450000*%
%ADD18C,0.700000*%
%ADD19O,1.700000X0.900000*%
%ADD20O,2.400000X0.900000*%
%ADD21C,2.499360*%
%ADD22R,1.600000X1.600000*%
%ADD23O,1.600000X1.600000*%
G04 APERTURE END LIST*
D10*
%TO.C,C3*%
X138525000Y-91440000D03*
X141475000Y-91440000D03*
%TD*%
D11*
%TO.C,C2*%
X138525000Y-88392000D03*
X141475000Y-88392000D03*
%TD*%
%TO.C,C1*%
X147877000Y-88646000D03*
X150827000Y-88646000D03*
%TD*%
D12*
%TO.C,R1*%
X147381500Y-94234000D03*
X150306500Y-94234000D03*
%TD*%
D13*
%TO.C,U1*%
X148072000Y-91245500D03*
X150612000Y-91245500D03*
X153152000Y-91245500D03*
X153152000Y-83625500D03*
X150612000Y-83625500D03*
D14*
X148072000Y-83625500D03*
%TD*%
D15*
%TO.C,U3*%
X169773000Y-87857500D03*
X169273000Y-87857500D03*
X168773000Y-87857500D03*
X168273000Y-87857500D03*
X167773000Y-87857500D03*
X167273000Y-87857500D03*
X166773000Y-87857500D03*
X166273000Y-87857500D03*
D16*
X165585500Y-88545000D03*
X165585500Y-89045000D03*
X165585500Y-89545000D03*
X165585500Y-90045000D03*
X165585500Y-90545000D03*
X165585500Y-91045000D03*
X165585500Y-91545000D03*
X165585500Y-92045000D03*
D15*
X166273000Y-92732500D03*
X166773000Y-92732500D03*
X167273000Y-92732500D03*
X167773000Y-92732500D03*
X168273000Y-92732500D03*
X168773000Y-92732500D03*
X169273000Y-92732500D03*
X169773000Y-92732500D03*
D16*
X170460500Y-92045000D03*
X170460500Y-91545000D03*
X170460500Y-91045000D03*
X170460500Y-90545000D03*
X170460500Y-90045000D03*
X170460500Y-89545000D03*
X170460500Y-89045000D03*
X170460500Y-88545000D03*
D17*
X168023000Y-90295000D03*
%TD*%
D12*
%TO.C,R2*%
X168279000Y-96266000D03*
X165354000Y-96266000D03*
%TD*%
D18*
%TO.C,P1*%
X144487000Y-92891000D03*
X144487000Y-92041000D03*
X144487000Y-91191000D03*
X144487000Y-90341000D03*
X144487000Y-89491000D03*
X144487000Y-88641000D03*
X144487000Y-87791000D03*
X144487000Y-86941000D03*
X143137000Y-86941000D03*
X143137000Y-87791000D03*
X143137000Y-88641000D03*
X143137000Y-89491000D03*
X143137000Y-90341000D03*
X143137000Y-91191000D03*
X143137000Y-92041000D03*
X143137000Y-92891000D03*
D19*
X140127000Y-85591000D03*
X140127000Y-94241000D03*
D20*
X143507000Y-85591000D03*
X143507000Y-94241000D03*
%TD*%
D21*
%TO.C,J1*%
X171843700Y-85168740D03*
X171843700Y-95171260D03*
X159346900Y-85173820D03*
X161848800Y-97668080D03*
X161846260Y-90170000D03*
X159346900Y-95166180D03*
X161848800Y-82671920D03*
%TD*%
D22*
%TO.C,D1*%
X146050000Y-96774000D03*
D23*
X153670000Y-96774000D03*
%TD*%
M02*
