%TF.GenerationSoftware,KiCad,Pcbnew,7.0.10*%
%TF.CreationDate,2024-10-22T16:46:23+13:00*%
%TF.ProjectId,MIDI_To_USB,4d494449-5f54-46f5-9f55-53422e6b6963,rev?*%
%TF.SameCoordinates,Original*%
%TF.FileFunction,Copper,L1,Top*%
%TF.FilePolarity,Positive*%
%FSLAX46Y46*%
G04 Gerber Fmt 4.6, Leading zero omitted, Abs format (unit mm)*
G04 Created by KiCad (PCBNEW 7.0.10) date 2024-10-22 16:46:23*
%MOMM*%
%LPD*%
G01*
G04 APERTURE LIST*
G04 Aperture macros list*
%AMRoundRect*
0 Rectangle with rounded corners*
0 $1 Rounding radius*
0 $2 $3 $4 $5 $6 $7 $8 $9 X,Y pos of 4 corners*
0 Add a 4 corners polygon primitive as box body*
4,1,4,$2,$3,$4,$5,$6,$7,$8,$9,$2,$3,0*
0 Add four circle primitives for the rounded corners*
1,1,$1+$1,$2,$3*
1,1,$1+$1,$4,$5*
1,1,$1+$1,$6,$7*
1,1,$1+$1,$8,$9*
0 Add four rect primitives between the rounded corners*
20,1,$1+$1,$2,$3,$4,$5,0*
20,1,$1+$1,$4,$5,$6,$7,0*
20,1,$1+$1,$6,$7,$8,$9,0*
20,1,$1+$1,$8,$9,$2,$3,0*%
G04 Aperture macros list end*
%TA.AperFunction,SMDPad,CuDef*%
%ADD10RoundRect,0.250000X0.325000X0.650000X-0.325000X0.650000X-0.325000X-0.650000X0.325000X-0.650000X0*%
%TD*%
%TA.AperFunction,SMDPad,CuDef*%
%ADD11RoundRect,0.250000X-0.325000X-0.650000X0.325000X-0.650000X0.325000X0.650000X-0.325000X0.650000X0*%
%TD*%
%TA.AperFunction,SMDPad,CuDef*%
%ADD12RoundRect,0.250000X0.312500X0.625000X-0.312500X0.625000X-0.312500X-0.625000X0.312500X-0.625000X0*%
%TD*%
%TA.AperFunction,ComponentPad*%
%ADD13O,1.600000X2.400000*%
%TD*%
%TA.AperFunction,ComponentPad*%
%ADD14R,1.600000X2.400000*%
%TD*%
%TA.AperFunction,SMDPad,CuDef*%
%ADD15RoundRect,0.062500X-0.062500X0.375000X-0.062500X-0.375000X0.062500X-0.375000X0.062500X0.375000X0*%
%TD*%
%TA.AperFunction,SMDPad,CuDef*%
%ADD16RoundRect,0.062500X-0.375000X0.062500X-0.375000X-0.062500X0.375000X-0.062500X0.375000X0.062500X0*%
%TD*%
%TA.AperFunction,SMDPad,CuDef*%
%ADD17R,3.450000X3.450000*%
%TD*%
%TA.AperFunction,ComponentPad*%
%ADD18C,0.700000*%
%TD*%
%TA.AperFunction,ComponentPad*%
%ADD19O,1.700000X0.900000*%
%TD*%
%TA.AperFunction,ComponentPad*%
%ADD20O,2.400000X0.900000*%
%TD*%
%TA.AperFunction,WasherPad*%
%ADD21C,2.499360*%
%TD*%
%TA.AperFunction,ComponentPad*%
%ADD22C,2.499360*%
%TD*%
%TA.AperFunction,ComponentPad*%
%ADD23R,1.600000X1.600000*%
%TD*%
%TA.AperFunction,ComponentPad*%
%ADD24O,1.600000X1.600000*%
%TD*%
%TA.AperFunction,ViaPad*%
%ADD25C,0.800000*%
%TD*%
%TA.AperFunction,Conductor*%
%ADD26C,0.500000*%
%TD*%
%TA.AperFunction,Conductor*%
%ADD27C,0.250000*%
%TD*%
G04 APERTURE END LIST*
D10*
%TO.P,C3,2*%
%TO.N,GND*%
X138525000Y-91440000D03*
%TO.P,C3,1*%
%TO.N,Net-(U3-VCCD)*%
X141475000Y-91440000D03*
%TD*%
D11*
%TO.P,C2,1*%
%TO.N,+5V*%
X138525000Y-88392000D03*
%TO.P,C2,2*%
%TO.N,GND*%
X141475000Y-88392000D03*
%TD*%
%TO.P,C1,1*%
%TO.N,+5V*%
X147877000Y-88646000D03*
%TO.P,C1,2*%
%TO.N,GND*%
X150827000Y-88646000D03*
%TD*%
D12*
%TO.P,R1,2*%
%TO.N,Net-(D1-K)*%
X147381500Y-94234000D03*
%TO.P,R1,1*%
%TO.N,Net-(J1-Pad2)*%
X150306500Y-94234000D03*
%TD*%
D13*
%TO.P,U1,6*%
%TO.N,+5V*%
X148072000Y-91245500D03*
%TO.P,U1,5*%
%TO.N,GND*%
X150612000Y-91245500D03*
%TO.P,U1,4*%
%TO.N,RX*%
X153152000Y-91245500D03*
%TO.P,U1,3*%
%TO.N,unconnected-(U1-Pad3)*%
X153152000Y-83625500D03*
%TO.P,U1,2*%
%TO.N,Net-(D1-A)*%
X150612000Y-83625500D03*
D14*
%TO.P,U1,1*%
%TO.N,Net-(D1-K)*%
X148072000Y-83625500D03*
%TD*%
D15*
%TO.P,U3,1,VCCIO*%
%TO.N,unconnected-(U3-VCCIO-Pad1)*%
X169773000Y-87857500D03*
%TO.P,U3,2,RXD*%
%TO.N,RX*%
X169273000Y-87857500D03*
%TO.P,U3,3,RI*%
%TO.N,unconnected-(U3-RI-Pad3)*%
X168773000Y-87857500D03*
%TO.P,U3,4,GND*%
%TO.N,GND*%
X168273000Y-87857500D03*
%TO.P,U3,5,GPIO5*%
%TO.N,unconnected-(U3-GPIO5-Pad5)*%
X167773000Y-87857500D03*
%TO.P,U3,6,DSR*%
%TO.N,unconnected-(U3-DSR-Pad6)*%
X167273000Y-87857500D03*
%TO.P,U3,7,DCD*%
%TO.N,unconnected-(U3-DCD-Pad7)*%
X166773000Y-87857500D03*
%TO.P,U3,8,CTS*%
%TO.N,unconnected-(U3-CTS-Pad8)*%
X166273000Y-87857500D03*
D16*
%TO.P,U3,9,GPIO4*%
%TO.N,unconnected-(U3-GPIO4-Pad9)*%
X165585500Y-88545000D03*
%TO.P,U3,10,GPIO2*%
%TO.N,unconnected-(U3-GPIO2-Pad10)*%
X165585500Y-89045000D03*
%TO.P,U3,11,GPIO3*%
%TO.N,unconnected-(U3-GPIO3-Pad11)*%
X165585500Y-89545000D03*
%TO.P,U3,12,GPIO6*%
%TO.N,unconnected-(U3-GPIO6-Pad12)*%
X165585500Y-90045000D03*
%TO.P,U3,13,GPIO7*%
%TO.N,unconnected-(U3-GPIO7-Pad13)*%
X165585500Y-90545000D03*
%TO.P,U3,14,USBDP*%
%TO.N,Net-(P1-D+)*%
X165585500Y-91045000D03*
%TO.P,U3,15,USBDM*%
%TO.N,Net-(P1-D-)*%
X165585500Y-91545000D03*
%TO.P,U3,16,VCCD*%
%TO.N,Net-(U3-VCCD)*%
X165585500Y-92045000D03*
D15*
%TO.P,U3,17,GND*%
%TO.N,GND*%
X166273000Y-92732500D03*
%TO.P,U3,18,~{RESET}*%
%TO.N,unconnected-(U3-~{RESET}-Pad18)*%
X166773000Y-92732500D03*
%TO.P,U3,19,VCC*%
%TO.N,+5V*%
X167273000Y-92732500D03*
%TO.P,U3,20,GND*%
%TO.N,GND*%
X167773000Y-92732500D03*
%TO.P,U3,21,GPIO1*%
%TO.N,unconnected-(U3-GPIO1-Pad21)*%
X168273000Y-92732500D03*
%TO.P,U3,22,GPIO0*%
%TO.N,unconnected-(U3-GPIO0-Pad22)*%
X168773000Y-92732500D03*
%TO.P,U3,23,DNU*%
%TO.N,unconnected-(U3-DNU-Pad23)*%
X169273000Y-92732500D03*
%TO.P,U3,24,AGND*%
%TO.N,GND*%
X169773000Y-92732500D03*
D16*
%TO.P,U3,25,DNU*%
%TO.N,unconnected-(U3-DNU-Pad25)*%
X170460500Y-92045000D03*
%TO.P,U3,26,DNU*%
%TO.N,unconnected-(U3-DNU-Pad26)*%
X170460500Y-91545000D03*
%TO.P,U3,27,DNU*%
%TO.N,unconnected-(U3-DNU-Pad27)*%
X170460500Y-91045000D03*
%TO.P,U3,28,DNU*%
%TO.N,unconnected-(U3-DNU-Pad28)*%
X170460500Y-90545000D03*
%TO.P,U3,29,DNU*%
%TO.N,unconnected-(U3-DNU-Pad29)*%
X170460500Y-90045000D03*
%TO.P,U3,30,TXD*%
%TO.N,unconnected-(U3-TXD-Pad30)*%
X170460500Y-89545000D03*
%TO.P,U3,31,DTR*%
%TO.N,unconnected-(U3-DTR-Pad31)*%
X170460500Y-89045000D03*
%TO.P,U3,32,RTS*%
%TO.N,unconnected-(U3-RTS-Pad32)*%
X170460500Y-88545000D03*
D17*
%TO.P,U3,33,GND*%
%TO.N,GND*%
X168023000Y-90295000D03*
%TD*%
D12*
%TO.P,R2,1*%
%TO.N,+5V*%
X168279000Y-96266000D03*
%TO.P,R2,2*%
%TO.N,RX*%
X165354000Y-96266000D03*
%TD*%
D18*
%TO.P,P1,A1,GND*%
%TO.N,GND*%
X144487000Y-92891000D03*
%TO.P,P1,A4,VBUS*%
%TO.N,+5V*%
X144487000Y-92041000D03*
%TO.P,P1,A5,CC*%
%TO.N,unconnected-(P1-CC-PadA5)*%
X144487000Y-91191000D03*
%TO.P,P1,A6,D+*%
%TO.N,Net-(P1-D+)*%
X144487000Y-90341000D03*
%TO.P,P1,A7,D-*%
%TO.N,Net-(P1-D-)*%
X144487000Y-89491000D03*
%TO.P,P1,A8*%
%TO.N,N/C*%
X144487000Y-88641000D03*
%TO.P,P1,A9,VBUS*%
%TO.N,+5V*%
X144487000Y-87791000D03*
%TO.P,P1,A12,GND*%
%TO.N,GND*%
X144487000Y-86941000D03*
%TO.P,P1,B1,GND*%
X143137000Y-86941000D03*
%TO.P,P1,B4,VBUS*%
%TO.N,+5V*%
X143137000Y-87791000D03*
%TO.P,P1,B5,VCONN*%
%TO.N,unconnected-(P1-VCONN-PadB5)*%
X143137000Y-88641000D03*
%TO.P,P1,B6*%
%TO.N,N/C*%
X143137000Y-89491000D03*
%TO.P,P1,B7*%
X143137000Y-90341000D03*
%TO.P,P1,B8*%
X143137000Y-91191000D03*
%TO.P,P1,B9,VBUS*%
%TO.N,+5V*%
X143137000Y-92041000D03*
%TO.P,P1,B12,GND*%
%TO.N,GND*%
X143137000Y-92891000D03*
D19*
%TO.P,P1,S1,SHIELD*%
X140127000Y-85591000D03*
X140127000Y-94241000D03*
D20*
X143507000Y-85591000D03*
X143507000Y-94241000D03*
%TD*%
D21*
%TO.P,J1,*%
%TO.N,*%
X171843700Y-85168740D03*
X171843700Y-95171260D03*
D22*
%TO.P,J1,5*%
%TO.N,GND*%
X159346900Y-85173820D03*
%TO.P,J1,1*%
X161848800Y-97668080D03*
%TO.P,J1,2*%
%TO.N,Net-(J1-Pad2)*%
X161846260Y-90170000D03*
%TO.P,J1,4*%
%TO.N,Net-(D1-A)*%
X159346900Y-95166180D03*
%TO.P,J1,3*%
%TO.N,GND*%
X161848800Y-82671920D03*
%TD*%
D23*
%TO.P,D1,1,K*%
%TO.N,Net-(D1-K)*%
X146050000Y-96774000D03*
D24*
%TO.P,D1,2,A*%
%TO.N,Net-(D1-A)*%
X153670000Y-96774000D03*
%TD*%
D25*
%TO.N,GND*%
X168656000Y-94234000D03*
%TO.N,Net-(U3-VCCD)*%
X145796000Y-94996000D03*
%TO.N,RX*%
X154686000Y-86868000D03*
%TO.N,Net-(P1-D-)*%
X163576000Y-88392000D03*
%TO.N,Net-(U3-VCCD)*%
X165100000Y-93218000D03*
%TD*%
D26*
%TO.N,+5V*%
X155156000Y-85344000D02*
X146344000Y-85344000D01*
X157500000Y-83000000D02*
X155156000Y-85344000D01*
X159698728Y-83000000D02*
X157500000Y-83000000D01*
X162698728Y-86000000D02*
X159698728Y-83000000D01*
X172500000Y-88960241D02*
X169539759Y-86000000D01*
X172500000Y-93471580D02*
X172500000Y-88960241D01*
X171139669Y-93471580D02*
X172500000Y-93471580D01*
X169734000Y-96266000D02*
X170144020Y-95855980D01*
X170144020Y-95855980D02*
X170144020Y-94467229D01*
X170144020Y-94467229D02*
X171139669Y-93471580D01*
X169539759Y-86000000D02*
X162698728Y-86000000D01*
X168279000Y-96266000D02*
X169734000Y-96266000D01*
X145500000Y-86000000D02*
X146156000Y-85344000D01*
X146156000Y-85344000D02*
X146344000Y-85344000D01*
X145500000Y-87272974D02*
X145500000Y-86000000D01*
X144981974Y-87791000D02*
X145500000Y-87272974D01*
X144487000Y-87791000D02*
X144981974Y-87791000D01*
%TO.N,Net-(J1-Pad2)*%
X150306500Y-94234000D02*
X151540500Y-93000000D01*
X151540500Y-93000000D02*
X157000000Y-93000000D01*
X157000000Y-93000000D02*
X159830000Y-90170000D01*
X159830000Y-90170000D02*
X161417000Y-90170000D01*
D27*
%TO.N,Net-(P1-D+)*%
X144487000Y-90341000D02*
X144591595Y-90341000D01*
X164301000Y-87593000D02*
X164823000Y-88115000D01*
X147500000Y-86500000D02*
X150476100Y-86500000D01*
X144591595Y-90341000D02*
X146000000Y-88932595D01*
X146000000Y-88932595D02*
X146000000Y-88000000D01*
X146000000Y-88000000D02*
X147500000Y-86500000D01*
X150476100Y-86500000D02*
X151569100Y-87593000D01*
X151569100Y-87593000D02*
X164301000Y-87593000D01*
X164823000Y-88115000D02*
X164823000Y-90769740D01*
X164823000Y-90769740D02*
X165098260Y-91045000D01*
X165098260Y-91045000D02*
X165585500Y-91045000D01*
%TO.N,RX*%
X168770740Y-86868000D02*
X169273000Y-87370260D01*
X154686000Y-86868000D02*
X168770740Y-86868000D01*
X169273000Y-87370260D02*
X169273000Y-87857500D01*
X163830000Y-94234000D02*
X165354000Y-95758000D01*
X163830000Y-89678967D02*
X163830000Y-94234000D01*
X165354000Y-95758000D02*
X165354000Y-96266000D01*
X160696079Y-88303921D02*
X162454954Y-88303921D01*
X162454954Y-88303921D02*
X163830000Y-89678967D01*
X157754500Y-91245500D02*
X160696079Y-88303921D01*
X153152000Y-91245500D02*
X157754500Y-91245500D01*
D26*
%TO.N,GND*%
X141475000Y-88108026D02*
X141475000Y-88392000D01*
X142642026Y-86941000D02*
X141475000Y-88108026D01*
X143137000Y-86941000D02*
X142642026Y-86941000D01*
X144487000Y-86941000D02*
X143137000Y-86941000D01*
%TO.N,+5V*%
X142000000Y-84500000D02*
X145500000Y-84500000D01*
X141610493Y-84889507D02*
X142000000Y-84500000D01*
X141610493Y-86389507D02*
X141610493Y-84889507D01*
X145500000Y-84500000D02*
X146344000Y-85344000D01*
X138525000Y-88041500D02*
X139783185Y-86783315D01*
X139783185Y-86783315D02*
X141216685Y-86783315D01*
X141216685Y-86783315D02*
X141610493Y-86389507D01*
X138525000Y-88392000D02*
X138525000Y-88041500D01*
%TO.N,Net-(U3-VCCD)*%
X141500000Y-91465000D02*
X141475000Y-91440000D01*
X141500000Y-95000000D02*
X141500000Y-91465000D01*
X142000000Y-95500000D02*
X141500000Y-95000000D01*
X145292000Y-95500000D02*
X142000000Y-95500000D01*
X145542000Y-95250000D02*
X145292000Y-95500000D01*
D27*
%TO.N,GND*%
X150827000Y-91030500D02*
X150612000Y-91245500D01*
D26*
X150827000Y-88646000D02*
X150827000Y-91030500D01*
%TO.N,+5V*%
X148072000Y-88572000D02*
X148072000Y-91245500D01*
D27*
X148000000Y-88500000D02*
X148072000Y-88572000D01*
X147877000Y-88623000D02*
X148000000Y-88500000D01*
X147877000Y-88646000D02*
X147877000Y-88623000D01*
%TO.N,Net-(J1-Pad2)*%
X161417000Y-90170000D02*
X161846260Y-90170000D01*
%TO.N,GND*%
X168656000Y-94234000D02*
X167773000Y-93351000D01*
X167773000Y-93351000D02*
X167773000Y-92732500D01*
%TO.N,Net-(U3-VCCD)*%
X145796000Y-94996000D02*
X145542000Y-95250000D01*
%TO.N,Net-(P1-D-)*%
X164961864Y-91545000D02*
X165585500Y-91545000D01*
X164338000Y-90921136D02*
X164961864Y-91545000D01*
X164338000Y-89154000D02*
X164338000Y-90921136D01*
X163576000Y-88392000D02*
X164338000Y-89154000D01*
%TO.N,GND*%
X150064500Y-90698000D02*
X150612000Y-91245500D01*
%TO.N,+5V*%
X148639500Y-90678000D02*
X148072000Y-91245500D01*
X167273000Y-95260000D02*
X167273000Y-92732500D01*
X168279000Y-96266000D02*
X167273000Y-95260000D01*
%TO.N,Net-(U3-VCCD)*%
X165585500Y-92732500D02*
X165100000Y-93218000D01*
X165585500Y-92045000D02*
X165585500Y-92732500D01*
D26*
%TO.N,Net-(D1-K)*%
X147381500Y-95442500D02*
X146050000Y-96774000D01*
X147381500Y-94234000D02*
X147381500Y-95442500D01*
D27*
%TO.N,GND*%
X168273000Y-90045000D02*
X168023000Y-90295000D01*
X168273000Y-87857500D02*
X168273000Y-90045000D01*
X167773000Y-90545000D02*
X168023000Y-90295000D01*
X167773000Y-92732500D02*
X167773000Y-90545000D01*
D26*
%TO.N,+5V*%
X143137000Y-87791000D02*
X144487000Y-87791000D01*
D27*
%TO.N,Net-(D1-K)*%
X146111500Y-96774000D02*
X146050000Y-96774000D01*
%TD*%
%TA.AperFunction,Conductor*%
%TO.N,GND*%
G36*
X140407042Y-87303500D02*
G01*
X140452797Y-87356304D01*
X140462741Y-87425462D01*
X140457709Y-87446819D01*
X140410494Y-87589302D01*
X140410493Y-87589309D01*
X140400000Y-87692013D01*
X140400000Y-88142000D01*
X141601000Y-88142000D01*
X141668039Y-88161685D01*
X141713794Y-88214489D01*
X141725000Y-88266000D01*
X141725000Y-89791999D01*
X141849972Y-89791999D01*
X141849986Y-89791998D01*
X141952697Y-89781505D01*
X142119119Y-89726358D01*
X142119124Y-89726356D01*
X142268342Y-89634317D01*
X142339596Y-89563063D01*
X142400919Y-89529578D01*
X142470611Y-89534562D01*
X142526545Y-89576433D01*
X142550216Y-89634553D01*
X142551954Y-89647756D01*
X142551956Y-89647762D01*
X142612464Y-89793841D01*
X142648277Y-89840515D01*
X142673470Y-89905684D01*
X142659431Y-89974129D01*
X142648277Y-89991485D01*
X142612464Y-90038158D01*
X142551956Y-90184237D01*
X142551955Y-90184239D01*
X142531318Y-90340998D01*
X142531318Y-90341001D01*
X142551955Y-90497760D01*
X142551956Y-90497762D01*
X142612464Y-90643841D01*
X142648277Y-90690515D01*
X142673470Y-90755684D01*
X142659431Y-90824129D01*
X142648277Y-90841485D01*
X142612464Y-90888158D01*
X142551956Y-91034237D01*
X142551956Y-91034239D01*
X142547438Y-91068555D01*
X142519171Y-91132452D01*
X142460846Y-91170922D01*
X142390981Y-91171753D01*
X142331758Y-91134680D01*
X142301980Y-91071474D01*
X142300499Y-91052369D01*
X142300499Y-90742129D01*
X142300498Y-90742123D01*
X142300497Y-90742116D01*
X142294091Y-90682517D01*
X142283610Y-90654417D01*
X142243797Y-90547671D01*
X142243793Y-90547664D01*
X142157547Y-90432455D01*
X142157544Y-90432452D01*
X142042335Y-90346206D01*
X142042328Y-90346202D01*
X141907486Y-90295910D01*
X141907485Y-90295909D01*
X141907483Y-90295909D01*
X141847873Y-90289500D01*
X141847863Y-90289500D01*
X141102129Y-90289500D01*
X141102123Y-90289501D01*
X141042516Y-90295908D01*
X140907671Y-90346202D01*
X140907664Y-90346206D01*
X140792455Y-90432452D01*
X140792452Y-90432455D01*
X140706206Y-90547664D01*
X140706202Y-90547671D01*
X140655908Y-90682517D01*
X140649501Y-90742116D01*
X140649501Y-90742123D01*
X140649500Y-90742135D01*
X140649500Y-92137870D01*
X140649501Y-92137876D01*
X140655908Y-92197483D01*
X140706202Y-92332328D01*
X140706206Y-92332335D01*
X140792452Y-92447544D01*
X140792455Y-92447547D01*
X140907665Y-92533794D01*
X140907667Y-92533794D01*
X140907669Y-92533796D01*
X140918830Y-92537958D01*
X140974764Y-92579826D01*
X140999184Y-92645289D01*
X140999500Y-92654141D01*
X140999500Y-93221837D01*
X140979815Y-93288876D01*
X140927011Y-93334631D01*
X140857853Y-93344575D01*
X140826602Y-93335789D01*
X140812862Y-93329893D01*
X140623606Y-93291000D01*
X140377000Y-93291000D01*
X140377000Y-93941000D01*
X139877000Y-93941000D01*
X139877000Y-93291000D01*
X139678824Y-93291000D01*
X139534778Y-93305647D01*
X139350438Y-93363484D01*
X139350428Y-93363489D01*
X139181501Y-93457251D01*
X139181494Y-93457256D01*
X139034894Y-93583107D01*
X138916631Y-93735890D01*
X138916629Y-93735894D01*
X138831542Y-93909356D01*
X138810404Y-93991000D01*
X139560889Y-93991000D01*
X139521390Y-94015457D01*
X139453799Y-94104962D01*
X139423105Y-94212840D01*
X139433454Y-94324521D01*
X139483448Y-94424922D01*
X139555931Y-94491000D01*
X138806529Y-94491000D01*
X138869685Y-94661527D01*
X138869687Y-94661531D01*
X138971892Y-94825503D01*
X139105002Y-94965534D01*
X139105003Y-94965535D01*
X139263586Y-95075913D01*
X139441137Y-95152106D01*
X139630394Y-95191000D01*
X139877000Y-95191000D01*
X139877000Y-94541000D01*
X140377000Y-94541000D01*
X140377000Y-95191000D01*
X140575176Y-95191000D01*
X140719221Y-95176352D01*
X140886663Y-95123817D01*
X140956521Y-95122529D01*
X141015985Y-95159214D01*
X141039966Y-95198796D01*
X141048925Y-95222817D01*
X141056204Y-95242331D01*
X141059096Y-95246194D01*
X141072617Y-95268983D01*
X141074619Y-95273367D01*
X141074622Y-95273372D01*
X141074623Y-95273373D01*
X141107144Y-95310904D01*
X141112688Y-95317785D01*
X141120779Y-95328593D01*
X141130333Y-95338147D01*
X141136353Y-95344614D01*
X141168872Y-95382143D01*
X141168874Y-95382145D01*
X141172928Y-95384750D01*
X141193571Y-95401385D01*
X141598614Y-95806428D01*
X141615246Y-95827066D01*
X141617854Y-95831125D01*
X141617857Y-95831128D01*
X141655400Y-95863658D01*
X141661863Y-95869677D01*
X141671407Y-95879221D01*
X141671413Y-95879226D01*
X141671416Y-95879228D01*
X141682207Y-95887306D01*
X141689100Y-95892860D01*
X141693090Y-95896317D01*
X141726627Y-95925377D01*
X141731010Y-95927379D01*
X141753807Y-95940905D01*
X141757669Y-95943796D01*
X141804212Y-95961155D01*
X141812360Y-95964530D01*
X141839673Y-95977004D01*
X141857540Y-95985164D01*
X141857541Y-95985164D01*
X141857543Y-95985165D01*
X141862312Y-95985850D01*
X141888002Y-95992407D01*
X141892517Y-95994091D01*
X141942049Y-95997633D01*
X141950843Y-95998579D01*
X141964201Y-96000500D01*
X141977692Y-96000500D01*
X141986538Y-96000815D01*
X142036073Y-96004359D01*
X142040785Y-96003334D01*
X142067143Y-96000500D01*
X144875500Y-96000500D01*
X144942539Y-96020185D01*
X144988294Y-96072989D01*
X144999500Y-96124500D01*
X144999500Y-97598678D01*
X145014032Y-97671735D01*
X145014033Y-97671739D01*
X145014034Y-97671740D01*
X145069399Y-97754601D01*
X145151263Y-97809300D01*
X145152260Y-97809966D01*
X145152264Y-97809967D01*
X145225321Y-97824499D01*
X145225324Y-97824500D01*
X145225326Y-97824500D01*
X146874676Y-97824500D01*
X146874677Y-97824499D01*
X146947740Y-97809966D01*
X147030601Y-97754601D01*
X147085966Y-97671740D01*
X147100500Y-97598674D01*
X147100500Y-96774000D01*
X152614417Y-96774000D01*
X152634699Y-96979932D01*
X152664734Y-97078944D01*
X152694768Y-97177954D01*
X152792315Y-97360450D01*
X152792317Y-97360452D01*
X152923589Y-97520410D01*
X153000182Y-97583267D01*
X153083550Y-97651685D01*
X153266046Y-97749232D01*
X153464066Y-97809300D01*
X153464065Y-97809300D01*
X153482529Y-97811118D01*
X153670000Y-97829583D01*
X153875934Y-97809300D01*
X154073954Y-97749232D01*
X154256450Y-97651685D01*
X154416410Y-97520410D01*
X154547685Y-97360450D01*
X154645232Y-97177954D01*
X154705300Y-96979934D01*
X154725583Y-96774000D01*
X154705300Y-96568066D01*
X154645232Y-96370046D01*
X154547685Y-96187550D01*
X154472427Y-96095847D01*
X154416410Y-96027589D01*
X154256452Y-95896317D01*
X154256453Y-95896317D01*
X154256450Y-95896315D01*
X154073954Y-95798768D01*
X153875934Y-95738700D01*
X153875932Y-95738699D01*
X153875934Y-95738699D01*
X153670000Y-95718417D01*
X153464067Y-95738699D01*
X153266043Y-95798769D01*
X153205505Y-95831128D01*
X153083550Y-95896315D01*
X153083548Y-95896316D01*
X153083547Y-95896317D01*
X152923589Y-96027589D01*
X152792317Y-96187547D01*
X152694769Y-96370043D01*
X152634699Y-96568067D01*
X152614417Y-96774000D01*
X147100500Y-96774000D01*
X147100500Y-96482674D01*
X147120185Y-96415635D01*
X147136815Y-96394997D01*
X147687928Y-95843883D01*
X147708569Y-95827250D01*
X147712628Y-95824643D01*
X147745160Y-95787096D01*
X147751184Y-95780628D01*
X147754440Y-95777373D01*
X147760720Y-95771093D01*
X147768819Y-95760272D01*
X147774350Y-95753409D01*
X147806877Y-95715873D01*
X147808875Y-95711495D01*
X147822407Y-95688689D01*
X147825296Y-95684831D01*
X147842649Y-95638301D01*
X147846034Y-95630130D01*
X147855823Y-95608696D01*
X147866665Y-95584957D01*
X147867350Y-95580185D01*
X147873909Y-95554492D01*
X147875591Y-95549983D01*
X147879133Y-95500451D01*
X147880080Y-95491648D01*
X147880773Y-95486834D01*
X147882000Y-95478299D01*
X147882000Y-95464808D01*
X147882316Y-95455961D01*
X147886492Y-95397581D01*
X147889198Y-95397774D01*
X147901066Y-95343196D01*
X147935592Y-95303348D01*
X147936327Y-95302797D01*
X147936331Y-95302796D01*
X148051546Y-95216546D01*
X148137796Y-95101331D01*
X148188091Y-94966483D01*
X148194500Y-94906873D01*
X148194499Y-93561128D01*
X148188091Y-93501517D01*
X148186760Y-93497949D01*
X148137797Y-93366671D01*
X148137793Y-93366664D01*
X148051547Y-93251455D01*
X148051544Y-93251452D01*
X147936335Y-93165206D01*
X147936328Y-93165202D01*
X147801486Y-93114910D01*
X147801485Y-93114909D01*
X147801483Y-93114909D01*
X147741873Y-93108500D01*
X147741863Y-93108500D01*
X147021129Y-93108500D01*
X147021123Y-93108501D01*
X146961516Y-93114908D01*
X146826671Y-93165202D01*
X146826664Y-93165206D01*
X146711455Y-93251452D01*
X146711452Y-93251455D01*
X146625206Y-93366664D01*
X146625202Y-93366671D01*
X146574908Y-93501517D01*
X146568501Y-93561116D01*
X146568501Y-93561123D01*
X146568500Y-93561135D01*
X146568500Y-94572113D01*
X146548815Y-94639152D01*
X146496011Y-94684907D01*
X146426853Y-94694851D01*
X146363297Y-94665826D01*
X146342450Y-94642553D01*
X146340102Y-94639152D01*
X146286483Y-94561470D01*
X146168240Y-94456717D01*
X146168238Y-94456716D01*
X146168237Y-94456715D01*
X146028365Y-94383303D01*
X145874986Y-94345500D01*
X145874985Y-94345500D01*
X145717015Y-94345500D01*
X145717014Y-94345500D01*
X145563634Y-94383303D01*
X145423762Y-94456715D01*
X145411220Y-94467826D01*
X145371181Y-94503298D01*
X145358798Y-94514268D01*
X145295564Y-94543989D01*
X145226301Y-94534805D01*
X145178515Y-94497353D01*
X145173597Y-94491000D01*
X144423111Y-94491000D01*
X144462610Y-94466543D01*
X144530201Y-94377038D01*
X144560895Y-94269160D01*
X144550546Y-94157479D01*
X144500552Y-94057078D01*
X144428069Y-93991000D01*
X145177471Y-93991000D01*
X145114314Y-93820472D01*
X145114312Y-93820468D01*
X145012110Y-93656500D01*
X145012108Y-93656498D01*
X144998602Y-93642290D01*
X144973616Y-93641973D01*
X144968027Y-93645026D01*
X144898335Y-93640042D01*
X144853988Y-93611541D01*
X144221127Y-92978680D01*
X144198176Y-92936649D01*
X144287000Y-92936649D01*
X144326613Y-93018905D01*
X144397992Y-93075827D01*
X144464468Y-93091000D01*
X144509532Y-93091000D01*
X144576008Y-93075827D01*
X144647387Y-93018905D01*
X144687000Y-92936649D01*
X144687000Y-92891000D01*
X144840553Y-92891000D01*
X145238651Y-93289099D01*
X145238652Y-93289099D01*
X145267790Y-93238631D01*
X145323003Y-93068702D01*
X145323004Y-93068700D01*
X145341681Y-92891000D01*
X145323004Y-92713299D01*
X145323003Y-92713297D01*
X145267793Y-92543375D01*
X145267790Y-92543369D01*
X145238651Y-92492899D01*
X145108712Y-92622838D01*
X145085932Y-92635276D01*
X145081303Y-92648154D01*
X145068840Y-92662712D01*
X144840553Y-92891000D01*
X144687000Y-92891000D01*
X144687000Y-92845351D01*
X144647387Y-92763095D01*
X144576008Y-92706173D01*
X144509532Y-92691000D01*
X144464468Y-92691000D01*
X144397992Y-92706173D01*
X144326613Y-92763095D01*
X144287000Y-92845351D01*
X144287000Y-92936649D01*
X144198176Y-92936649D01*
X144187642Y-92917357D01*
X144192626Y-92847665D01*
X144221127Y-92803318D01*
X144347232Y-92677213D01*
X144408555Y-92643728D01*
X144451095Y-92641955D01*
X144487000Y-92646682D01*
X144643762Y-92626044D01*
X144789841Y-92565536D01*
X144905672Y-92476655D01*
X144913589Y-92473594D01*
X144922647Y-92459683D01*
X145011536Y-92343841D01*
X145072044Y-92197762D01*
X145092682Y-92041000D01*
X145090038Y-92020919D01*
X145077968Y-91929234D01*
X145072044Y-91884238D01*
X145038326Y-91802836D01*
X145011538Y-91738163D01*
X145011535Y-91738157D01*
X144975723Y-91691487D01*
X144950528Y-91626318D01*
X144964566Y-91557873D01*
X144975723Y-91540513D01*
X144987380Y-91525322D01*
X145011536Y-91493841D01*
X145072044Y-91347762D01*
X145092682Y-91191000D01*
X145092550Y-91190000D01*
X145072044Y-91034239D01*
X145072043Y-91034237D01*
X145023838Y-90917859D01*
X145011538Y-90888163D01*
X145011535Y-90888157D01*
X144982497Y-90850315D01*
X144975722Y-90841485D01*
X144950528Y-90776318D01*
X144964566Y-90707873D01*
X144975723Y-90690513D01*
X144981860Y-90682516D01*
X145011536Y-90643841D01*
X145072044Y-90497762D01*
X145082647Y-90417220D01*
X145110911Y-90353326D01*
X145117892Y-90345738D01*
X146228889Y-89234741D01*
X146248746Y-89218617D01*
X146257836Y-89212679D01*
X146277271Y-89187707D01*
X146287456Y-89176176D01*
X146287456Y-89176175D01*
X146287519Y-89176113D01*
X146299630Y-89159148D01*
X146302627Y-89155129D01*
X146334809Y-89113784D01*
X146334811Y-89113776D01*
X146338547Y-89106873D01*
X146342006Y-89099798D01*
X146342010Y-89099794D01*
X146356942Y-89049636D01*
X146358486Y-89044813D01*
X146375500Y-88995255D01*
X146375500Y-88995253D01*
X146375501Y-88995251D01*
X146376791Y-88987519D01*
X146377768Y-88979681D01*
X146375606Y-88927402D01*
X146375500Y-88922278D01*
X146375500Y-88206899D01*
X146395185Y-88139860D01*
X146411819Y-88119218D01*
X146656034Y-87875003D01*
X146901938Y-87629098D01*
X146963259Y-87595615D01*
X147032950Y-87600599D01*
X147088884Y-87642470D01*
X147113301Y-87707935D01*
X147105799Y-87760113D01*
X147057909Y-87888514D01*
X147057908Y-87888516D01*
X147051727Y-87946013D01*
X147051501Y-87948123D01*
X147051500Y-87948135D01*
X147051500Y-89343870D01*
X147051501Y-89343876D01*
X147057908Y-89403483D01*
X147108202Y-89538328D01*
X147108206Y-89538335D01*
X147194452Y-89653544D01*
X147194455Y-89653547D01*
X147309664Y-89739793D01*
X147309673Y-89739798D01*
X147419690Y-89780831D01*
X147475624Y-89822701D01*
X147500042Y-89888166D01*
X147485191Y-89956439D01*
X147455023Y-89992866D01*
X147325590Y-90099089D01*
X147194317Y-90259047D01*
X147194315Y-90259050D01*
X147177879Y-90289799D01*
X147096769Y-90441543D01*
X147036699Y-90639567D01*
X147026346Y-90744690D01*
X147021500Y-90793892D01*
X147021500Y-91697108D01*
X147025544Y-91738163D01*
X147036699Y-91851432D01*
X147052242Y-91902670D01*
X147096768Y-92049454D01*
X147194315Y-92231950D01*
X147194317Y-92231952D01*
X147325589Y-92391910D01*
X147412434Y-92463181D01*
X147485550Y-92523185D01*
X147668046Y-92620732D01*
X147866066Y-92680800D01*
X147866065Y-92680800D01*
X147881448Y-92682315D01*
X148072000Y-92701083D01*
X148277934Y-92680800D01*
X148475954Y-92620732D01*
X148658450Y-92523185D01*
X148818410Y-92391910D01*
X148949685Y-92231950D01*
X149047232Y-92049454D01*
X149094891Y-91892339D01*
X149133187Y-91833903D01*
X149196999Y-91805446D01*
X149266066Y-91816005D01*
X149318460Y-91862229D01*
X149333326Y-91896242D01*
X149385731Y-92091819D01*
X149385734Y-92091826D01*
X149481865Y-92297982D01*
X149612342Y-92484320D01*
X149773179Y-92645157D01*
X149959517Y-92775633D01*
X150166429Y-92872118D01*
X150218868Y-92918290D01*
X150238020Y-92985484D01*
X150217804Y-93052365D01*
X150164639Y-93097699D01*
X150114025Y-93108500D01*
X149946130Y-93108500D01*
X149946123Y-93108501D01*
X149886516Y-93114908D01*
X149751671Y-93165202D01*
X149751664Y-93165206D01*
X149636455Y-93251452D01*
X149636452Y-93251455D01*
X149550206Y-93366664D01*
X149550202Y-93366671D01*
X149499908Y-93501517D01*
X149493501Y-93561116D01*
X149493501Y-93561123D01*
X149493500Y-93561135D01*
X149493500Y-94906870D01*
X149493501Y-94906876D01*
X149499908Y-94966483D01*
X149550202Y-95101328D01*
X149550206Y-95101335D01*
X149636452Y-95216544D01*
X149636455Y-95216547D01*
X149751664Y-95302793D01*
X149751671Y-95302797D01*
X149782084Y-95314140D01*
X149886517Y-95353091D01*
X149946127Y-95359500D01*
X150666872Y-95359499D01*
X150726483Y-95353091D01*
X150861331Y-95302796D01*
X150976546Y-95216546D01*
X151014246Y-95166185D01*
X157841579Y-95166185D01*
X157862109Y-95413944D01*
X157923141Y-95654957D01*
X158023009Y-95882633D01*
X158158987Y-96090764D01*
X158158990Y-96090767D01*
X158327374Y-96273681D01*
X158327377Y-96273683D01*
X158327380Y-96273686D01*
X158523558Y-96426378D01*
X158523564Y-96426382D01*
X158523567Y-96426384D01*
X158742219Y-96544713D01*
X158850413Y-96581856D01*
X158977362Y-96625438D01*
X158977364Y-96625438D01*
X158977366Y-96625439D01*
X159222592Y-96666360D01*
X159222593Y-96666360D01*
X159471207Y-96666360D01*
X159471208Y-96666360D01*
X159716434Y-96625439D01*
X159951581Y-96544713D01*
X160170233Y-96426384D01*
X160184044Y-96415635D01*
X160242620Y-96370043D01*
X160366426Y-96273681D01*
X160534810Y-96090767D01*
X160670790Y-95882634D01*
X160770659Y-95654957D01*
X160831690Y-95413948D01*
X160841868Y-95291116D01*
X160852221Y-95166185D01*
X160852221Y-95166174D01*
X160838119Y-94996000D01*
X160831690Y-94918412D01*
X160770659Y-94677403D01*
X160670790Y-94449726D01*
X160640660Y-94403608D01*
X160534812Y-94241595D01*
X160478271Y-94180175D01*
X160366426Y-94058679D01*
X160366421Y-94058675D01*
X160366419Y-94058673D01*
X160170241Y-93905981D01*
X160170235Y-93905977D01*
X159951581Y-93787647D01*
X159951573Y-93787644D01*
X159716437Y-93706921D01*
X159532514Y-93676230D01*
X159471208Y-93666000D01*
X159222592Y-93666000D01*
X159173546Y-93674184D01*
X158977362Y-93706921D01*
X158742226Y-93787644D01*
X158742218Y-93787647D01*
X158523564Y-93905977D01*
X158523558Y-93905981D01*
X158327380Y-94058673D01*
X158327377Y-94058676D01*
X158327374Y-94058678D01*
X158327374Y-94058679D01*
X158305471Y-94082472D01*
X158158987Y-94241595D01*
X158023009Y-94449726D01*
X157923141Y-94677402D01*
X157862109Y-94918415D01*
X157841579Y-95166174D01*
X157841579Y-95166185D01*
X151014246Y-95166185D01*
X151062796Y-95101331D01*
X151113091Y-94966483D01*
X151119500Y-94906873D01*
X151119499Y-94180174D01*
X151139183Y-94113136D01*
X151155813Y-94092499D01*
X151711495Y-93536819D01*
X151772818Y-93503334D01*
X151799176Y-93500500D01*
X156932857Y-93500500D01*
X156959215Y-93503334D01*
X156963927Y-93504359D01*
X157013461Y-93500815D01*
X157022308Y-93500500D01*
X157035799Y-93500500D01*
X157049156Y-93498579D01*
X157057951Y-93497633D01*
X157107483Y-93494091D01*
X157111992Y-93492408D01*
X157137685Y-93485850D01*
X157142457Y-93485165D01*
X157187637Y-93464530D01*
X157195801Y-93461149D01*
X157242331Y-93443796D01*
X157246189Y-93440907D01*
X157268995Y-93427375D01*
X157273373Y-93425377D01*
X157310899Y-93392859D01*
X157317778Y-93387316D01*
X157328593Y-93379221D01*
X157338155Y-93369658D01*
X157344605Y-93363653D01*
X157382143Y-93331128D01*
X157384751Y-93327068D01*
X157401381Y-93306431D01*
X160000994Y-90706819D01*
X160062317Y-90673334D01*
X160088675Y-90670500D01*
X160346630Y-90670500D01*
X160413669Y-90690185D01*
X160459424Y-90742989D01*
X160460186Y-90744690D01*
X160522369Y-90886453D01*
X160658347Y-91094584D01*
X160658350Y-91094587D01*
X160826734Y-91277501D01*
X160826737Y-91277503D01*
X160826740Y-91277506D01*
X161022918Y-91430198D01*
X161022924Y-91430202D01*
X161022927Y-91430204D01*
X161241579Y-91548533D01*
X161268786Y-91557873D01*
X161476722Y-91629258D01*
X161476724Y-91629258D01*
X161476726Y-91629259D01*
X161721952Y-91670180D01*
X161721953Y-91670180D01*
X161970567Y-91670180D01*
X161970568Y-91670180D01*
X162215794Y-91629259D01*
X162450941Y-91548533D01*
X162669593Y-91430204D01*
X162865786Y-91277501D01*
X163034170Y-91094587D01*
X163170150Y-90886454D01*
X163216944Y-90779774D01*
X163261900Y-90726289D01*
X163328636Y-90705599D01*
X163395964Y-90724274D01*
X163442507Y-90776384D01*
X163454500Y-90829585D01*
X163454500Y-94182196D01*
X163451862Y-94207634D01*
X163449633Y-94218268D01*
X163449633Y-94218270D01*
X163453548Y-94249675D01*
X163454500Y-94265013D01*
X163454500Y-94265116D01*
X163457918Y-94285603D01*
X163458657Y-94290669D01*
X163465134Y-94342627D01*
X163467373Y-94350147D01*
X163469935Y-94357611D01*
X163494827Y-94403608D01*
X163497171Y-94408161D01*
X163520172Y-94455208D01*
X163524742Y-94461609D01*
X163529581Y-94467826D01*
X163568108Y-94503293D01*
X163571780Y-94506817D01*
X164510416Y-95445453D01*
X164543901Y-95506776D01*
X164546025Y-95546387D01*
X164545154Y-95554492D01*
X164541001Y-95593123D01*
X164541000Y-95593130D01*
X164541000Y-96938870D01*
X164541001Y-96938876D01*
X164547408Y-96998483D01*
X164597702Y-97133328D01*
X164597706Y-97133335D01*
X164683952Y-97248544D01*
X164683955Y-97248547D01*
X164799164Y-97334793D01*
X164799171Y-97334797D01*
X164844118Y-97351561D01*
X164934017Y-97385091D01*
X164993627Y-97391500D01*
X165714372Y-97391499D01*
X165773983Y-97385091D01*
X165908831Y-97334796D01*
X166024046Y-97248546D01*
X166110296Y-97133331D01*
X166160591Y-96998483D01*
X166167000Y-96938873D01*
X166166999Y-95593128D01*
X166160591Y-95533517D01*
X166154914Y-95518297D01*
X166110297Y-95398671D01*
X166110293Y-95398664D01*
X166024047Y-95283455D01*
X166024044Y-95283452D01*
X165908835Y-95197206D01*
X165908828Y-95197202D01*
X165773982Y-95146908D01*
X165773983Y-95146908D01*
X165714383Y-95140501D01*
X165714381Y-95140500D01*
X165714373Y-95140500D01*
X165714365Y-95140500D01*
X165318900Y-95140500D01*
X165251861Y-95120815D01*
X165231219Y-95104181D01*
X164241819Y-94114781D01*
X164208334Y-94053458D01*
X164205500Y-94027100D01*
X164205500Y-93297795D01*
X164225185Y-93230756D01*
X164237102Y-93220429D01*
X164207179Y-93158543D01*
X164205500Y-93138204D01*
X164205500Y-91619035D01*
X164225185Y-91551996D01*
X164277989Y-91506241D01*
X164347147Y-91496297D01*
X164410703Y-91525322D01*
X164417174Y-91531347D01*
X164553885Y-91668059D01*
X164659714Y-91773888D01*
X164675839Y-91793744D01*
X164676660Y-91795000D01*
X164681780Y-91802836D01*
X164706757Y-91822276D01*
X164718282Y-91832456D01*
X164718348Y-91832522D01*
X164735261Y-91844597D01*
X164739373Y-91847662D01*
X164758089Y-91862229D01*
X164780675Y-91879809D01*
X164780677Y-91879809D01*
X164787584Y-91883547D01*
X164794660Y-91887006D01*
X164794665Y-91887010D01*
X164808878Y-91891241D01*
X164867515Y-91929234D01*
X164896303Y-91992898D01*
X164897500Y-92010086D01*
X164897500Y-92144180D01*
X164903500Y-92189756D01*
X164903502Y-92189763D01*
X164950150Y-92289799D01*
X165031488Y-92371137D01*
X165064973Y-92432460D01*
X165059989Y-92502152D01*
X165018117Y-92558085D01*
X164973482Y-92579215D01*
X164867633Y-92605304D01*
X164727762Y-92678715D01*
X164675806Y-92724744D01*
X164619803Y-92774358D01*
X164609516Y-92783471D01*
X164519781Y-92913475D01*
X164519780Y-92913476D01*
X164463762Y-93061181D01*
X164452596Y-93153150D01*
X164424974Y-93217328D01*
X164420956Y-93220036D01*
X164448477Y-93262860D01*
X164452596Y-93282849D01*
X164463762Y-93374818D01*
X164512891Y-93504358D01*
X164519780Y-93522523D01*
X164609517Y-93652530D01*
X164727760Y-93757283D01*
X164727762Y-93757284D01*
X164867634Y-93830696D01*
X165021014Y-93868500D01*
X165021015Y-93868500D01*
X165178985Y-93868500D01*
X165332365Y-93830696D01*
X165351845Y-93820472D01*
X165472240Y-93757283D01*
X165590483Y-93652530D01*
X165657089Y-93556033D01*
X165711371Y-93512043D01*
X165780820Y-93504383D01*
X165834626Y-93528097D01*
X165926824Y-93598843D01*
X166063657Y-93655521D01*
X166063665Y-93655523D01*
X166147998Y-93666625D01*
X166148000Y-93666624D01*
X166148000Y-92731500D01*
X166167685Y-92664461D01*
X166220489Y-92618706D01*
X166272000Y-92607500D01*
X166273500Y-92607500D01*
X166340539Y-92627185D01*
X166386294Y-92679989D01*
X166397500Y-92731500D01*
X166397500Y-93144186D01*
X166397734Y-93147741D01*
X166398000Y-93155851D01*
X166398000Y-93666624D01*
X166398001Y-93666625D01*
X166482334Y-93655523D01*
X166482342Y-93655521D01*
X166619175Y-93598843D01*
X166698013Y-93538349D01*
X166763182Y-93513155D01*
X166831627Y-93527193D01*
X166881617Y-93576007D01*
X166897500Y-93636725D01*
X166897500Y-95208196D01*
X166894862Y-95233634D01*
X166892633Y-95244268D01*
X166892633Y-95244270D01*
X166896548Y-95275675D01*
X166897500Y-95291013D01*
X166897500Y-95291116D01*
X166900918Y-95311603D01*
X166901657Y-95316669D01*
X166908134Y-95368627D01*
X166910373Y-95376147D01*
X166912935Y-95383611D01*
X166937827Y-95429608D01*
X166940171Y-95434161D01*
X166963172Y-95481208D01*
X166967742Y-95487609D01*
X166972581Y-95493826D01*
X167011107Y-95529292D01*
X167014779Y-95532816D01*
X167429681Y-95947718D01*
X167463166Y-96009041D01*
X167466000Y-96035399D01*
X167466000Y-96938870D01*
X167466001Y-96938876D01*
X167472408Y-96998483D01*
X167522702Y-97133328D01*
X167522706Y-97133335D01*
X167608952Y-97248544D01*
X167608955Y-97248547D01*
X167724164Y-97334793D01*
X167724171Y-97334797D01*
X167769118Y-97351561D01*
X167859017Y-97385091D01*
X167918627Y-97391500D01*
X168639372Y-97391499D01*
X168698983Y-97385091D01*
X168833831Y-97334796D01*
X168949046Y-97248546D01*
X169035296Y-97133331D01*
X169085591Y-96998483D01*
X169092000Y-96938873D01*
X169092000Y-96890500D01*
X169111685Y-96823461D01*
X169164489Y-96777706D01*
X169216000Y-96766500D01*
X169666857Y-96766500D01*
X169693215Y-96769334D01*
X169697927Y-96770359D01*
X169747461Y-96766815D01*
X169756308Y-96766500D01*
X169769799Y-96766500D01*
X169783156Y-96764579D01*
X169791951Y-96763633D01*
X169841483Y-96760091D01*
X169845992Y-96758408D01*
X169871685Y-96751850D01*
X169876457Y-96751165D01*
X169921637Y-96730530D01*
X169929801Y-96727149D01*
X169976331Y-96709796D01*
X169980189Y-96706907D01*
X170002995Y-96693375D01*
X170007373Y-96691377D01*
X170044899Y-96658859D01*
X170051778Y-96653316D01*
X170062593Y-96645221D01*
X170072155Y-96635658D01*
X170078605Y-96629653D01*
X170116143Y-96597128D01*
X170118751Y-96593068D01*
X170135381Y-96572431D01*
X170450451Y-96257361D01*
X170471088Y-96240731D01*
X170475148Y-96238123D01*
X170507673Y-96200585D01*
X170513678Y-96194135D01*
X170523241Y-96184573D01*
X170529886Y-96175694D01*
X170585818Y-96133820D01*
X170655509Y-96128832D01*
X170716834Y-96162314D01*
X170720361Y-96165990D01*
X170824174Y-96278761D01*
X170824177Y-96278763D01*
X170824180Y-96278766D01*
X171020358Y-96431458D01*
X171020364Y-96431462D01*
X171020367Y-96431464D01*
X171239019Y-96549793D01*
X171361122Y-96591711D01*
X171474162Y-96630518D01*
X171474164Y-96630518D01*
X171474166Y-96630519D01*
X171719392Y-96671440D01*
X171719393Y-96671440D01*
X171968007Y-96671440D01*
X171968008Y-96671440D01*
X172213234Y-96630519D01*
X172448381Y-96549793D01*
X172667033Y-96431464D01*
X172673563Y-96426382D01*
X172745947Y-96370043D01*
X172863226Y-96278761D01*
X173031610Y-96095847D01*
X173167590Y-95887714D01*
X173243944Y-95713644D01*
X173288900Y-95660159D01*
X173355636Y-95639469D01*
X173422964Y-95658144D01*
X173469507Y-95710254D01*
X173481500Y-95763455D01*
X173481500Y-99189500D01*
X173461815Y-99256539D01*
X173409011Y-99302294D01*
X173357500Y-99313500D01*
X162943424Y-99313500D01*
X162876385Y-99293815D01*
X162830630Y-99241011D01*
X162820686Y-99171853D01*
X162849711Y-99108297D01*
X162873572Y-99087046D01*
X162897737Y-99070570D01*
X162134094Y-98306927D01*
X162175793Y-98291113D01*
X162315393Y-98194755D01*
X162427876Y-98067787D01*
X162487828Y-97953556D01*
X163250696Y-98716424D01*
X163250697Y-98716423D01*
X163298500Y-98656482D01*
X163298507Y-98656471D01*
X163429625Y-98429368D01*
X163525434Y-98185253D01*
X163525437Y-98185241D01*
X163583789Y-97929584D01*
X163603386Y-97668084D01*
X163603386Y-97668075D01*
X163583789Y-97406575D01*
X163525437Y-97150918D01*
X163525434Y-97150906D01*
X163429625Y-96906791D01*
X163298504Y-96679683D01*
X163250697Y-96619734D01*
X162487828Y-97382603D01*
X162427876Y-97268373D01*
X162315393Y-97141405D01*
X162175793Y-97045047D01*
X162134094Y-97029232D01*
X162897737Y-96265588D01*
X162726093Y-96148564D01*
X162726085Y-96148559D01*
X162489824Y-96034783D01*
X162489826Y-96034783D01*
X162239240Y-95957487D01*
X162239234Y-95957486D01*
X161979925Y-95918400D01*
X161717674Y-95918400D01*
X161458365Y-95957486D01*
X161458359Y-95957487D01*
X161207774Y-96034783D01*
X160971512Y-96148561D01*
X160971499Y-96148568D01*
X160799861Y-96265587D01*
X161563506Y-97029232D01*
X161521807Y-97045047D01*
X161382207Y-97141405D01*
X161269724Y-97268373D01*
X161209770Y-97382603D01*
X160446902Y-96619735D01*
X160399093Y-96679686D01*
X160267974Y-96906791D01*
X160172165Y-97150906D01*
X160172162Y-97150918D01*
X160113810Y-97406575D01*
X160094214Y-97668075D01*
X160094214Y-97668084D01*
X160113810Y-97929584D01*
X160172162Y-98185241D01*
X160172165Y-98185253D01*
X160267974Y-98429368D01*
X160399095Y-98656476D01*
X160446901Y-98716424D01*
X161209770Y-97953555D01*
X161269724Y-98067787D01*
X161382207Y-98194755D01*
X161521807Y-98291113D01*
X161563505Y-98306927D01*
X160799861Y-99070570D01*
X160824027Y-99087046D01*
X160868329Y-99141075D01*
X160876388Y-99210478D01*
X160845645Y-99273221D01*
X160785861Y-99309383D01*
X160754175Y-99313500D01*
X148201007Y-99313500D01*
X148155404Y-99304810D01*
X137762897Y-95194724D01*
X137707795Y-95151764D01*
X137684666Y-95085833D01*
X137684500Y-95079414D01*
X137684500Y-92875405D01*
X137704185Y-92808366D01*
X137756989Y-92762611D01*
X137826147Y-92752667D01*
X137873600Y-92769868D01*
X137880876Y-92774356D01*
X137880880Y-92774358D01*
X138047302Y-92829505D01*
X138047309Y-92829506D01*
X138150019Y-92839999D01*
X138274999Y-92839999D01*
X138275000Y-92839998D01*
X138275000Y-91690000D01*
X138775000Y-91690000D01*
X138775000Y-92839999D01*
X138899972Y-92839999D01*
X138899986Y-92839998D01*
X139002697Y-92829505D01*
X139169119Y-92774358D01*
X139169124Y-92774356D01*
X139318345Y-92682315D01*
X139442315Y-92558345D01*
X139534356Y-92409124D01*
X139534358Y-92409119D01*
X139589505Y-92242697D01*
X139589506Y-92242690D01*
X139599999Y-92139986D01*
X139600000Y-92139973D01*
X139600000Y-91690000D01*
X138775000Y-91690000D01*
X138275000Y-91690000D01*
X138275000Y-90040000D01*
X138775000Y-90040000D01*
X138775000Y-91190000D01*
X139599999Y-91190000D01*
X139599999Y-90740028D01*
X139599998Y-90740013D01*
X139589505Y-90637302D01*
X139534358Y-90470880D01*
X139534356Y-90470875D01*
X139442315Y-90321654D01*
X139318345Y-90197684D01*
X139169124Y-90105643D01*
X139169119Y-90105641D01*
X139002697Y-90050494D01*
X139002690Y-90050493D01*
X138899986Y-90040000D01*
X138775000Y-90040000D01*
X138275000Y-90040000D01*
X138150027Y-90040000D01*
X138150012Y-90040001D01*
X138047302Y-90050494D01*
X137880880Y-90105641D01*
X137880868Y-90105647D01*
X137873594Y-90110134D01*
X137806201Y-90128573D01*
X137739538Y-90107649D01*
X137694770Y-90054006D01*
X137684500Y-90004594D01*
X137684500Y-89529023D01*
X137704185Y-89461984D01*
X137756989Y-89416229D01*
X137826147Y-89406285D01*
X137882808Y-89429755D01*
X137957665Y-89485793D01*
X137957668Y-89485795D01*
X137957671Y-89485797D01*
X138002455Y-89502500D01*
X138092517Y-89536091D01*
X138152127Y-89542500D01*
X138897872Y-89542499D01*
X138957483Y-89536091D01*
X139092331Y-89485796D01*
X139207546Y-89399546D01*
X139293796Y-89284331D01*
X139344091Y-89149483D01*
X139350500Y-89089873D01*
X139350500Y-88642000D01*
X140400001Y-88642000D01*
X140400001Y-89091986D01*
X140410494Y-89194697D01*
X140465641Y-89361119D01*
X140465643Y-89361124D01*
X140557684Y-89510345D01*
X140681654Y-89634315D01*
X140830875Y-89726356D01*
X140830880Y-89726358D01*
X140997302Y-89781505D01*
X140997309Y-89781506D01*
X141100019Y-89791999D01*
X141224999Y-89791999D01*
X141225000Y-89791998D01*
X141225000Y-88642000D01*
X140400001Y-88642000D01*
X139350500Y-88642000D01*
X139350499Y-87975174D01*
X139370184Y-87908136D01*
X139386813Y-87887499D01*
X139954179Y-87320134D01*
X140015502Y-87286649D01*
X140041860Y-87283815D01*
X140340003Y-87283815D01*
X140407042Y-87303500D01*
G37*
%TD.AperFunction*%
%TA.AperFunction,Conductor*%
G36*
X171353699Y-88522201D02*
G01*
X171360180Y-88528235D01*
X171963181Y-89131236D01*
X171996666Y-89192559D01*
X171999500Y-89218917D01*
X171999500Y-92847080D01*
X171979815Y-92914119D01*
X171927011Y-92959874D01*
X171875500Y-92971080D01*
X171206812Y-92971080D01*
X171180454Y-92968246D01*
X171175743Y-92967221D01*
X171175739Y-92967221D01*
X171126208Y-92970764D01*
X171117361Y-92971080D01*
X171103869Y-92971080D01*
X171097732Y-92971962D01*
X171090509Y-92973000D01*
X171081723Y-92973945D01*
X171032185Y-92977489D01*
X171032182Y-92977490D01*
X171027655Y-92979178D01*
X171001996Y-92985726D01*
X170997219Y-92986413D01*
X170997212Y-92986415D01*
X170952034Y-93007046D01*
X170943860Y-93010431D01*
X170897344Y-93027780D01*
X170897337Y-93027784D01*
X170893469Y-93030680D01*
X170870688Y-93044196D01*
X170866296Y-93046203D01*
X170849010Y-93061181D01*
X170828767Y-93078721D01*
X170821888Y-93084264D01*
X170811078Y-93092357D01*
X170801529Y-93101905D01*
X170795064Y-93107923D01*
X170757528Y-93140450D01*
X170757525Y-93140453D01*
X170754914Y-93144516D01*
X170738284Y-93165150D01*
X170601558Y-93301876D01*
X170540235Y-93335361D01*
X170470543Y-93330377D01*
X170414610Y-93288505D01*
X170390193Y-93223041D01*
X170390938Y-93198009D01*
X170397999Y-93144377D01*
X170398000Y-93144363D01*
X170398000Y-92857500D01*
X169898000Y-92857500D01*
X169898000Y-93666624D01*
X169898001Y-93666625D01*
X169926011Y-93662938D01*
X169995047Y-93673704D01*
X170047302Y-93720085D01*
X170066186Y-93787354D01*
X170045704Y-93854154D01*
X170029876Y-93873558D01*
X169837588Y-94065845D01*
X169816958Y-94082472D01*
X169812896Y-94085083D01*
X169812887Y-94085090D01*
X169780373Y-94122613D01*
X169774349Y-94129083D01*
X169764800Y-94138632D01*
X169756698Y-94149455D01*
X169751152Y-94156337D01*
X169718644Y-94193854D01*
X169718637Y-94193865D01*
X169716635Y-94198249D01*
X169703120Y-94221028D01*
X169700226Y-94224893D01*
X169700220Y-94224904D01*
X169682871Y-94271420D01*
X169679486Y-94279594D01*
X169658855Y-94324772D01*
X169658853Y-94324779D01*
X169658166Y-94329556D01*
X169651618Y-94355215D01*
X169649930Y-94359742D01*
X169649929Y-94359745D01*
X169646385Y-94409283D01*
X169645440Y-94418074D01*
X169643520Y-94431429D01*
X169643520Y-94444919D01*
X169643204Y-94453766D01*
X169639661Y-94503298D01*
X169639661Y-94503302D01*
X169640686Y-94508014D01*
X169643520Y-94534372D01*
X169643520Y-95597304D01*
X169623835Y-95664343D01*
X169607201Y-95684985D01*
X169563005Y-95729181D01*
X169501682Y-95762666D01*
X169475324Y-95765500D01*
X169215999Y-95765500D01*
X169148960Y-95745815D01*
X169103205Y-95693011D01*
X169091999Y-95641500D01*
X169091999Y-95593129D01*
X169091998Y-95593123D01*
X169091120Y-95584957D01*
X169085591Y-95533517D01*
X169079914Y-95518297D01*
X169035297Y-95398671D01*
X169035293Y-95398664D01*
X168949047Y-95283455D01*
X168949044Y-95283452D01*
X168833835Y-95197206D01*
X168833828Y-95197202D01*
X168698986Y-95146910D01*
X168698985Y-95146909D01*
X168698983Y-95146909D01*
X168639373Y-95140500D01*
X168639363Y-95140500D01*
X167918629Y-95140500D01*
X167918623Y-95140501D01*
X167859015Y-95146909D01*
X167815832Y-95163015D01*
X167746141Y-95167999D01*
X167684818Y-95134513D01*
X167651334Y-95073190D01*
X167648500Y-95046833D01*
X167648500Y-92731500D01*
X167668185Y-92664461D01*
X167720989Y-92618706D01*
X167772500Y-92607500D01*
X167773500Y-92607500D01*
X167840539Y-92627185D01*
X167886294Y-92679989D01*
X167897500Y-92731500D01*
X167897500Y-93144186D01*
X167897734Y-93147741D01*
X167898000Y-93155851D01*
X167898000Y-93666624D01*
X167898001Y-93666625D01*
X167982334Y-93655523D01*
X167982342Y-93655521D01*
X168119175Y-93598843D01*
X168236681Y-93508678D01*
X168267117Y-93469013D01*
X168323545Y-93427810D01*
X168365492Y-93420499D01*
X168372178Y-93420499D01*
X168372180Y-93420499D01*
X168387372Y-93418499D01*
X168417760Y-93414499D01*
X168470597Y-93389860D01*
X168539671Y-93379369D01*
X168575401Y-93389859D01*
X168628240Y-93414499D01*
X168673821Y-93420500D01*
X168872178Y-93420499D01*
X168872180Y-93420499D01*
X168887372Y-93418499D01*
X168917760Y-93414499D01*
X168970597Y-93389860D01*
X169039671Y-93379369D01*
X169075401Y-93389859D01*
X169128240Y-93414499D01*
X169173821Y-93420500D01*
X169180498Y-93420499D01*
X169247537Y-93440177D01*
X169278883Y-93469013D01*
X169309318Y-93508678D01*
X169426824Y-93598843D01*
X169563657Y-93655521D01*
X169563665Y-93655523D01*
X169647998Y-93666625D01*
X169648000Y-93666624D01*
X169648000Y-93155868D01*
X169648265Y-93147759D01*
X169648497Y-93144199D01*
X169648500Y-93144179D01*
X169648499Y-92731498D01*
X169668183Y-92664461D01*
X169720987Y-92618706D01*
X169772499Y-92607500D01*
X170398000Y-92607500D01*
X170398000Y-92544499D01*
X170417685Y-92477460D01*
X170470489Y-92431705D01*
X170521998Y-92420499D01*
X170872178Y-92420499D01*
X170872180Y-92420499D01*
X170887372Y-92418499D01*
X170917760Y-92414499D01*
X171017799Y-92367850D01*
X171095850Y-92289799D01*
X171142499Y-92189760D01*
X171148500Y-92144179D01*
X171148499Y-91945822D01*
X171142499Y-91900240D01*
X171117860Y-91847403D01*
X171107369Y-91778327D01*
X171117858Y-91742601D01*
X171142499Y-91689760D01*
X171148500Y-91644179D01*
X171148499Y-91445822D01*
X171147540Y-91438539D01*
X171142499Y-91400243D01*
X171142499Y-91400240D01*
X171117860Y-91347403D01*
X171107369Y-91278327D01*
X171117858Y-91242601D01*
X171142499Y-91189760D01*
X171148500Y-91144179D01*
X171148499Y-90945822D01*
X171142499Y-90900240D01*
X171117860Y-90847403D01*
X171107369Y-90778327D01*
X171117858Y-90742601D01*
X171142499Y-90689760D01*
X171148500Y-90644179D01*
X171148499Y-90445822D01*
X171146739Y-90432455D01*
X171142499Y-90400243D01*
X171142499Y-90400240D01*
X171117860Y-90347403D01*
X171107369Y-90278327D01*
X171117858Y-90242601D01*
X171142499Y-90189760D01*
X171148500Y-90144179D01*
X171148499Y-89945822D01*
X171142499Y-89900240D01*
X171117860Y-89847403D01*
X171107369Y-89778327D01*
X171117858Y-89742601D01*
X171142499Y-89689760D01*
X171148500Y-89644179D01*
X171148499Y-89445822D01*
X171142499Y-89400240D01*
X171117860Y-89347403D01*
X171107369Y-89278327D01*
X171117858Y-89242601D01*
X171142499Y-89189760D01*
X171148500Y-89144179D01*
X171148499Y-88945822D01*
X171148238Y-88943842D01*
X171143419Y-88907230D01*
X171142499Y-88900240D01*
X171117860Y-88847403D01*
X171107369Y-88778327D01*
X171117858Y-88742601D01*
X171142499Y-88689760D01*
X171148500Y-88644179D01*
X171148499Y-88615917D01*
X171168181Y-88548880D01*
X171220984Y-88503123D01*
X171290142Y-88493178D01*
X171353699Y-88522201D01*
G37*
%TD.AperFunction*%
%TA.AperFunction,Conductor*%
G36*
X142513175Y-92079351D02*
G01*
X142544451Y-92141830D01*
X142545360Y-92147662D01*
X142551919Y-92197483D01*
X142551956Y-92197760D01*
X142551956Y-92197762D01*
X142593468Y-92297982D01*
X142612464Y-92343841D01*
X142701348Y-92459678D01*
X142704408Y-92467591D01*
X142718313Y-92476644D01*
X142834159Y-92565536D01*
X142980238Y-92626044D01*
X143137000Y-92646682D01*
X143172900Y-92641955D01*
X143241933Y-92652720D01*
X143276766Y-92677213D01*
X143402872Y-92803319D01*
X143436357Y-92864642D01*
X143431373Y-92934334D01*
X143402872Y-92978681D01*
X143224681Y-93156872D01*
X143163358Y-93190357D01*
X143093666Y-93185373D01*
X143049319Y-93156872D01*
X142829096Y-92936649D01*
X142937000Y-92936649D01*
X142976613Y-93018905D01*
X143047992Y-93075827D01*
X143114468Y-93091000D01*
X143159532Y-93091000D01*
X143226008Y-93075827D01*
X143297387Y-93018905D01*
X143337000Y-92936649D01*
X143337000Y-92845351D01*
X143297387Y-92763095D01*
X143226008Y-92706173D01*
X143159532Y-92691000D01*
X143114468Y-92691000D01*
X143047992Y-92706173D01*
X142976613Y-92763095D01*
X142937000Y-92845351D01*
X142937000Y-92936649D01*
X142829096Y-92936649D01*
X142555155Y-92662708D01*
X142542719Y-92639934D01*
X142529848Y-92635307D01*
X142515291Y-92622844D01*
X142385346Y-92492899D01*
X142377925Y-92493876D01*
X142321932Y-92485143D01*
X142331242Y-92494453D01*
X142346095Y-92562726D01*
X142340342Y-92592199D01*
X142300997Y-92713294D01*
X142300995Y-92713299D01*
X142282318Y-92891000D01*
X142300995Y-93068700D01*
X142300996Y-93068702D01*
X142356206Y-93238624D01*
X142358850Y-93244560D01*
X142356416Y-93245643D01*
X142370094Y-93302082D01*
X142347226Y-93368103D01*
X142306414Y-93404569D01*
X142211508Y-93457246D01*
X142211494Y-93457256D01*
X142205269Y-93462601D01*
X142141579Y-93491332D01*
X142072468Y-93481069D01*
X142019876Y-93435070D01*
X142000500Y-93368514D01*
X142000500Y-92627180D01*
X142020185Y-92560141D01*
X142050188Y-92527914D01*
X142056509Y-92523182D01*
X142148104Y-92454613D01*
X142213563Y-92430198D01*
X142260869Y-92440488D01*
X142256635Y-92436730D01*
X142237750Y-92369460D01*
X142245559Y-92327604D01*
X142294091Y-92197483D01*
X142299132Y-92150589D01*
X142325869Y-92086043D01*
X142383261Y-92046194D01*
X142453086Y-92043700D01*
X142513175Y-92079351D01*
G37*
%TD.AperFunction*%
%TA.AperFunction,Conductor*%
G36*
X150336240Y-86895185D02*
G01*
X150356882Y-86911819D01*
X150484388Y-87039325D01*
X150517873Y-87100648D01*
X150512889Y-87170340D01*
X150471017Y-87226273D01*
X150409309Y-87250364D01*
X150349302Y-87256494D01*
X150182880Y-87311641D01*
X150182875Y-87311643D01*
X150033654Y-87403684D01*
X149909684Y-87527654D01*
X149817643Y-87676875D01*
X149817641Y-87676880D01*
X149762494Y-87843302D01*
X149762493Y-87843309D01*
X149752000Y-87946013D01*
X149752000Y-88396000D01*
X151901999Y-88396000D01*
X151901999Y-88092500D01*
X151921684Y-88025461D01*
X151974488Y-87979706D01*
X152025999Y-87968500D01*
X160201100Y-87968500D01*
X160268139Y-87988185D01*
X160313894Y-88040989D01*
X160323838Y-88110147D01*
X160294813Y-88173703D01*
X160288781Y-88180181D01*
X157635281Y-90833681D01*
X157573958Y-90867166D01*
X157547600Y-90870000D01*
X154322383Y-90870000D01*
X154255344Y-90850315D01*
X154209589Y-90797511D01*
X154198980Y-90758154D01*
X154197402Y-90742128D01*
X154187300Y-90639566D01*
X154127232Y-90441546D01*
X154029685Y-90259050D01*
X153935421Y-90144188D01*
X153898410Y-90099089D01*
X153768975Y-89992866D01*
X153738450Y-89967815D01*
X153555954Y-89870268D01*
X153357934Y-89810200D01*
X153357932Y-89810199D01*
X153357934Y-89810199D01*
X153152000Y-89789917D01*
X152946067Y-89810199D01*
X152748043Y-89870269D01*
X152677558Y-89907945D01*
X152565550Y-89967815D01*
X152565548Y-89967816D01*
X152565547Y-89967817D01*
X152405589Y-90099089D01*
X152274317Y-90259047D01*
X152274315Y-90259050D01*
X152257879Y-90289799D01*
X152176769Y-90441543D01*
X152129109Y-90598658D01*
X152090811Y-90657097D01*
X152026999Y-90685553D01*
X151957932Y-90674993D01*
X151905538Y-90628769D01*
X151890673Y-90594756D01*
X151838269Y-90399182D01*
X151838265Y-90399173D01*
X151742133Y-90193016D01*
X151742129Y-90193010D01*
X151626169Y-90027403D01*
X151603841Y-89961197D01*
X151620851Y-89893430D01*
X151640062Y-89868597D01*
X151744317Y-89764342D01*
X151836356Y-89615124D01*
X151836358Y-89615119D01*
X151891505Y-89448697D01*
X151891506Y-89448690D01*
X151901999Y-89345986D01*
X151902000Y-89345973D01*
X151902000Y-88896000D01*
X151077000Y-88896000D01*
X151077000Y-89965000D01*
X151057315Y-90032039D01*
X151004511Y-90077794D01*
X150953000Y-90089000D01*
X150862000Y-90089000D01*
X150862000Y-90929814D01*
X150850045Y-90917859D01*
X150737148Y-90860335D01*
X150643481Y-90845500D01*
X150580519Y-90845500D01*
X150486852Y-90860335D01*
X150373955Y-90917859D01*
X150362000Y-90929814D01*
X150362000Y-89626500D01*
X150381685Y-89559461D01*
X150434489Y-89513706D01*
X150486000Y-89502500D01*
X150577000Y-89502500D01*
X150577000Y-88896000D01*
X149752001Y-88896000D01*
X149752001Y-89345986D01*
X149762494Y-89448697D01*
X149817641Y-89615119D01*
X149817646Y-89615128D01*
X149842200Y-89654938D01*
X149860640Y-89722331D01*
X149839717Y-89788994D01*
X149807787Y-89821607D01*
X149773189Y-89845834D01*
X149773180Y-89845841D01*
X149612342Y-90006679D01*
X149481865Y-90193017D01*
X149385734Y-90399173D01*
X149385731Y-90399180D01*
X149333326Y-90594757D01*
X149296961Y-90654417D01*
X149234113Y-90684946D01*
X149164738Y-90676651D01*
X149110860Y-90632166D01*
X149094892Y-90598662D01*
X149047232Y-90441546D01*
X148949685Y-90259050D01*
X148855421Y-90144188D01*
X148818410Y-90099089D01*
X148658451Y-89967815D01*
X148638045Y-89956908D01*
X148588202Y-89907945D01*
X148572500Y-89847551D01*
X148572500Y-89677512D01*
X148592185Y-89610473D01*
X148597225Y-89603212D01*
X148645796Y-89538331D01*
X148696091Y-89403483D01*
X148702500Y-89343873D01*
X148702499Y-87948128D01*
X148696091Y-87888517D01*
X148695709Y-87887494D01*
X148645797Y-87753671D01*
X148645793Y-87753664D01*
X148559547Y-87638455D01*
X148559544Y-87638452D01*
X148444335Y-87552206D01*
X148444328Y-87552202D01*
X148309486Y-87501910D01*
X148309485Y-87501909D01*
X148309483Y-87501909D01*
X148249873Y-87495500D01*
X148249863Y-87495500D01*
X147504129Y-87495500D01*
X147504123Y-87495501D01*
X147444515Y-87501909D01*
X147316113Y-87549799D01*
X147246422Y-87554783D01*
X147185099Y-87521297D01*
X147151615Y-87459974D01*
X147156600Y-87390282D01*
X147185098Y-87345938D01*
X147619218Y-86911819D01*
X147680541Y-86878334D01*
X147706899Y-86875500D01*
X150269201Y-86875500D01*
X150336240Y-86895185D01*
G37*
%TD.AperFunction*%
%TA.AperFunction,Conductor*%
G36*
X160821213Y-81046185D02*
G01*
X160866968Y-81098989D01*
X160876912Y-81168147D01*
X160847887Y-81231703D01*
X160824025Y-81252954D01*
X160799861Y-81269427D01*
X161563506Y-82033072D01*
X161521807Y-82048887D01*
X161382207Y-82145245D01*
X161269724Y-82272213D01*
X161209770Y-82386443D01*
X160446902Y-81623575D01*
X160399093Y-81683526D01*
X160267974Y-81910631D01*
X160172165Y-82154746D01*
X160172162Y-82154758D01*
X160113810Y-82410414D01*
X160110819Y-82450324D01*
X160086179Y-82515705D01*
X160030103Y-82557385D01*
X159960395Y-82562132D01*
X159943833Y-82557238D01*
X159894519Y-82538845D01*
X159886350Y-82535461D01*
X159841185Y-82514835D01*
X159841183Y-82514834D01*
X159836410Y-82514148D01*
X159810728Y-82507593D01*
X159806214Y-82505909D01*
X159756674Y-82502365D01*
X159747887Y-82501420D01*
X159734527Y-82499500D01*
X159734525Y-82499500D01*
X159721036Y-82499500D01*
X159712189Y-82499184D01*
X159662657Y-82495641D01*
X159662653Y-82495641D01*
X159657943Y-82496666D01*
X159631585Y-82499500D01*
X157567143Y-82499500D01*
X157540785Y-82496666D01*
X157536074Y-82495641D01*
X157536070Y-82495641D01*
X157486539Y-82499184D01*
X157477692Y-82499500D01*
X157464200Y-82499500D01*
X157458063Y-82500382D01*
X157450840Y-82501420D01*
X157442054Y-82502365D01*
X157392516Y-82505909D01*
X157392513Y-82505910D01*
X157387986Y-82507598D01*
X157362327Y-82514146D01*
X157357550Y-82514833D01*
X157357543Y-82514835D01*
X157312365Y-82535466D01*
X157304191Y-82538851D01*
X157257675Y-82556200D01*
X157257664Y-82556206D01*
X157253799Y-82559100D01*
X157231020Y-82572615D01*
X157226636Y-82574617D01*
X157226625Y-82574624D01*
X157189108Y-82607132D01*
X157182226Y-82612678D01*
X157171403Y-82620780D01*
X157161854Y-82630329D01*
X157155384Y-82636353D01*
X157117861Y-82668867D01*
X157117854Y-82668876D01*
X157115243Y-82672938D01*
X157098616Y-82693568D01*
X154985005Y-84807181D01*
X154923682Y-84840666D01*
X154897324Y-84843500D01*
X154101833Y-84843500D01*
X154034794Y-84823815D01*
X153989039Y-84771011D01*
X153979095Y-84701853D01*
X154005980Y-84640835D01*
X154022646Y-84620527D01*
X154029685Y-84611950D01*
X154127232Y-84429454D01*
X154187300Y-84231434D01*
X154202500Y-84077108D01*
X154202500Y-83173892D01*
X154187300Y-83019566D01*
X154127232Y-82821546D01*
X154029685Y-82639050D01*
X153970624Y-82567083D01*
X153898410Y-82479089D01*
X153738452Y-82347817D01*
X153738453Y-82347817D01*
X153738450Y-82347815D01*
X153555954Y-82250268D01*
X153357934Y-82190200D01*
X153357932Y-82190199D01*
X153357934Y-82190199D01*
X153152000Y-82169917D01*
X152946067Y-82190199D01*
X152748043Y-82250269D01*
X152637898Y-82309143D01*
X152565550Y-82347815D01*
X152565548Y-82347816D01*
X152565547Y-82347817D01*
X152405589Y-82479089D01*
X152281472Y-82630329D01*
X152274315Y-82639050D01*
X152250212Y-82684143D01*
X152176769Y-82821543D01*
X152116699Y-83019567D01*
X152111572Y-83071627D01*
X152101500Y-83173892D01*
X152101500Y-84077108D01*
X152105801Y-84120775D01*
X152116699Y-84231432D01*
X152131790Y-84281179D01*
X152176768Y-84429454D01*
X152252818Y-84571733D01*
X152274317Y-84611953D01*
X152298020Y-84640835D01*
X152325333Y-84705145D01*
X152313542Y-84774012D01*
X152266390Y-84825573D01*
X152202167Y-84843500D01*
X151561833Y-84843500D01*
X151494794Y-84823815D01*
X151449039Y-84771011D01*
X151439095Y-84701853D01*
X151465980Y-84640835D01*
X151482646Y-84620527D01*
X151489685Y-84611950D01*
X151587232Y-84429454D01*
X151647300Y-84231434D01*
X151662500Y-84077108D01*
X151662500Y-83173892D01*
X151647300Y-83019566D01*
X151587232Y-82821546D01*
X151489685Y-82639050D01*
X151430624Y-82567083D01*
X151358410Y-82479089D01*
X151198452Y-82347817D01*
X151198453Y-82347817D01*
X151198450Y-82347815D01*
X151015954Y-82250268D01*
X150817934Y-82190200D01*
X150817932Y-82190199D01*
X150817934Y-82190199D01*
X150612000Y-82169917D01*
X150406067Y-82190199D01*
X150208043Y-82250269D01*
X150097898Y-82309143D01*
X150025550Y-82347815D01*
X150025548Y-82347816D01*
X150025547Y-82347817D01*
X149865589Y-82479089D01*
X149741472Y-82630329D01*
X149734315Y-82639050D01*
X149710212Y-82684143D01*
X149636769Y-82821543D01*
X149576699Y-83019567D01*
X149571572Y-83071627D01*
X149561500Y-83173892D01*
X149561500Y-84077108D01*
X149565801Y-84120775D01*
X149576699Y-84231432D01*
X149591790Y-84281179D01*
X149636768Y-84429454D01*
X149712818Y-84571733D01*
X149734317Y-84611953D01*
X149758020Y-84640835D01*
X149785333Y-84705145D01*
X149773542Y-84774012D01*
X149726390Y-84825573D01*
X149662167Y-84843500D01*
X149246500Y-84843500D01*
X149179461Y-84823815D01*
X149133706Y-84771011D01*
X149122500Y-84719500D01*
X149122500Y-82400823D01*
X149122499Y-82400821D01*
X149107967Y-82327764D01*
X149107966Y-82327760D01*
X149070851Y-82272213D01*
X149052601Y-82244899D01*
X148970737Y-82190200D01*
X148969739Y-82189533D01*
X148969735Y-82189532D01*
X148896677Y-82175000D01*
X148896674Y-82175000D01*
X147247326Y-82175000D01*
X147247323Y-82175000D01*
X147174264Y-82189532D01*
X147174260Y-82189533D01*
X147091399Y-82244899D01*
X147036033Y-82327760D01*
X147036032Y-82327764D01*
X147021500Y-82400821D01*
X147021500Y-84719500D01*
X147001815Y-84786539D01*
X146949011Y-84832294D01*
X146897500Y-84843500D01*
X146602675Y-84843500D01*
X146535636Y-84823815D01*
X146514994Y-84807181D01*
X146215181Y-84507368D01*
X145901385Y-84193571D01*
X145884750Y-84172928D01*
X145882145Y-84168874D01*
X145882143Y-84168872D01*
X145844614Y-84136353D01*
X145838143Y-84130329D01*
X145828593Y-84120779D01*
X145817785Y-84112688D01*
X145810904Y-84107144D01*
X145773373Y-84074623D01*
X145773372Y-84074622D01*
X145773367Y-84074619D01*
X145768983Y-84072617D01*
X145746194Y-84059096D01*
X145742331Y-84056204D01*
X145742329Y-84056203D01*
X145695790Y-84038845D01*
X145687622Y-84035461D01*
X145642457Y-84014835D01*
X145642455Y-84014834D01*
X145637682Y-84014148D01*
X145612000Y-84007593D01*
X145607486Y-84005909D01*
X145557946Y-84002365D01*
X145549159Y-84001420D01*
X145535799Y-83999500D01*
X145535797Y-83999500D01*
X145522308Y-83999500D01*
X145513461Y-83999184D01*
X145463929Y-83995641D01*
X145463925Y-83995641D01*
X145459215Y-83996666D01*
X145432857Y-83999500D01*
X142067143Y-83999500D01*
X142040785Y-83996666D01*
X142036074Y-83995641D01*
X142036070Y-83995641D01*
X141986539Y-83999184D01*
X141977692Y-83999500D01*
X141964200Y-83999500D01*
X141958063Y-84000382D01*
X141950840Y-84001420D01*
X141942054Y-84002365D01*
X141892516Y-84005909D01*
X141892513Y-84005910D01*
X141887986Y-84007598D01*
X141862327Y-84014146D01*
X141857550Y-84014833D01*
X141857543Y-84014835D01*
X141812365Y-84035466D01*
X141804191Y-84038851D01*
X141757675Y-84056200D01*
X141757664Y-84056206D01*
X141753799Y-84059100D01*
X141731020Y-84072615D01*
X141726636Y-84074617D01*
X141726625Y-84074624D01*
X141689108Y-84107132D01*
X141682226Y-84112678D01*
X141671403Y-84120780D01*
X141661854Y-84130329D01*
X141655384Y-84136353D01*
X141617861Y-84168867D01*
X141617854Y-84168876D01*
X141615243Y-84172938D01*
X141598616Y-84193568D01*
X141304061Y-84488123D01*
X141283431Y-84504750D01*
X141279369Y-84507361D01*
X141279360Y-84507368D01*
X141246846Y-84544891D01*
X141240822Y-84551361D01*
X141231273Y-84560910D01*
X141223171Y-84571733D01*
X141217625Y-84578615D01*
X141185117Y-84616132D01*
X141185110Y-84616143D01*
X141183108Y-84620527D01*
X141169593Y-84643306D01*
X141166699Y-84647171D01*
X141166694Y-84647180D01*
X141152838Y-84684331D01*
X141110966Y-84740264D01*
X141045502Y-84764680D01*
X140987757Y-84754947D01*
X140812862Y-84679893D01*
X140623606Y-84641000D01*
X140377000Y-84641000D01*
X140377000Y-85291000D01*
X139877000Y-85291000D01*
X139877000Y-84641000D01*
X139678824Y-84641000D01*
X139534778Y-84655647D01*
X139350438Y-84713484D01*
X139350428Y-84713489D01*
X139181501Y-84807251D01*
X139181494Y-84807256D01*
X139034894Y-84933107D01*
X138916631Y-85085890D01*
X138916629Y-85085894D01*
X138831542Y-85259356D01*
X138810404Y-85341000D01*
X139560889Y-85341000D01*
X139521390Y-85365457D01*
X139453799Y-85454962D01*
X139423105Y-85562840D01*
X139433454Y-85674521D01*
X139483448Y-85774922D01*
X139555931Y-85841000D01*
X138806529Y-85841000D01*
X138869685Y-86011527D01*
X138869687Y-86011531D01*
X138971892Y-86175503D01*
X139105002Y-86315534D01*
X139105003Y-86315535D01*
X139241703Y-86410681D01*
X139285482Y-86465135D01*
X139292870Y-86534613D01*
X139261524Y-86597056D01*
X139258547Y-86600137D01*
X138653503Y-87205181D01*
X138592180Y-87238666D01*
X138565822Y-87241500D01*
X138152129Y-87241500D01*
X138152123Y-87241501D01*
X138092516Y-87247908D01*
X137957671Y-87298202D01*
X137957669Y-87298203D01*
X137882811Y-87354243D01*
X137817347Y-87378660D01*
X137749074Y-87363809D01*
X137699668Y-87314404D01*
X137684500Y-87254976D01*
X137684500Y-84771542D01*
X137704185Y-84704503D01*
X137756989Y-84658748D01*
X137767635Y-84654469D01*
X147871499Y-81129522D01*
X148146965Y-81033420D01*
X148187811Y-81026500D01*
X160754174Y-81026500D01*
X160821213Y-81046185D01*
G37*
%TD.AperFunction*%
%TA.AperFunction,Conductor*%
G36*
X158360235Y-83520185D02*
G01*
X158405990Y-83572989D01*
X158415934Y-83642147D01*
X158386909Y-83705703D01*
X158363047Y-83726954D01*
X158297961Y-83771327D01*
X159061606Y-84534972D01*
X159019907Y-84550787D01*
X158880307Y-84647145D01*
X158767824Y-84774113D01*
X158707870Y-84888343D01*
X157945002Y-84125475D01*
X157897193Y-84185426D01*
X157766074Y-84412531D01*
X157670265Y-84656646D01*
X157670262Y-84656658D01*
X157611910Y-84912315D01*
X157592314Y-85173815D01*
X157592314Y-85173824D01*
X157611910Y-85435324D01*
X157670262Y-85690981D01*
X157670265Y-85690993D01*
X157766074Y-85935108D01*
X157897195Y-86162216D01*
X158000046Y-86291188D01*
X158026455Y-86355874D01*
X158013698Y-86424570D01*
X157965828Y-86475463D01*
X157903099Y-86492500D01*
X155282308Y-86492500D01*
X155215269Y-86472815D01*
X155180257Y-86438938D01*
X155176483Y-86433470D01*
X155058240Y-86328717D01*
X155058238Y-86328716D01*
X155058237Y-86328715D01*
X154918365Y-86255303D01*
X154764986Y-86217500D01*
X154764985Y-86217500D01*
X154607015Y-86217500D01*
X154607014Y-86217500D01*
X154453634Y-86255303D01*
X154313762Y-86328715D01*
X154301567Y-86339519D01*
X154199343Y-86430081D01*
X154195516Y-86433471D01*
X154105781Y-86563475D01*
X154105780Y-86563476D01*
X154049762Y-86711181D01*
X154030722Y-86867999D01*
X154030722Y-86868000D01*
X154049763Y-87024819D01*
X154049763Y-87024821D01*
X154059134Y-87049530D01*
X154064501Y-87119193D01*
X154031353Y-87180699D01*
X153970214Y-87214520D01*
X153943192Y-87217500D01*
X151776000Y-87217500D01*
X151708961Y-87197815D01*
X151688319Y-87181181D01*
X150778249Y-86271111D01*
X150762122Y-86251252D01*
X150756186Y-86242167D01*
X150756185Y-86242166D01*
X150756184Y-86242164D01*
X150731209Y-86222725D01*
X150719691Y-86212553D01*
X150719615Y-86212477D01*
X150702695Y-86200398D01*
X150698579Y-86197329D01*
X150657289Y-86165190D01*
X150650374Y-86161448D01*
X150643297Y-86157988D01*
X150593143Y-86143056D01*
X150588267Y-86141494D01*
X150538762Y-86124500D01*
X150531023Y-86123208D01*
X150523185Y-86122231D01*
X150472301Y-86124336D01*
X150470906Y-86124394D01*
X150465784Y-86124500D01*
X147551804Y-86124500D01*
X147526357Y-86121861D01*
X147515731Y-86119633D01*
X147515730Y-86119633D01*
X147484325Y-86123548D01*
X147468986Y-86124500D01*
X147468884Y-86124500D01*
X147448367Y-86127923D01*
X147443322Y-86128658D01*
X147423196Y-86131167D01*
X147391368Y-86135135D01*
X147383844Y-86137375D01*
X147376388Y-86139935D01*
X147330357Y-86164844D01*
X147325807Y-86167186D01*
X147278791Y-86190171D01*
X147272398Y-86194735D01*
X147266173Y-86199580D01*
X147230729Y-86238082D01*
X147227183Y-86241777D01*
X146212181Y-87256780D01*
X146150858Y-87290265D01*
X146081166Y-87285281D01*
X146025233Y-87243409D01*
X146000816Y-87177945D01*
X146000500Y-87169099D01*
X146000500Y-86258675D01*
X146020185Y-86191636D01*
X146036815Y-86170998D01*
X146326994Y-85880818D01*
X146388317Y-85847334D01*
X146414675Y-85844500D01*
X155088857Y-85844500D01*
X155115215Y-85847334D01*
X155119927Y-85848359D01*
X155169461Y-85844815D01*
X155178308Y-85844500D01*
X155191799Y-85844500D01*
X155205156Y-85842579D01*
X155213951Y-85841633D01*
X155263483Y-85838091D01*
X155267992Y-85836408D01*
X155293685Y-85829850D01*
X155298457Y-85829165D01*
X155343637Y-85808530D01*
X155351801Y-85805149D01*
X155398331Y-85787796D01*
X155402189Y-85784907D01*
X155424995Y-85771375D01*
X155429373Y-85769377D01*
X155466899Y-85736859D01*
X155473778Y-85731316D01*
X155484593Y-85723221D01*
X155494155Y-85713658D01*
X155500605Y-85707653D01*
X155538143Y-85675128D01*
X155540751Y-85671068D01*
X155557381Y-85650431D01*
X157670995Y-83536819D01*
X157732318Y-83503334D01*
X157758676Y-83500500D01*
X158293196Y-83500500D01*
X158360235Y-83520185D01*
G37*
%TD.AperFunction*%
%TA.AperFunction,Conductor*%
G36*
X142267829Y-86412734D02*
G01*
X142287882Y-86423234D01*
X142288089Y-86422862D01*
X142299086Y-86428966D01*
X142298466Y-86430081D01*
X142347100Y-86470296D01*
X142368325Y-86536863D01*
X142357644Y-86590144D01*
X142356211Y-86593363D01*
X142300996Y-86763297D01*
X142300995Y-86763299D01*
X142281639Y-86947463D01*
X142280171Y-86947308D01*
X142262633Y-87007039D01*
X142209829Y-87052794D01*
X142140671Y-87062738D01*
X142119314Y-87057706D01*
X141957718Y-87004158D01*
X141900273Y-86964385D01*
X141873450Y-86899869D01*
X141885765Y-86831094D01*
X141909038Y-86798774D01*
X141916924Y-86790888D01*
X141937561Y-86774258D01*
X141941621Y-86771650D01*
X141974146Y-86734112D01*
X141980151Y-86727662D01*
X141989714Y-86718100D01*
X141997809Y-86707285D01*
X142003352Y-86700406D01*
X142035870Y-86662880D01*
X142037868Y-86658502D01*
X142051400Y-86635696D01*
X142054289Y-86631838D01*
X142071642Y-86585308D01*
X142075027Y-86577137D01*
X142081088Y-86563866D01*
X142095658Y-86531964D01*
X142096343Y-86527192D01*
X142102902Y-86501499D01*
X142107686Y-86488675D01*
X142110410Y-86489691D01*
X142136824Y-86441280D01*
X142198136Y-86407774D01*
X142267829Y-86412734D01*
G37*
%TD.AperFunction*%
%TA.AperFunction,Conductor*%
G36*
X173424539Y-81046185D02*
G01*
X173470294Y-81098989D01*
X173481500Y-81150500D01*
X173481500Y-84576544D01*
X173461815Y-84643583D01*
X173409011Y-84689338D01*
X173339853Y-84699282D01*
X173276297Y-84670257D01*
X173243944Y-84626354D01*
X173167590Y-84452286D01*
X173031612Y-84244155D01*
X172983083Y-84191439D01*
X172863226Y-84061239D01*
X172863221Y-84061235D01*
X172863219Y-84061233D01*
X172667041Y-83908541D01*
X172667035Y-83908537D01*
X172448381Y-83790207D01*
X172448373Y-83790204D01*
X172213237Y-83709481D01*
X172004713Y-83674685D01*
X171968008Y-83668560D01*
X171719392Y-83668560D01*
X171682687Y-83674685D01*
X171474162Y-83709481D01*
X171239026Y-83790204D01*
X171239018Y-83790207D01*
X171020364Y-83908537D01*
X171020358Y-83908541D01*
X170824180Y-84061233D01*
X170824177Y-84061236D01*
X170655787Y-84244155D01*
X170519809Y-84452286D01*
X170419941Y-84679962D01*
X170358909Y-84920975D01*
X170338379Y-85168734D01*
X170338379Y-85168745D01*
X170358909Y-85416504D01*
X170358909Y-85416507D01*
X170358910Y-85416508D01*
X170383809Y-85514834D01*
X170419941Y-85657517D01*
X170519809Y-85885193D01*
X170595289Y-86000724D01*
X170615476Y-86067613D01*
X170596296Y-86134799D01*
X170543838Y-86180949D01*
X170474756Y-86191412D01*
X170410984Y-86162865D01*
X170403799Y-86156226D01*
X169941144Y-85693571D01*
X169924509Y-85672928D01*
X169921904Y-85668874D01*
X169921902Y-85668872D01*
X169884373Y-85636353D01*
X169877906Y-85630333D01*
X169868352Y-85620779D01*
X169866189Y-85619160D01*
X169857545Y-85612689D01*
X169850663Y-85607144D01*
X169813132Y-85574623D01*
X169813131Y-85574622D01*
X169813126Y-85574619D01*
X169808742Y-85572617D01*
X169785953Y-85559096D01*
X169782090Y-85556204D01*
X169782088Y-85556203D01*
X169735549Y-85538845D01*
X169727381Y-85535461D01*
X169682216Y-85514835D01*
X169682214Y-85514834D01*
X169677441Y-85514148D01*
X169651759Y-85507593D01*
X169647245Y-85505909D01*
X169597705Y-85502365D01*
X169588918Y-85501420D01*
X169575558Y-85499500D01*
X169575556Y-85499500D01*
X169562067Y-85499500D01*
X169553220Y-85499184D01*
X169503688Y-85495641D01*
X169503684Y-85495641D01*
X169498974Y-85496666D01*
X169472616Y-85499500D01*
X162957404Y-85499500D01*
X162890365Y-85479815D01*
X162869723Y-85463181D01*
X162021709Y-84615167D01*
X161988224Y-84553844D01*
X161993208Y-84484152D01*
X162035080Y-84428219D01*
X162090908Y-84404871D01*
X162239235Y-84382513D01*
X162239240Y-84382512D01*
X162489825Y-84305216D01*
X162726085Y-84191440D01*
X162726086Y-84191439D01*
X162897737Y-84074410D01*
X162134094Y-83310767D01*
X162175793Y-83294953D01*
X162315393Y-83198595D01*
X162427876Y-83071627D01*
X162487828Y-82957396D01*
X163250696Y-83720264D01*
X163250697Y-83720263D01*
X163298500Y-83660322D01*
X163298507Y-83660311D01*
X163429625Y-83433208D01*
X163525434Y-83189093D01*
X163525437Y-83189081D01*
X163583789Y-82933424D01*
X163603386Y-82671924D01*
X163603386Y-82671915D01*
X163583789Y-82410415D01*
X163525437Y-82154758D01*
X163525434Y-82154746D01*
X163429625Y-81910631D01*
X163298504Y-81683523D01*
X163250697Y-81623574D01*
X162487828Y-82386443D01*
X162427876Y-82272213D01*
X162315393Y-82145245D01*
X162175793Y-82048887D01*
X162134093Y-82033072D01*
X162897737Y-81269427D01*
X162873574Y-81252954D01*
X162829272Y-81198925D01*
X162821212Y-81129522D01*
X162851955Y-81066779D01*
X162911738Y-81030617D01*
X162943425Y-81026500D01*
X173357500Y-81026500D01*
X173424539Y-81046185D01*
G37*
%TD.AperFunction*%
%TA.AperFunction,Conductor*%
G36*
X160122374Y-84147306D02*
G01*
X160166721Y-84175807D01*
X160344912Y-84353998D01*
X160378397Y-84415321D01*
X160373413Y-84485013D01*
X160344912Y-84529360D01*
X159985928Y-84888343D01*
X159925976Y-84774113D01*
X159813493Y-84647145D01*
X159673893Y-84550787D01*
X159632193Y-84534972D01*
X159991359Y-84175807D01*
X160052682Y-84142322D01*
X160122374Y-84147306D01*
G37*
%TD.AperFunction*%
%TA.AperFunction,Conductor*%
G36*
X161269724Y-83071627D02*
G01*
X161382207Y-83198595D01*
X161521807Y-83294953D01*
X161563505Y-83310767D01*
X161228088Y-83646184D01*
X161166765Y-83679669D01*
X161097073Y-83674685D01*
X161052726Y-83646184D01*
X160874535Y-83467993D01*
X160841050Y-83406670D01*
X160846034Y-83336978D01*
X160874535Y-83292631D01*
X161209770Y-82957395D01*
X161269724Y-83071627D01*
G37*
%TD.AperFunction*%
%TD*%
M02*
