%TF.GenerationSoftware,KiCad,Pcbnew,7.0.10*%
%TF.CreationDate,2024-10-22T16:46:23+13:00*%
%TF.ProjectId,MIDI_To_USB,4d494449-5f54-46f5-9f55-53422e6b6963,rev?*%
%TF.SameCoordinates,Original*%
%TF.FileFunction,Legend,Top*%
%TF.FilePolarity,Positive*%
%FSLAX46Y46*%
G04 Gerber Fmt 4.6, Leading zero omitted, Abs format (unit mm)*
G04 Created by KiCad (PCBNEW 7.0.10) date 2024-10-22 16:46:23*
%MOMM*%
%LPD*%
G01*
G04 APERTURE LIST*
%ADD10C,0.150000*%
%ADD11C,0.120000*%
%ADD12C,2.499360*%
G04 APERTURE END LIST*
D10*
X164693922Y-83869819D02*
X165027255Y-84869819D01*
X165027255Y-84869819D02*
X165360588Y-83869819D01*
X166217731Y-84869819D02*
X165646303Y-84869819D01*
X165932017Y-84869819D02*
X165932017Y-83869819D01*
X165932017Y-83869819D02*
X165836779Y-84012676D01*
X165836779Y-84012676D02*
X165741541Y-84107914D01*
X165741541Y-84107914D02*
X165646303Y-84155533D01*
X164836779Y-81869819D02*
X164836779Y-82679342D01*
X164836779Y-82679342D02*
X164884398Y-82774580D01*
X164884398Y-82774580D02*
X164932017Y-82822200D01*
X164932017Y-82822200D02*
X165027255Y-82869819D01*
X165027255Y-82869819D02*
X165217731Y-82869819D01*
X165217731Y-82869819D02*
X165312969Y-82822200D01*
X165312969Y-82822200D02*
X165360588Y-82774580D01*
X165360588Y-82774580D02*
X165408207Y-82679342D01*
X165408207Y-82679342D02*
X165408207Y-81869819D01*
X165836779Y-82822200D02*
X165979636Y-82869819D01*
X165979636Y-82869819D02*
X166217731Y-82869819D01*
X166217731Y-82869819D02*
X166312969Y-82822200D01*
X166312969Y-82822200D02*
X166360588Y-82774580D01*
X166360588Y-82774580D02*
X166408207Y-82679342D01*
X166408207Y-82679342D02*
X166408207Y-82584104D01*
X166408207Y-82584104D02*
X166360588Y-82488866D01*
X166360588Y-82488866D02*
X166312969Y-82441247D01*
X166312969Y-82441247D02*
X166217731Y-82393628D01*
X166217731Y-82393628D02*
X166027255Y-82346009D01*
X166027255Y-82346009D02*
X165932017Y-82298390D01*
X165932017Y-82298390D02*
X165884398Y-82250771D01*
X165884398Y-82250771D02*
X165836779Y-82155533D01*
X165836779Y-82155533D02*
X165836779Y-82060295D01*
X165836779Y-82060295D02*
X165884398Y-81965057D01*
X165884398Y-81965057D02*
X165932017Y-81917438D01*
X165932017Y-81917438D02*
X166027255Y-81869819D01*
X166027255Y-81869819D02*
X166265350Y-81869819D01*
X166265350Y-81869819D02*
X166408207Y-81917438D01*
X167170112Y-82346009D02*
X167312969Y-82393628D01*
X167312969Y-82393628D02*
X167360588Y-82441247D01*
X167360588Y-82441247D02*
X167408207Y-82536485D01*
X167408207Y-82536485D02*
X167408207Y-82679342D01*
X167408207Y-82679342D02*
X167360588Y-82774580D01*
X167360588Y-82774580D02*
X167312969Y-82822200D01*
X167312969Y-82822200D02*
X167217731Y-82869819D01*
X167217731Y-82869819D02*
X166836779Y-82869819D01*
X166836779Y-82869819D02*
X166836779Y-81869819D01*
X166836779Y-81869819D02*
X167170112Y-81869819D01*
X167170112Y-81869819D02*
X167265350Y-81917438D01*
X167265350Y-81917438D02*
X167312969Y-81965057D01*
X167312969Y-81965057D02*
X167360588Y-82060295D01*
X167360588Y-82060295D02*
X167360588Y-82155533D01*
X167360588Y-82155533D02*
X167312969Y-82250771D01*
X167312969Y-82250771D02*
X167265350Y-82298390D01*
X167265350Y-82298390D02*
X167170112Y-82346009D01*
X167170112Y-82346009D02*
X166836779Y-82346009D01*
X168455827Y-82203152D02*
X168836779Y-82203152D01*
X168598684Y-81869819D02*
X168598684Y-82726961D01*
X168598684Y-82726961D02*
X168646303Y-82822200D01*
X168646303Y-82822200D02*
X168741541Y-82869819D01*
X168741541Y-82869819D02*
X168836779Y-82869819D01*
X169312970Y-82869819D02*
X169217732Y-82822200D01*
X169217732Y-82822200D02*
X169170113Y-82774580D01*
X169170113Y-82774580D02*
X169122494Y-82679342D01*
X169122494Y-82679342D02*
X169122494Y-82393628D01*
X169122494Y-82393628D02*
X169170113Y-82298390D01*
X169170113Y-82298390D02*
X169217732Y-82250771D01*
X169217732Y-82250771D02*
X169312970Y-82203152D01*
X169312970Y-82203152D02*
X169455827Y-82203152D01*
X169455827Y-82203152D02*
X169551065Y-82250771D01*
X169551065Y-82250771D02*
X169598684Y-82298390D01*
X169598684Y-82298390D02*
X169646303Y-82393628D01*
X169646303Y-82393628D02*
X169646303Y-82679342D01*
X169646303Y-82679342D02*
X169598684Y-82774580D01*
X169598684Y-82774580D02*
X169551065Y-82822200D01*
X169551065Y-82822200D02*
X169455827Y-82869819D01*
X169455827Y-82869819D02*
X169312970Y-82869819D01*
X170836780Y-82869819D02*
X170836780Y-81869819D01*
X170836780Y-81869819D02*
X171170113Y-82584104D01*
X171170113Y-82584104D02*
X171503446Y-81869819D01*
X171503446Y-81869819D02*
X171503446Y-82869819D01*
X171979637Y-82869819D02*
X171979637Y-81869819D01*
X172455827Y-82869819D02*
X172455827Y-81869819D01*
X172455827Y-81869819D02*
X172693922Y-81869819D01*
X172693922Y-81869819D02*
X172836779Y-81917438D01*
X172836779Y-81917438D02*
X172932017Y-82012676D01*
X172932017Y-82012676D02*
X172979636Y-82107914D01*
X172979636Y-82107914D02*
X173027255Y-82298390D01*
X173027255Y-82298390D02*
X173027255Y-82441247D01*
X173027255Y-82441247D02*
X172979636Y-82631723D01*
X172979636Y-82631723D02*
X172932017Y-82726961D01*
X172932017Y-82726961D02*
X172836779Y-82822200D01*
X172836779Y-82822200D02*
X172693922Y-82869819D01*
X172693922Y-82869819D02*
X172455827Y-82869819D01*
X173455827Y-82869819D02*
X173455827Y-81869819D01*
X139833333Y-93649580D02*
X139785714Y-93697200D01*
X139785714Y-93697200D02*
X139642857Y-93744819D01*
X139642857Y-93744819D02*
X139547619Y-93744819D01*
X139547619Y-93744819D02*
X139404762Y-93697200D01*
X139404762Y-93697200D02*
X139309524Y-93601961D01*
X139309524Y-93601961D02*
X139261905Y-93506723D01*
X139261905Y-93506723D02*
X139214286Y-93316247D01*
X139214286Y-93316247D02*
X139214286Y-93173390D01*
X139214286Y-93173390D02*
X139261905Y-92982914D01*
X139261905Y-92982914D02*
X139309524Y-92887676D01*
X139309524Y-92887676D02*
X139404762Y-92792438D01*
X139404762Y-92792438D02*
X139547619Y-92744819D01*
X139547619Y-92744819D02*
X139642857Y-92744819D01*
X139642857Y-92744819D02*
X139785714Y-92792438D01*
X139785714Y-92792438D02*
X139833333Y-92840057D01*
X140166667Y-92744819D02*
X140785714Y-92744819D01*
X140785714Y-92744819D02*
X140452381Y-93125771D01*
X140452381Y-93125771D02*
X140595238Y-93125771D01*
X140595238Y-93125771D02*
X140690476Y-93173390D01*
X140690476Y-93173390D02*
X140738095Y-93221009D01*
X140738095Y-93221009D02*
X140785714Y-93316247D01*
X140785714Y-93316247D02*
X140785714Y-93554342D01*
X140785714Y-93554342D02*
X140738095Y-93649580D01*
X140738095Y-93649580D02*
X140690476Y-93697200D01*
X140690476Y-93697200D02*
X140595238Y-93744819D01*
X140595238Y-93744819D02*
X140309524Y-93744819D01*
X140309524Y-93744819D02*
X140214286Y-93697200D01*
X140214286Y-93697200D02*
X140166667Y-93649580D01*
X139833333Y-86901580D02*
X139785714Y-86949200D01*
X139785714Y-86949200D02*
X139642857Y-86996819D01*
X139642857Y-86996819D02*
X139547619Y-86996819D01*
X139547619Y-86996819D02*
X139404762Y-86949200D01*
X139404762Y-86949200D02*
X139309524Y-86853961D01*
X139309524Y-86853961D02*
X139261905Y-86758723D01*
X139261905Y-86758723D02*
X139214286Y-86568247D01*
X139214286Y-86568247D02*
X139214286Y-86425390D01*
X139214286Y-86425390D02*
X139261905Y-86234914D01*
X139261905Y-86234914D02*
X139309524Y-86139676D01*
X139309524Y-86139676D02*
X139404762Y-86044438D01*
X139404762Y-86044438D02*
X139547619Y-85996819D01*
X139547619Y-85996819D02*
X139642857Y-85996819D01*
X139642857Y-85996819D02*
X139785714Y-86044438D01*
X139785714Y-86044438D02*
X139833333Y-86092057D01*
X140214286Y-86092057D02*
X140261905Y-86044438D01*
X140261905Y-86044438D02*
X140357143Y-85996819D01*
X140357143Y-85996819D02*
X140595238Y-85996819D01*
X140595238Y-85996819D02*
X140690476Y-86044438D01*
X140690476Y-86044438D02*
X140738095Y-86092057D01*
X140738095Y-86092057D02*
X140785714Y-86187295D01*
X140785714Y-86187295D02*
X140785714Y-86282533D01*
X140785714Y-86282533D02*
X140738095Y-86425390D01*
X140738095Y-86425390D02*
X140166667Y-86996819D01*
X140166667Y-86996819D02*
X140785714Y-86996819D01*
X149185333Y-87155580D02*
X149137714Y-87203200D01*
X149137714Y-87203200D02*
X148994857Y-87250819D01*
X148994857Y-87250819D02*
X148899619Y-87250819D01*
X148899619Y-87250819D02*
X148756762Y-87203200D01*
X148756762Y-87203200D02*
X148661524Y-87107961D01*
X148661524Y-87107961D02*
X148613905Y-87012723D01*
X148613905Y-87012723D02*
X148566286Y-86822247D01*
X148566286Y-86822247D02*
X148566286Y-86679390D01*
X148566286Y-86679390D02*
X148613905Y-86488914D01*
X148613905Y-86488914D02*
X148661524Y-86393676D01*
X148661524Y-86393676D02*
X148756762Y-86298438D01*
X148756762Y-86298438D02*
X148899619Y-86250819D01*
X148899619Y-86250819D02*
X148994857Y-86250819D01*
X148994857Y-86250819D02*
X149137714Y-86298438D01*
X149137714Y-86298438D02*
X149185333Y-86346057D01*
X150137714Y-87250819D02*
X149566286Y-87250819D01*
X149852000Y-87250819D02*
X149852000Y-86250819D01*
X149852000Y-86250819D02*
X149756762Y-86393676D01*
X149756762Y-86393676D02*
X149661524Y-86488914D01*
X149661524Y-86488914D02*
X149566286Y-86536533D01*
X152346819Y-94654666D02*
X151870628Y-94987999D01*
X152346819Y-95226094D02*
X151346819Y-95226094D01*
X151346819Y-95226094D02*
X151346819Y-94845142D01*
X151346819Y-94845142D02*
X151394438Y-94749904D01*
X151394438Y-94749904D02*
X151442057Y-94702285D01*
X151442057Y-94702285D02*
X151537295Y-94654666D01*
X151537295Y-94654666D02*
X151680152Y-94654666D01*
X151680152Y-94654666D02*
X151775390Y-94702285D01*
X151775390Y-94702285D02*
X151823009Y-94749904D01*
X151823009Y-94749904D02*
X151870628Y-94845142D01*
X151870628Y-94845142D02*
X151870628Y-95226094D01*
X152346819Y-93702285D02*
X152346819Y-94273713D01*
X152346819Y-93987999D02*
X151346819Y-93987999D01*
X151346819Y-93987999D02*
X151489676Y-94083237D01*
X151489676Y-94083237D02*
X151584914Y-94178475D01*
X151584914Y-94178475D02*
X151632533Y-94273713D01*
X166116095Y-86068819D02*
X166116095Y-86878342D01*
X166116095Y-86878342D02*
X166163714Y-86973580D01*
X166163714Y-86973580D02*
X166211333Y-87021200D01*
X166211333Y-87021200D02*
X166306571Y-87068819D01*
X166306571Y-87068819D02*
X166497047Y-87068819D01*
X166497047Y-87068819D02*
X166592285Y-87021200D01*
X166592285Y-87021200D02*
X166639904Y-86973580D01*
X166639904Y-86973580D02*
X166687523Y-86878342D01*
X166687523Y-86878342D02*
X166687523Y-86068819D01*
X167068476Y-86068819D02*
X167687523Y-86068819D01*
X167687523Y-86068819D02*
X167354190Y-86449771D01*
X167354190Y-86449771D02*
X167497047Y-86449771D01*
X167497047Y-86449771D02*
X167592285Y-86497390D01*
X167592285Y-86497390D02*
X167639904Y-86545009D01*
X167639904Y-86545009D02*
X167687523Y-86640247D01*
X167687523Y-86640247D02*
X167687523Y-86878342D01*
X167687523Y-86878342D02*
X167639904Y-86973580D01*
X167639904Y-86973580D02*
X167592285Y-87021200D01*
X167592285Y-87021200D02*
X167497047Y-87068819D01*
X167497047Y-87068819D02*
X167211333Y-87068819D01*
X167211333Y-87068819D02*
X167116095Y-87021200D01*
X167116095Y-87021200D02*
X167068476Y-86973580D01*
X166649833Y-98540819D02*
X166316500Y-98064628D01*
X166078405Y-98540819D02*
X166078405Y-97540819D01*
X166078405Y-97540819D02*
X166459357Y-97540819D01*
X166459357Y-97540819D02*
X166554595Y-97588438D01*
X166554595Y-97588438D02*
X166602214Y-97636057D01*
X166602214Y-97636057D02*
X166649833Y-97731295D01*
X166649833Y-97731295D02*
X166649833Y-97874152D01*
X166649833Y-97874152D02*
X166602214Y-97969390D01*
X166602214Y-97969390D02*
X166554595Y-98017009D01*
X166554595Y-98017009D02*
X166459357Y-98064628D01*
X166459357Y-98064628D02*
X166078405Y-98064628D01*
X167030786Y-97636057D02*
X167078405Y-97588438D01*
X167078405Y-97588438D02*
X167173643Y-97540819D01*
X167173643Y-97540819D02*
X167411738Y-97540819D01*
X167411738Y-97540819D02*
X167506976Y-97588438D01*
X167506976Y-97588438D02*
X167554595Y-97636057D01*
X167554595Y-97636057D02*
X167602214Y-97731295D01*
X167602214Y-97731295D02*
X167602214Y-97826533D01*
X167602214Y-97826533D02*
X167554595Y-97969390D01*
X167554595Y-97969390D02*
X166983167Y-98540819D01*
X166983167Y-98540819D02*
X167602214Y-98540819D01*
X143533905Y-96974819D02*
X143533905Y-95974819D01*
X143533905Y-95974819D02*
X143772000Y-95974819D01*
X143772000Y-95974819D02*
X143914857Y-96022438D01*
X143914857Y-96022438D02*
X144010095Y-96117676D01*
X144010095Y-96117676D02*
X144057714Y-96212914D01*
X144057714Y-96212914D02*
X144105333Y-96403390D01*
X144105333Y-96403390D02*
X144105333Y-96546247D01*
X144105333Y-96546247D02*
X144057714Y-96736723D01*
X144057714Y-96736723D02*
X144010095Y-96831961D01*
X144010095Y-96831961D02*
X143914857Y-96927200D01*
X143914857Y-96927200D02*
X143772000Y-96974819D01*
X143772000Y-96974819D02*
X143533905Y-96974819D01*
X145057714Y-96974819D02*
X144486286Y-96974819D01*
X144772000Y-96974819D02*
X144772000Y-95974819D01*
X144772000Y-95974819D02*
X144676762Y-96117676D01*
X144676762Y-96117676D02*
X144581524Y-96212914D01*
X144581524Y-96212914D02*
X144486286Y-96260533D01*
D11*
%TO.C,C3*%
X140711252Y-90530000D02*
X139288748Y-90530000D01*
X140711252Y-92350000D02*
X139288748Y-92350000D01*
%TO.C,C2*%
X139288748Y-87482000D02*
X140711252Y-87482000D01*
X139288748Y-89302000D02*
X140711252Y-89302000D01*
%TO.C,C1*%
X148640748Y-87736000D02*
X150063252Y-87736000D01*
X148640748Y-89556000D02*
X150063252Y-89556000D01*
%TO.C,R1*%
X149571064Y-95144000D02*
X148116936Y-95144000D01*
X149571064Y-93324000D02*
X148116936Y-93324000D01*
%TO.C,U3*%
X165413000Y-88160000D02*
X165413000Y-87685000D01*
X170633000Y-92905000D02*
X170158000Y-92905000D01*
X170633000Y-92430000D02*
X170633000Y-92905000D01*
X165413000Y-92430000D02*
X165413000Y-92905000D01*
X165413000Y-87685000D02*
X165888000Y-87685000D01*
X170633000Y-88160000D02*
X170633000Y-87685000D01*
X165413000Y-92905000D02*
X165888000Y-92905000D01*
%TO.C,R2*%
X167543564Y-95356000D02*
X166089436Y-95356000D01*
X167543564Y-97176000D02*
X166089436Y-97176000D01*
%TO.C,D1*%
X151980000Y-95654000D02*
X147740000Y-95654000D01*
X148460000Y-95654000D02*
X148460000Y-97894000D01*
X148340000Y-95654000D02*
X148340000Y-97894000D01*
X151980000Y-97894000D02*
X151980000Y-95654000D01*
X148580000Y-95654000D02*
X148580000Y-97894000D01*
X147090000Y-96774000D02*
X147740000Y-96774000D01*
X147740000Y-95654000D02*
X147740000Y-97894000D01*
X147740000Y-97894000D02*
X151980000Y-97894000D01*
X152630000Y-96774000D02*
X151980000Y-96774000D01*
%TD*%
D12*
%TO.C,J1*%
X159346900Y-85173820D03*
X161848800Y-97668080D03*
X161846260Y-90170000D03*
X159346900Y-95166180D03*
X161848800Y-82671920D03*
%TD*%
M02*
